M48
; DRILL file {KiCad 9.0.1} date 2025-04-21T23:58:13-0400
; FORMAT={-:-/ absolute / inch / decimal}
; #@! TF.CreationDate,2025-04-21T23:58:13-04:00
; #@! TF.GenerationSoftware,Kicad,Pcbnew,9.0.1
; #@! TF.FileFunction,NonPlated,1,4,NPTH
FMAT,2
INCH
; #@! TA.AperFunction,NonPlated,NPTH,ComponentDrill
T1C0.0807
; #@! TA.AperFunction,NonPlated,NPTH,ComponentDrill
T2C0.1102
; #@! TA.AperFunction,NonPlated,NPTH,ComponentDrill
T3C0.1969
%
G90
G05
T1
X-1.1201Y1.8789
X-0.5295Y1.8789
X-0.251Y1.8789
X-0.2122Y-1.1884
X0.3396Y1.8789
X0.3783Y-1.1884
X0.6181Y1.8789
X0.6565Y-1.189
X0.873Y1.5266
X0.873Y0.936
X0.874Y0.6575
X0.874Y0.0669
X0.874Y-0.2116
X0.874Y-0.8022
X1.2087Y1.8789
X1.247Y-1.189
T2
X-1.1201Y2.0364
X-0.5295Y2.0364
X-0.251Y2.0364
X-0.2122Y-1.3459
X0.3396Y2.0364
X0.3783Y-1.3459
X0.6181Y2.0364
X0.6565Y-1.3465
X1.0305Y1.5266
X1.0305Y0.936
X1.0315Y0.6575
X1.0315Y0.0669
X1.0315Y-0.2116
X1.0315Y-0.8022
X1.2087Y2.0364
X1.247Y-1.3465
T3
X-2.3632Y-1.4254
X-2.3624Y2.1069
X0.3543Y0.6339
M30
