M48
; DRILL file {KiCad 9.0.1} date 2025-04-21T23:58:13-0400
; FORMAT={-:-/ absolute / inch / decimal}
; #@! TF.CreationDate,2025-04-21T23:58:13-04:00
; #@! TF.GenerationSoftware,Kicad,Pcbnew,9.0.1
; #@! TF.FileFunction,Plated,1,4,PTH
FMAT,2
INCH
; #@! TA.AperFunction,Plated,PTH,ViaDrill
T1C0.0118
; #@! TA.AperFunction,Plated,PTH,ViaDrill
T2C0.0157
; #@! TA.AperFunction,Plated,PTH,ViaDrill
T3C0.0197
; #@! TA.AperFunction,Plated,PTH,ViaDrill
T4C0.0315
; #@! TA.AperFunction,Plated,PTH,ViaDrill
T5C0.0394
; #@! TA.AperFunction,Plated,PTH,ComponentDrill
T6C0.0394
; #@! TA.AperFunction,Plated,PTH,ComponentDrill
T7C0.0402
; #@! TA.AperFunction,Plated,PTH,ComponentDrill
T8C0.0472
%
G90
G05
T1
X-1.9134Y1.3346
X-1.9134Y1.2953
X-1.9045Y0.7707
X-1.9045Y0.7313
X-1.8819Y1.3346
X-1.8819Y1.2953
X-1.873Y0.7707
X-1.873Y0.7313
T2
X-2.4164Y-0.9706
X-2.4124Y-0.8781
X-2.4124Y-1.0968
X-2.3288Y-1.0356
X-2.3278Y1.1949
X-2.3199Y1.3819
X-2.2481Y-0.6872
X-2.2382Y-0.7393
X-2.2234Y-0.882
X-2.2225Y-0.7905
X-2.2215Y-1.0277
X-2.1858Y1.3787
X-2.185Y1.5167
X-2.1437Y-0.76
X-2.1388Y1.1437
X-2.1181Y1.5226
X-2.1171Y-0.8771
X-2.1171Y-1.0297
X-2.1152Y-1.1045
X-2.1093Y1.3627
X-2.0576Y1.5674
X-2.0384Y1.3425
X-2.0332Y0.7569
X-1.9981Y-0.7019
X-1.9981Y-0.8161
X-1.9981Y-1.013
X-1.9981Y-1.1025
X-1.9961Y-0.9183
X-1.9744Y0.6403
X-1.9744Y0.5723
X-1.7559Y1.2766
X-1.7421Y0.7116
X-1.6093Y0.1762
X-1.5709Y0.2618
X-1.5108Y0.185
X-1.4449Y0.0157
X-1.3927Y0.1585
X-1.3504Y0.2539
X-1.2746Y-0.4685
X-1.247Y0.4104
X-1.2402Y-0.4488
X-0.9941Y-1.1683
X-0.9941Y-1.4951
X-0.8138Y-1.3927
X-0.7441Y0.7126
X-0.6929Y1.3543
X-0.6142Y1.3543
X-0.4734Y0.9291
X-0.4727Y0.3703
X-0.4724Y0.7205
X-0.4724Y0.1594
X-0.4528Y-1.1683
X-0.4528Y-1.4951
X-0.4222Y1.251
X-0.4213Y1.4843
X-0.3976Y1.3937
X-0.3976Y1.3504
X-0.375Y1.4882
X-0.374Y1.6309
X-0.374Y1.5669
X-0.3543Y1.3937
X-0.3543Y1.3504
X-0.2766Y1.2343
X-0.1535Y1.3583
X-0.1004Y1.2343
X-0.0748Y1.3583
X-0.0551Y0.9085
X-0.0429Y0.2745
X-0.0354Y0.3583
X-0.0335Y0.7333
X0.1417Y-0.2835
X0.1447Y-0.5069
X0.189Y1.185
X0.1909Y1.374
X0.2159Y-0.616
X0.2159Y-0.6947
X0.2205Y1.5984
X0.2205Y1.4947
X0.2226Y-0.1692
X0.2835Y-0.0197
X0.2963Y-0.6161
X0.2963Y-0.6949
X0.2992Y1.5984
X0.315Y1.4685
X0.3189Y1.4213
X0.3257Y-0.0638
X0.3278Y-0.1142
X0.3356Y-0.5089
X0.3425Y0.122
X0.3465Y-0.2835
X0.3583Y1.4685
X0.3622Y1.4213
X0.3661Y-0.1132
X0.374Y1.2362
X0.374Y1.1575
X0.3816Y-0.0611
X0.3982Y0.1777
X0.4021Y-0.3391
X0.4567Y1.4435
X0.4708Y-0.0876
X0.4744Y-0.7002
X0.4761Y-0.6617
X0.4961Y-0.8027
X0.4995Y-0.8711
X0.5005Y-0.94
X0.5177Y-0.7106
X0.518Y-0.66
X0.527Y1.4434
X0.5354Y-0.5551
X0.5513Y-0.0885
X0.5965Y1.4435
X0.6194Y-0.0896
T3
X-1.9882Y1.0984
X-1.8524Y1.5502
T4
X-2.3199Y-0.7324
X-2.1329Y-0.5868
X-2.126Y-1.1931
X-2.0138Y-1.1921
X-2.0108Y-0.5887
T5
X-2.1831Y0.8652
X-2.1102Y1.435
X-2.0128Y1.188
X-2.0128Y0.8799
X-1.8553Y1.188
X-1.8553Y1.0915
X-1.8553Y0.9744
X-1.8553Y0.8799
X-1.7805Y0.5541
X-1.7628Y1.0817
X-1.687Y0.9734
X-1.612Y1.0805
T6
X-2.4183Y0.7971
X-2.4183Y0.6971
X-2.4183Y0.5971
X-2.4183Y0.4971
X-2.4183Y0.3971
X-2.4183Y0.2971
X-2.4183Y0.1971
X-2.4183Y0.0971
X-2.4183Y-0.0029
X-2.4183Y-0.1029
T7
X-1.7768Y0.028
X-1.7768Y-0.072
X-1.7768Y-0.172
X-1.7768Y-0.272
X-1.7768Y-0.372
X-1.7768Y-0.472
X-1.7768Y-0.572
X-1.7768Y-0.672
X-1.7768Y-0.772
X-1.7768Y-0.872
X-1.7768Y-0.972
X-1.7768Y-1.072
X-1.7768Y-1.172
X-1.7768Y-1.272
X-1.7768Y-1.372
X-1.1768Y0.028
X-1.1768Y-0.072
X-1.1768Y-0.172
X-1.1768Y-0.272
X-1.1768Y-0.372
X-1.1768Y-0.472
X-1.1768Y-0.572
X-1.1768Y-0.672
X-1.1768Y-0.772
X-1.1768Y-0.872
X-1.1768Y-0.972
X-1.1768Y-1.072
X-1.1768Y-1.172
X-1.1768Y-1.272
X-1.1768Y-1.372
T8
X-0.8945Y1.9289
X-0.8945Y1.8289
X-0.8248Y2.0364
X-0.8248Y1.7289
X-0.7551Y1.9289
X-0.7551Y1.8289
X-0.0254Y1.9289
X-0.0254Y1.8289
X0.0134Y-1.1384
X0.0134Y-1.2384
X0.0443Y2.0364
X0.0443Y1.7289
X0.0831Y-1.0384
X0.0831Y-1.3459
X0.114Y1.9289
X0.114Y1.8289
X0.1528Y-1.1384
X0.1528Y-1.2384
X0.723Y1.2313
X0.724Y0.3622
X0.724Y-0.5069
X0.823Y1.301
X0.823Y1.1616
X0.824Y0.4319
X0.824Y0.2925
X0.824Y-0.4372
X0.824Y-0.5766
X0.8437Y1.9289
X0.8437Y1.8289
X0.8821Y-1.139
X0.8821Y-1.239
X0.9134Y2.0364
X0.9134Y1.7289
X0.923Y1.301
X0.923Y1.1616
X0.924Y0.4319
X0.924Y0.2925
X0.924Y-0.4372
X0.924Y-0.5766
X0.9518Y-1.039
X0.9518Y-1.3465
X0.9831Y1.9289
X0.9831Y1.8289
X1.0215Y-1.139
X1.0215Y-1.239
X1.0305Y1.2313
X1.0315Y0.3622
X1.0315Y-0.5069
M30
