%TF.GenerationSoftware,KiCad,Pcbnew,9.0.1*%
%TF.CreationDate,2025-04-21T23:58:07-04:00*%
%TF.ProjectId,BREAD_Slice,42524541-445f-4536-9c69-63652e6b6963,rev?*%
%TF.SameCoordinates,PX74eba40PY8552dc0*%
%TF.FileFunction,Copper,L4,Bot*%
%TF.FilePolarity,Positive*%
%FSLAX46Y46*%
G04 Gerber Fmt 4.6, Leading zero omitted, Abs format (unit mm)*
G04 Created by KiCad (PCBNEW 9.0.1) date 2025-04-21 23:58:07*
%MOMM*%
%LPD*%
G01*
G04 APERTURE LIST*
G04 Aperture macros list*
%AMRoundRect*
0 Rectangle with rounded corners*
0 $1 Rounding radius*
0 $2 $3 $4 $5 $6 $7 $8 $9 X,Y pos of 4 corners*
0 Add a 4 corners polygon primitive as box body*
4,1,4,$2,$3,$4,$5,$6,$7,$8,$9,$2,$3,0*
0 Add four circle primitives for the rounded corners*
1,1,$1+$1,$2,$3*
1,1,$1+$1,$4,$5*
1,1,$1+$1,$6,$7*
1,1,$1+$1,$8,$9*
0 Add four rect primitives between the rounded corners*
20,1,$1+$1,$2,$3,$4,$5,0*
20,1,$1+$1,$4,$5,$6,$7,0*
20,1,$1+$1,$6,$7,$8,$9,0*
20,1,$1+$1,$8,$9,$2,$3,0*%
G04 Aperture macros list end*
%TA.AperFunction,EtchedComponent*%
%ADD10C,0.000000*%
%TD*%
%TA.AperFunction,ComponentPad*%
%ADD11R,1.700000X1.700000*%
%TD*%
%TA.AperFunction,ComponentPad*%
%ADD12O,1.700000X1.700000*%
%TD*%
%TA.AperFunction,ComponentPad*%
%ADD13R,1.530000X1.530000*%
%TD*%
%TA.AperFunction,ComponentPad*%
%ADD14C,1.530000*%
%TD*%
%TA.AperFunction,ComponentPad*%
%ADD15C,1.800000*%
%TD*%
%TA.AperFunction,SMDPad,CuDef*%
%ADD16RoundRect,0.250000X0.325000X0.650000X-0.325000X0.650000X-0.325000X-0.650000X0.325000X-0.650000X0*%
%TD*%
%TA.AperFunction,SMDPad,CuDef*%
%ADD17C,2.000000*%
%TD*%
%TA.AperFunction,SMDPad,CuDef*%
%ADD18RoundRect,0.150000X-0.512500X-0.150000X0.512500X-0.150000X0.512500X0.150000X-0.512500X0.150000X0*%
%TD*%
%TA.AperFunction,SMDPad,CuDef*%
%ADD19RoundRect,0.250000X-0.325000X-0.650000X0.325000X-0.650000X0.325000X0.650000X-0.325000X0.650000X0*%
%TD*%
%TA.AperFunction,SMDPad,CuDef*%
%ADD20RoundRect,0.250000X-0.375000X-1.075000X0.375000X-1.075000X0.375000X1.075000X-0.375000X1.075000X0*%
%TD*%
%TA.AperFunction,ViaPad*%
%ADD21C,1.500000*%
%TD*%
%TA.AperFunction,ViaPad*%
%ADD22C,0.800000*%
%TD*%
%TA.AperFunction,ViaPad*%
%ADD23C,1.600000*%
%TD*%
%TA.AperFunction,ViaPad*%
%ADD24C,0.600000*%
%TD*%
%TA.AperFunction,ViaPad*%
%ADD25C,1.000000*%
%TD*%
%TA.AperFunction,Conductor*%
%ADD26C,1.500000*%
%TD*%
%TA.AperFunction,Conductor*%
%ADD27C,1.000000*%
%TD*%
%TA.AperFunction,Conductor*%
%ADD28C,0.900000*%
%TD*%
%TA.AperFunction,Conductor*%
%ADD29C,0.500000*%
%TD*%
%TA.AperFunction,Conductor*%
%ADD30C,0.400000*%
%TD*%
%TA.AperFunction,Conductor*%
%ADD31C,0.250000*%
%TD*%
G04 APERTURE END LIST*
D10*
%TA.AperFunction,EtchedComponent*%
%TO.C,NT1*%
G36*
X-57903593Y-18582774D02*
G01*
X-59903593Y-18582774D01*
X-59903593Y-14582774D01*
X-57903593Y-14582774D01*
X-57903593Y-18582774D01*
G37*
%TD.AperFunction*%
%TD*%
D11*
%TO.P,J1,1,Pin_1*%
%TO.N,GNDPWR*%
X-61425535Y20246068D03*
D12*
%TO.P,J1,2,Pin_2*%
%TO.N,+12V*%
X-61425535Y17706068D03*
%TO.P,J1,3,Pin_3*%
%TO.N,/I2C_CLK*%
X-61425535Y15166068D03*
%TO.P,J1,4,Pin_4*%
%TO.N,/I2C_DAT*%
X-61425535Y12626068D03*
%TO.P,J1,5,Pin_5*%
%TO.N,GNDPWR*%
X-61425535Y10086068D03*
%TO.P,J1,6,Pin_6*%
%TO.N,/ESTOP*%
X-61425535Y7546068D03*
%TO.P,J1,7,Pin_7*%
%TO.N,/INT*%
X-61425535Y5006068D03*
%TO.P,J1,8,Pin_8*%
%TO.N,/SYNC*%
X-61425535Y2466068D03*
%TO.P,J1,9,Pin_9*%
%TO.N,+12V*%
X-61425535Y-73932D03*
%TO.P,J1,10,Pin_10*%
%TO.N,GNDPWR*%
X-61425535Y-2613932D03*
%TD*%
D13*
%TO.P,U2,CN3_1,PA9*%
%TO.N,unconnected-(U2A-PA9-PadCN3_1)*%
X-45130000Y710000D03*
D14*
%TO.P,U2,CN3_2,PA10*%
%TO.N,unconnected-(U2A-PA10-PadCN3_2)*%
X-45130000Y-1830000D03*
%TO.P,U2,CN3_3*%
%TO.N,N/C*%
X-45130000Y-4370000D03*
%TO.P,U2,CN3_4,GND_CN3*%
%TO.N,GNDD*%
X-45130000Y-6910000D03*
%TO.P,U2,CN3_5,PA12*%
%TO.N,/ESTOP*%
X-45130000Y-9450000D03*
%TO.P,U2,CN3_6,PB0*%
%TO.N,/INT*%
X-45130000Y-11990000D03*
%TO.P,U2,CN3_7,PB7*%
%TO.N,/SYNC*%
X-45130000Y-14530000D03*
%TO.P,U2,CN3_8,PB6*%
%TO.N,/LED*%
X-45130000Y-17070000D03*
%TO.P,U2,CN3_9,PB1*%
%TO.N,/ADC_CS*%
X-45130000Y-19610000D03*
%TO.P,U2,CN3_10,PC14*%
%TO.N,/RST_ADC*%
X-45130000Y-22150000D03*
%TO.P,U2,CN3_11,PC15*%
%TO.N,/DRDY*%
X-45130000Y-24690000D03*
%TO.P,U2,CN3_12,PA8*%
%TO.N,/CLK_MCO*%
X-45130000Y-27230000D03*
%TO.P,U2,CN3_13,PA11*%
%TO.N,/SD_CS*%
X-45130000Y-29770000D03*
%TO.P,U2,CN3_14,PB5*%
%TO.N,/MOSI*%
X-45130000Y-32310000D03*
%TO.P,U2,CN3_15,PB4*%
%TO.N,/MISO*%
X-45130000Y-34850000D03*
D13*
%TO.P,U2,CN4_1,VIN*%
%TO.N,unconnected-(U2B-VIN-PadCN4_1)*%
X-29890000Y710000D03*
D14*
%TO.P,U2,CN4_2,GND_CN4*%
%TO.N,GNDD*%
X-29890000Y-1830000D03*
%TO.P,U2,CN4_3,NRST_CN4*%
%TO.N,unconnected-(U2B-NRST_CN4-PadCN4_3)*%
X-29890000Y-4370000D03*
%TO.P,U2,CN4_4,+5V*%
%TO.N,+5VD*%
X-29890000Y-6910000D03*
%TO.P,U2,CN4_5,PA2*%
%TO.N,unconnected-(U2B-PA2-PadCN4_5)*%
X-29890000Y-9450000D03*
%TO.P,U2,CN4_6,PA7*%
%TO.N,unconnected-(U2B-PA7-PadCN4_6)*%
X-29890000Y-11990000D03*
%TO.P,U2,CN4_7,PA6*%
%TO.N,/I2C_CLK*%
X-29890000Y-14530000D03*
%TO.P,U2,CN4_8,PA5*%
%TO.N,/I2C_DAT*%
X-29890000Y-17070000D03*
%TO.P,U2,CN4_9,PA4*%
%TO.N,unconnected-(U2B-PA4-PadCN4_9)*%
X-29890000Y-19610000D03*
%TO.P,U2,CN4_10,PA3*%
%TO.N,unconnected-(U2B-PA3-PadCN4_10)*%
X-29890000Y-22150000D03*
%TO.P,U2,CN4_11,PA1*%
%TO.N,/VADC_SENS*%
X-29890000Y-24690000D03*
%TO.P,U2,CN4_12,PA0*%
%TO.N,/VMID_SENS*%
X-29890000Y-27230000D03*
%TO.P,U2,CN4_13,AREF*%
%TO.N,unconnected-(U2B-AREF-PadCN4_13)*%
X-29890000Y-29770000D03*
%TO.P,U2,CN4_14,+3V3*%
%TO.N,+3V3*%
X-29890000Y-32310000D03*
%TO.P,U2,CN4_15,PB3*%
%TO.N,/SCK*%
X-29890000Y-34850000D03*
%TD*%
D15*
%TO.P,J6,1,1*%
%TO.N,/LC0_SIG+*%
X3880000Y-28915000D03*
%TO.P,J6,2,2*%
%TO.N,/LC0_SIG-*%
X340000Y-28915000D03*
%TO.P,J6,3,3*%
%TO.N,GNDA*%
X340000Y-31455000D03*
%TO.P,J6,4,4*%
%TO.N,VAA*%
X3880000Y-31455000D03*
%TO.P,J6,5,5*%
%TO.N,GNDA*%
X2110000Y-26375000D03*
%TO.P,J6,6,6*%
X2110000Y-34185000D03*
%TD*%
%TO.P,J8,1,1*%
%TO.N,/LC4_SIG+*%
X20905000Y33045000D03*
%TO.P,J8,2,2*%
%TO.N,/LC4_SIG-*%
X20905000Y29505000D03*
%TO.P,J8,3,3*%
%TO.N,GNDA*%
X23445000Y29505000D03*
%TO.P,J8,4,4*%
%TO.N,VAA*%
X23445000Y33045000D03*
%TO.P,J8,5,5*%
%TO.N,GNDA*%
X18365000Y31275000D03*
%TO.P,J8,6,6*%
X26175000Y31275000D03*
%TD*%
%TO.P,J3,1,1*%
%TO.N,/LC3_SIG-*%
X20930000Y10970000D03*
%TO.P,J3,2,2*%
%TO.N,/LC3_SIG+*%
X20930000Y7430000D03*
%TO.P,J3,3,3*%
%TO.N,VAA*%
X23470000Y7430000D03*
%TO.P,J3,4,4*%
%TO.N,GNDA*%
X23470000Y10970000D03*
%TO.P,J3,5,5*%
X18390000Y9200000D03*
%TO.P,J3,6,6*%
X26200000Y9200000D03*
%TD*%
%TO.P,J2,1,1*%
%TO.N,/LC1_SIG-*%
X25945000Y-28930000D03*
%TO.P,J2,2,2*%
%TO.N,/LC1_SIG+*%
X22405000Y-28930000D03*
%TO.P,J2,3,3*%
%TO.N,VAA*%
X22405000Y-31470000D03*
%TO.P,J2,4,4*%
%TO.N,GNDA*%
X25945000Y-31470000D03*
%TO.P,J2,5,5*%
X24175000Y-26390000D03*
%TO.P,J2,6,6*%
X24175000Y-34200000D03*
%TD*%
%TO.P,J4,1,1*%
%TO.N,/LC5_SIG-*%
X21430000Y46455000D03*
%TO.P,J4,2,2*%
%TO.N,/LC5_SIG+*%
X24970000Y46455000D03*
%TO.P,J4,3,3*%
%TO.N,VAA*%
X24970000Y48995000D03*
%TO.P,J4,4,4*%
%TO.N,GNDA*%
X21430000Y48995000D03*
%TO.P,J4,5,5*%
X23200000Y43915000D03*
%TO.P,J4,6,6*%
X23200000Y51725000D03*
%TD*%
%TO.P,J7,1,1*%
%TO.N,/LC2_SIG+*%
X20930000Y-11105000D03*
%TO.P,J7,2,2*%
%TO.N,/LC2_SIG-*%
X20930000Y-14645000D03*
%TO.P,J7,3,3*%
%TO.N,GNDA*%
X23470000Y-14645000D03*
%TO.P,J7,4,4*%
%TO.N,VAA*%
X23470000Y-11105000D03*
%TO.P,J7,5,5*%
%TO.N,GNDA*%
X18390000Y-12875000D03*
%TO.P,J7,6,6*%
X26200000Y-12875000D03*
%TD*%
%TO.P,J9,1,1*%
%TO.N,/LC6_SIG+*%
X-645000Y46455000D03*
%TO.P,J9,2,2*%
%TO.N,/LC6_SIG-*%
X2895000Y46455000D03*
%TO.P,J9,3,3*%
%TO.N,GNDA*%
X2895000Y48995000D03*
%TO.P,J9,4,4*%
%TO.N,VAA*%
X-645000Y48995000D03*
%TO.P,J9,5,5*%
%TO.N,GNDA*%
X1125000Y43915000D03*
%TO.P,J9,6,6*%
X1125000Y51725000D03*
%TD*%
%TO.P,J5,1,1*%
%TO.N,/LC7_SIG-*%
X-22720000Y46455000D03*
%TO.P,J5,2,2*%
%TO.N,/LC7_SIG+*%
X-19180000Y46455000D03*
%TO.P,J5,3,3*%
%TO.N,VAA*%
X-19180000Y48995000D03*
%TO.P,J5,4,4*%
%TO.N,GNDA*%
X-22720000Y48995000D03*
%TO.P,J5,5,5*%
X-20950000Y43915000D03*
%TO.P,J5,6,6*%
X-20950000Y51725000D03*
%TD*%
D16*
%TO.P,C1,1*%
%TO.N,GNDD*%
X-57350535Y-20903932D03*
%TO.P,C1,2*%
%TO.N,+12V*%
X-60300535Y-20903932D03*
%TD*%
D17*
%TO.P,NT1,1,1*%
%TO.N,GNDPWR*%
X-58903593Y-14582774D03*
%TO.P,NT1,2,2*%
%TO.N,GNDD*%
X-58903593Y-18582774D03*
%TD*%
D18*
%TO.P,U1,1,FB*%
%TO.N,+5VD*%
X-60013035Y-25108932D03*
%TO.P,U1,2,EN*%
%TO.N,+12V*%
X-60013035Y-24158932D03*
%TO.P,U1,3,VIN*%
X-60013035Y-23208932D03*
%TO.P,U1,4,GND*%
%TO.N,GNDD*%
X-57738035Y-23208932D03*
%TO.P,U1,5,SW*%
%TO.N,Net-(U1-SW)*%
X-57738035Y-24158932D03*
%TO.P,U1,6,BST*%
%TO.N,Net-(U1-BST)*%
X-57738035Y-25108932D03*
%TD*%
D16*
%TO.P,C2,1*%
%TO.N,Net-(U1-SW)*%
X-55000535Y-27658932D03*
%TO.P,C2,2*%
%TO.N,Net-(U1-BST)*%
X-57950535Y-27658932D03*
%TD*%
D19*
%TO.P,C3,1*%
%TO.N,GNDD*%
X-55250535Y-20858932D03*
%TO.P,C3,2*%
%TO.N,+5VD*%
X-52300535Y-20858932D03*
%TD*%
%TO.P,C4,1*%
%TO.N,GNDD*%
X-55250535Y-17803932D03*
%TO.P,C4,2*%
%TO.N,+5VD*%
X-52300535Y-17803932D03*
%TD*%
D20*
%TO.P,L1,1*%
%TO.N,Net-(U1-SW)*%
X-55175535Y-24158932D03*
%TO.P,L1,2*%
%TO.N,+5VD*%
X-52375535Y-24158932D03*
%TD*%
D21*
%TO.N,+12V*%
X-55450000Y21975000D03*
X-53600000Y36450000D03*
D22*
%TO.N,GNDPWR*%
X-52262500Y39812500D03*
D21*
X-51125000Y22350000D03*
D22*
X-50150000Y14537500D03*
D21*
X-51125000Y30175000D03*
D22*
%TO.N,GNDD*%
X-53775535Y-22278932D03*
X-53775535Y-26153932D03*
X-50750535Y-17828932D03*
X-61275535Y-27858932D03*
X-58925000Y35100000D03*
D23*
X-58925535Y-18603932D03*
D22*
X-25250000Y-29675000D03*
X-56850535Y-18778932D03*
X-20670000Y-35375000D03*
X-50750535Y-28003932D03*
X-11500000Y-37975000D03*
X-56450535Y-20078932D03*
X-54450535Y-19303932D03*
X-50700535Y-23323932D03*
X-57100535Y-17453932D03*
X-53725535Y-28053932D03*
X-11500000Y-29675000D03*
X-54325000Y29050000D03*
X-61375535Y-24653932D03*
X-50750535Y-25728932D03*
X-61275535Y-22303932D03*
X-50750535Y-20728932D03*
X-56475535Y-22403932D03*
X-56425535Y-26103932D03*
X-25250000Y-37975000D03*
X-59150535Y-26303932D03*
D23*
%TO.N,+5VD*%
X-51150535Y-30278932D03*
X-51075535Y-14953932D03*
X-54000535Y-30303932D03*
X-54175535Y-14903932D03*
D24*
%TO.N,GNDA*%
X-48600000Y32900000D03*
D22*
X-18900000Y18100000D03*
X-850000Y18625000D03*
D24*
X-47575000Y18575000D03*
D21*
X-47125000Y30175000D03*
D22*
X-12000000Y4050000D03*
D24*
X-48375000Y18575000D03*
D21*
X-47125000Y27725000D03*
D22*
X7200000Y-500000D03*
X3675000Y-12875000D03*
D21*
X-45225000Y14075000D03*
X-47125000Y22350000D03*
X-44775000Y27475000D03*
D22*
X3600000Y-7200000D03*
D24*
X-47575000Y19575000D03*
D22*
X-1090470Y6973312D03*
D24*
X-48375000Y19575000D03*
X-48600000Y33900000D03*
D22*
X-900000Y9100000D03*
D24*
X-47800000Y32900000D03*
D22*
X15150000Y36665000D03*
X15732400Y-2275000D03*
X-12025000Y23600000D03*
D21*
X-40945399Y27445399D03*
X-47125000Y24750000D03*
D22*
X-9500000Y41425000D03*
X-12000000Y18300000D03*
X12712500Y-23875000D03*
X-12006172Y9406172D03*
D21*
X-42850000Y24725000D03*
D22*
X4800000Y30100000D03*
X-10725000Y31775000D03*
X13600000Y-14100000D03*
X5600000Y37965000D03*
X-1400000Y23075000D03*
D24*
X-47800000Y33900000D03*
D22*
X-2550000Y31350000D03*
X-10700000Y37700000D03*
%TO.N,+3.3VADC*%
X-44250000Y18075001D03*
X-59125000Y30350000D03*
%TO.N,VAA*%
X-44600000Y32425000D03*
X-9500000Y39800000D03*
X14002336Y-2248200D03*
X8525000Y-12925000D03*
X-53800000Y38675000D03*
X4850000Y34900000D03*
X-7025000Y31350000D03*
X12687500Y-22125000D03*
X5653900Y-4296448D03*
X13386634Y36662450D03*
%TO.N,Net-(U8-NR{slash}SS)*%
X-53575000Y34612500D03*
X-51775000Y34100000D03*
%TO.N,Net-(U9-NR{slash}SS)*%
X-50150000Y16262500D03*
X-51643629Y19225000D03*
%TO.N,/MISO*%
X-34300000Y6450000D03*
%TO.N,/CLK_MCO*%
X-36700000Y400000D03*
%TO.N,/MOSI*%
X-35375000Y4025000D03*
%TO.N,/DRDY*%
X-38375000Y4700000D03*
%TO.N,/ADC_CS*%
X-40875000Y4475000D03*
%TO.N,/SCK*%
X-31675000Y10425000D03*
%TO.N,/RST_ADC*%
X-39900000Y6650000D03*
%TO.N,/VMID*%
X-9525000Y37800000D03*
X-55500000Y38525000D03*
X11957400Y-2225000D03*
D25*
X-50500000Y27900000D03*
D22*
X11600000Y36665000D03*
D25*
X-47050000Y39375000D03*
D22*
X12600000Y-20387500D03*
X-55520000Y35020000D03*
%TO.N,/VMID_SENS*%
X-32375000Y-11900000D03*
%TO.N,Net-(Rg1-Pad2)*%
X12093523Y-16806477D03*
X5484700Y-15646053D03*
%TO.N,Net-(Rg1-Pad1)*%
X5484700Y-17646053D03*
X12050000Y-17785000D03*
%TO.N,Net-(Rg2-Pad2)*%
X13156582Y-16762762D03*
X7525000Y-15650000D03*
%TO.N,Net-(Rg2-Pad1)*%
X7525000Y-17650000D03*
X13150000Y-18050000D03*
%TO.N,Net-(Rg3-Pad2)*%
X8800000Y-7200000D03*
X8325000Y-2900000D03*
%TO.N,Net-(Rg3-Pad1)*%
X9300000Y-2875000D03*
X10214214Y-8614213D03*
%TO.N,Net-(Rg4-Pad1)*%
X10114213Y4514214D03*
X9692548Y-1550796D03*
%TO.N,Net-(Rg4-Pad2)*%
X8700000Y3100000D03*
X8271737Y-1621343D03*
%TO.N,Net-(Rg5-Pad2)*%
X9500000Y29400000D03*
X8100000Y36100000D03*
%TO.N,Net-(Rg5-Pad1)*%
X9200000Y36100000D03*
X9500000Y31400000D03*
%TO.N,Net-(Rg6-Pad2)*%
X5600000Y40600000D03*
X8000000Y37300000D03*
%TO.N,Net-(Rg6-Pad1)*%
X9100000Y37300000D03*
X7600000Y40600000D03*
%TO.N,Net-(Rg7-Pad2)*%
X-9000000Y34300000D03*
X-1900000Y34500000D03*
%TO.N,Net-(Rg7-Pad1)*%
X-3900000Y34500000D03*
X-9000000Y35400000D03*
%TO.N,Net-(Rg8-Pad1)*%
X-17600000Y34400000D03*
X-10100000Y35400000D03*
%TO.N,Net-(Rg8-Pad2)*%
X-15600000Y34400000D03*
X-10100000Y34300000D03*
%TO.N,/VADC_SENS*%
X-31500000Y-11400000D03*
%TD*%
D26*
%TO.N,+12V*%
X-63675535Y-3703932D02*
X-61100535Y-6278932D01*
X-61100535Y-20103932D02*
X-60300535Y-20903932D01*
X-61425535Y17706068D02*
X-62065535Y17706068D01*
X-62620535Y-73932D02*
X-63675535Y-1128932D01*
X-61425535Y-73932D02*
X-62620535Y-73932D01*
D27*
X-60013035Y-21191432D02*
X-60300535Y-20903932D01*
D28*
X-60013035Y-23208932D02*
X-60013035Y-24108932D01*
D27*
X-60013035Y-23208932D02*
X-60013035Y-21191432D01*
D26*
X-63005535Y-73932D02*
X-61425535Y-73932D01*
X-63750535Y16021068D02*
X-63750535Y671068D01*
X-61100535Y-6278932D02*
X-61100535Y-20103932D01*
X-63750535Y671068D02*
X-63005535Y-73932D01*
X-63675535Y-1128932D02*
X-63675535Y-3703932D01*
X-62065535Y17706068D02*
X-63750535Y16021068D01*
D27*
%TO.N,Net-(U1-SW)*%
X-55175535Y-27483932D02*
X-55000535Y-27658932D01*
X-55175535Y-24158932D02*
X-56819297Y-24158932D01*
X-55175535Y-24158932D02*
X-55175535Y-27483932D01*
D29*
%TO.N,Net-(U1-BST)*%
X-57950535Y-25321432D02*
X-57738035Y-25108932D01*
X-57950535Y-27658932D02*
X-57950535Y-25321432D01*
D26*
%TO.N,GNDPWR*%
X-58925535Y-14603932D02*
X-58925535Y-3603932D01*
X-58975535Y11271068D02*
X-58975535Y18846068D01*
X-59915535Y-2613932D02*
X-61425535Y-2613932D01*
X-61425535Y10086068D02*
X-60390535Y10086068D01*
X-58975535Y8671068D02*
X-58975535Y-1673932D01*
X-58925535Y-3603932D02*
X-59915535Y-2613932D01*
X-60375535Y20246068D02*
X-61425535Y20246068D01*
X-59830535Y-2528932D02*
X-61340535Y-2528932D01*
X-58975535Y18846068D02*
X-60375535Y20246068D01*
X-60390535Y10086068D02*
X-58975535Y8671068D01*
X-61425535Y10086068D02*
X-60160535Y10086068D01*
X-60160535Y10086068D02*
X-58975535Y11271068D01*
X-58975535Y-1673932D02*
X-59830535Y-2528932D01*
X-61340535Y-2528932D02*
X-61425535Y-2613932D01*
D29*
%TO.N,GNDD*%
X-57738035Y-23208932D02*
X-58825535Y-23208932D01*
X-58825535Y-23208932D02*
X-58875535Y-23258932D01*
D26*
X-57305535Y-20858932D02*
X-55250535Y-20858932D01*
D29*
X-56520535Y-22358932D02*
X-57775535Y-22358932D01*
D30*
X-54325000Y30500000D02*
X-58925000Y35100000D01*
D29*
X-58675535Y-22358932D02*
X-58875535Y-22558932D01*
X-58875535Y-26028932D02*
X-59150535Y-26303932D01*
D26*
X-57350535Y-20903932D02*
X-57350535Y-20135832D01*
D29*
X-56625535Y-23208932D02*
X-56475535Y-23058932D01*
D26*
X-58903593Y-18582774D02*
X-58904377Y-18582774D01*
D29*
X-57775535Y-23171432D02*
X-57738035Y-23208932D01*
X-57775535Y-22358932D02*
X-58675535Y-22358932D01*
X-56475535Y-20858932D02*
X-56475535Y-21658932D01*
X-56475535Y-20858932D02*
X-56475535Y-20158932D01*
D26*
X-57350535Y-20135832D02*
X-58903593Y-18582774D01*
D30*
X-54325000Y29050000D02*
X-54325000Y30500000D01*
D29*
X-58875535Y-23258932D02*
X-58875535Y-26028932D01*
X-56475535Y-22403932D02*
X-56520535Y-22358932D01*
X-58875535Y-22558932D02*
X-58875535Y-23258932D01*
D26*
X-58904377Y-18582774D02*
X-58925535Y-18603932D01*
D29*
X-56475535Y-23058932D02*
X-56475535Y-21658932D01*
D26*
X-57350535Y-20903932D02*
X-57305535Y-20858932D01*
D29*
X-57738035Y-23208932D02*
X-56625535Y-23208932D01*
X-57775535Y-22358932D02*
X-57775535Y-23171432D01*
X-56475535Y-22403932D02*
X-56475535Y-21658932D01*
%TO.N,+5VD*%
X-58825535Y-29053932D02*
X-60013035Y-27866432D01*
D26*
X-51150535Y-30278932D02*
X-52375535Y-29053932D01*
X-52325535Y-17883932D02*
X-52325535Y-20833932D01*
D29*
X-55250535Y-29053932D02*
X-58825535Y-29053932D01*
D26*
X-52325535Y-20833932D02*
X-52300535Y-20858932D01*
X-52375535Y-28678932D02*
X-52375535Y-24158932D01*
D29*
X-54000535Y-30303932D02*
X-55250535Y-29053932D01*
D26*
X-51075535Y-14953932D02*
X-52300535Y-16178932D01*
X-52325535Y-20883932D02*
X-52325535Y-24108932D01*
X-52300535Y-16778932D02*
X-54175535Y-14903932D01*
X-52375535Y-29053932D02*
X-52375535Y-28678932D01*
X-52300535Y-17803932D02*
X-52300535Y-16778932D01*
X-52300535Y-16178932D02*
X-52300535Y-16778932D01*
X-54000535Y-30303932D02*
X-52375535Y-28678932D01*
D27*
X-52300535Y-24083932D02*
X-52375535Y-24158932D01*
D26*
X-52300535Y-20858932D02*
X-52325535Y-20883932D01*
X-52325535Y-24108932D02*
X-52375535Y-24158932D01*
D29*
X-60013035Y-27866432D02*
X-60013035Y-25108932D01*
D31*
%TO.N,+3.3VADC*%
X-44975001Y18075001D02*
X-57250000Y30350000D01*
X-57250000Y30350000D02*
X-59125000Y30350000D01*
X-44250000Y18075001D02*
X-44975001Y18075001D01*
%TO.N,VAA*%
X-53800000Y38675000D02*
X-50850000Y38675000D01*
X-50850000Y38675000D02*
X-44600000Y32425000D01*
D30*
%TO.N,Net-(U8-NR{slash}SS)*%
X-51775000Y34100000D02*
X-53062500Y34100000D01*
X-53062500Y34100000D02*
X-53575000Y34612500D01*
%TO.N,Net-(U9-NR{slash}SS)*%
X-51643629Y19225000D02*
X-51643629Y17756129D01*
X-51643629Y17756129D02*
X-50150000Y16262500D01*
D31*
%TO.N,/MISO*%
X-34300000Y6450000D02*
X-34300000Y-24020000D01*
X-34300000Y-24020000D02*
X-45130000Y-34850000D01*
%TO.N,/CLK_MCO*%
X-36700000Y400000D02*
X-36700000Y-18800000D01*
X-36700000Y-18800000D02*
X-45130000Y-27230000D01*
%TO.N,/MOSI*%
X-35375000Y-22555000D02*
X-45130000Y-32310000D01*
X-35375000Y4025000D02*
X-35375000Y-22555000D01*
%TO.N,/DRDY*%
X-38624000Y4676000D02*
X-38624000Y-18184000D01*
X-38375000Y4700000D02*
X-38600000Y4700000D01*
X-38624000Y-18184000D02*
X-45130000Y-24690000D01*
X-38600000Y4700000D02*
X-38624000Y4676000D01*
%TO.N,/ADC_CS*%
X-40875000Y4475000D02*
X-40875000Y-15355000D01*
X-40875000Y-15355000D02*
X-45130000Y-19610000D01*
%TO.N,/SCK*%
X-33101000Y8999000D02*
X-33101000Y-31639000D01*
X-31675000Y10425000D02*
X-33101000Y8999000D01*
X-33101000Y-31639000D02*
X-29890000Y-34850000D01*
%TO.N,/RST_ADC*%
X-39900000Y-16920000D02*
X-45130000Y-22150000D01*
X-39900000Y6650000D02*
X-39900000Y-16920000D01*
D29*
%TO.N,/VMID*%
X-55400000Y34900000D02*
X-55400000Y32500000D01*
X-47050000Y39375000D02*
X-48500000Y40825000D01*
X-48500000Y40825000D02*
X-53200000Y40825000D01*
X-55400000Y32500000D02*
X-50700000Y27800000D01*
X-53200000Y40825000D02*
X-55500000Y38525000D01*
X-55520000Y35020000D02*
X-55400000Y34900000D01*
X-50700000Y27800000D02*
X-50600000Y27800000D01*
D31*
%TO.N,/VMID_SENS*%
X-32375000Y-24745000D02*
X-29890000Y-27230000D01*
X-32375000Y-11900000D02*
X-32375000Y-24745000D01*
%TO.N,Net-(Rg1-Pad2)*%
X6213647Y-16375000D02*
X5484700Y-15646053D01*
X12093523Y-16806477D02*
X11662046Y-16375000D01*
X11662046Y-16375000D02*
X6213647Y-16375000D01*
%TO.N,Net-(Rg1-Pad1)*%
X12050000Y-17785000D02*
X11249000Y-16984000D01*
X11249000Y-16984000D02*
X6146753Y-16984000D01*
X6146753Y-16984000D02*
X5484700Y-17646053D01*
%TO.N,Net-(Rg2-Pad2)*%
X12990261Y-16762762D02*
X11877499Y-15650000D01*
X11877499Y-15650000D02*
X7525000Y-15650000D01*
X13156582Y-16762762D02*
X12990261Y-16762762D01*
%TO.N,Net-(Rg2-Pad1)*%
X12851528Y-18525000D02*
X8400000Y-18525000D01*
X8400000Y-18525000D02*
X7525000Y-17650000D01*
X13150000Y-18050000D02*
X13150000Y-18226528D01*
X13150000Y-18226528D02*
X12851528Y-18525000D01*
%TO.N,Net-(Rg3-Pad2)*%
X8325000Y-2900000D02*
X8800000Y-3375000D01*
X8800000Y-3375000D02*
X8800000Y-7200000D01*
%TO.N,Net-(Rg3-Pad1)*%
X9300000Y-2875000D02*
X10214214Y-3789214D01*
X10214214Y-3789214D02*
X10214214Y-8614213D01*
%TO.N,Net-(Rg4-Pad1)*%
X9692548Y-1550796D02*
X10114213Y-1129131D01*
X10114213Y-1129131D02*
X10114213Y4514214D01*
%TO.N,Net-(Rg4-Pad2)*%
X8271737Y2671737D02*
X8700000Y3100000D01*
X8271737Y-1621343D02*
X8271737Y2671737D01*
%TO.N,Net-(Rg5-Pad2)*%
X8100000Y36100000D02*
X8100000Y30800000D01*
X8100000Y30800000D02*
X9500000Y29400000D01*
%TO.N,Net-(Rg5-Pad1)*%
X9200000Y31700000D02*
X9500000Y31400000D01*
X9200000Y36100000D02*
X9200000Y31700000D01*
%TO.N,Net-(Rg6-Pad2)*%
X5600000Y39700000D02*
X5600000Y40600000D01*
X8000000Y37300000D02*
X5600000Y39700000D01*
%TO.N,Net-(Rg6-Pad1)*%
X9100000Y37300000D02*
X9100000Y39100000D01*
X9100000Y39100000D02*
X7600000Y40600000D01*
%TO.N,Net-(Rg7-Pad2)*%
X-8200000Y33500000D02*
X-2900000Y33500000D01*
X-2900000Y33500000D02*
X-1900000Y34500000D01*
X-9000000Y34300000D02*
X-8200000Y33500000D01*
%TO.N,Net-(Rg7-Pad1)*%
X-8900000Y35400000D02*
X-8800000Y35500000D01*
X-4900000Y35500000D02*
X-3900000Y34500000D01*
X-9000000Y35400000D02*
X-8900000Y35400000D01*
X-8800000Y35500000D02*
X-4900000Y35500000D01*
%TO.N,Net-(Rg8-Pad1)*%
X-16600000Y35400000D02*
X-17600000Y34400000D01*
X-10100000Y35400000D02*
X-16600000Y35400000D01*
%TO.N,Net-(Rg8-Pad2)*%
X-10100000Y34300000D02*
X-10200000Y34400000D01*
X-10200000Y34400000D02*
X-15600000Y34400000D01*
%TO.N,/VADC_SENS*%
X-31500000Y-23080000D02*
X-29890000Y-24690000D01*
X-31500000Y-11400000D02*
X-31500000Y-23080000D01*
%TD*%
%TA.AperFunction,Conductor*%
%TO.N,/VMID*%
G36*
X16244935Y41746016D02*
G01*
X16290706Y41693226D01*
X16301928Y41641798D01*
X16342812Y-1368265D01*
X16323191Y-1435323D01*
X16270431Y-1481128D01*
X16201282Y-1491138D01*
X16164647Y-1479145D01*
X16164576Y-1479318D01*
X16162320Y-1478383D01*
X16160360Y-1477742D01*
X16158944Y-1476985D01*
X15995067Y-1409106D01*
X15995058Y-1409103D01*
X15821094Y-1374500D01*
X15821091Y-1374500D01*
X15643709Y-1374500D01*
X15643706Y-1374500D01*
X15469741Y-1409103D01*
X15469732Y-1409106D01*
X15305859Y-1476983D01*
X15305846Y-1476990D01*
X15158365Y-1575535D01*
X15158361Y-1575538D01*
X15032938Y-1700961D01*
X15032933Y-1700967D01*
X14979422Y-1781051D01*
X14925810Y-1825855D01*
X14856484Y-1834562D01*
X14793457Y-1804407D01*
X14773219Y-1781050D01*
X14701800Y-1674165D01*
X14701797Y-1674161D01*
X14576374Y-1548738D01*
X14576370Y-1548735D01*
X14428889Y-1450190D01*
X14428876Y-1450183D01*
X14265003Y-1382306D01*
X14264994Y-1382303D01*
X14091030Y-1347700D01*
X14091027Y-1347700D01*
X13913645Y-1347700D01*
X13913642Y-1347700D01*
X13739677Y-1382303D01*
X13739668Y-1382306D01*
X13575795Y-1450183D01*
X13575782Y-1450190D01*
X13428301Y-1548735D01*
X13428297Y-1548738D01*
X13302874Y-1674161D01*
X13302871Y-1674165D01*
X13204326Y-1821646D01*
X13204319Y-1821659D01*
X13136442Y-1985532D01*
X13136439Y-1985541D01*
X13101836Y-2159504D01*
X13101836Y-2336895D01*
X13136439Y-2510858D01*
X13136442Y-2510867D01*
X13204319Y-2674740D01*
X13204326Y-2674753D01*
X13302871Y-2822234D01*
X13302874Y-2822238D01*
X13428297Y-2947661D01*
X13428301Y-2947664D01*
X13575782Y-3046209D01*
X13575795Y-3046216D01*
X13662412Y-3082093D01*
X13739670Y-3114094D01*
X13739672Y-3114094D01*
X13739677Y-3114096D01*
X13913640Y-3148699D01*
X13913643Y-3148700D01*
X13913645Y-3148700D01*
X14091029Y-3148700D01*
X14091030Y-3148699D01*
X14156578Y-3135661D01*
X14264994Y-3114096D01*
X14264997Y-3114094D01*
X14265002Y-3114094D01*
X14428883Y-3046213D01*
X14576371Y-2947664D01*
X14701800Y-2822235D01*
X14755312Y-2742148D01*
X14808924Y-2697344D01*
X14878249Y-2688637D01*
X14941276Y-2718791D01*
X14961516Y-2742149D01*
X15032935Y-2849034D01*
X15032938Y-2849038D01*
X15158361Y-2974461D01*
X15158365Y-2974464D01*
X15305846Y-3073009D01*
X15305859Y-3073016D01*
X15381870Y-3104500D01*
X15469734Y-3140894D01*
X15469736Y-3140894D01*
X15469741Y-3140896D01*
X15643704Y-3175499D01*
X15643707Y-3175500D01*
X15643709Y-3175500D01*
X15821093Y-3175500D01*
X15821094Y-3175499D01*
X15879082Y-3163964D01*
X15995058Y-3140896D01*
X15995061Y-3140894D01*
X15995066Y-3140894D01*
X16158947Y-3073013D01*
X16158956Y-3073006D01*
X16162076Y-3071340D01*
X16163908Y-3070958D01*
X16164576Y-3070682D01*
X16164628Y-3070808D01*
X16230479Y-3057095D01*
X16295723Y-3082093D01*
X16337096Y-3138396D01*
X16344534Y-3180578D01*
X16364149Y-23814512D01*
X16344528Y-23881570D01*
X16291768Y-23927375D01*
X16240160Y-23938630D01*
X13737011Y-23938857D01*
X13669970Y-23919179D01*
X13624210Y-23866379D01*
X13613000Y-23814857D01*
X13613000Y-23786306D01*
X13612999Y-23786304D01*
X13578396Y-23612341D01*
X13578393Y-23612332D01*
X13576452Y-23607647D01*
X13513499Y-23455661D01*
X13510516Y-23448459D01*
X13510509Y-23448446D01*
X13411964Y-23300965D01*
X13411961Y-23300961D01*
X13286538Y-23175538D01*
X13286534Y-23175535D01*
X13165631Y-23094749D01*
X13120826Y-23041136D01*
X13112119Y-22971811D01*
X13142274Y-22908784D01*
X13165632Y-22888545D01*
X13204169Y-22862794D01*
X13261535Y-22824464D01*
X13386964Y-22699035D01*
X13485513Y-22551547D01*
X13553394Y-22387666D01*
X13588000Y-22213691D01*
X13588000Y-22036309D01*
X13588000Y-22036306D01*
X13587999Y-22036304D01*
X13553396Y-21862341D01*
X13553393Y-21862332D01*
X13549801Y-21853661D01*
X13532860Y-21812760D01*
X13485516Y-21698459D01*
X13485509Y-21698446D01*
X13386964Y-21550965D01*
X13386961Y-21550961D01*
X13261538Y-21425538D01*
X13261534Y-21425535D01*
X13114053Y-21326990D01*
X13114040Y-21326983D01*
X12950167Y-21259106D01*
X12950158Y-21259103D01*
X12776194Y-21224500D01*
X12776191Y-21224500D01*
X12598809Y-21224500D01*
X12598806Y-21224500D01*
X12424841Y-21259103D01*
X12424832Y-21259106D01*
X12260959Y-21326983D01*
X12260946Y-21326990D01*
X12113465Y-21425535D01*
X12113461Y-21425538D01*
X11988038Y-21550961D01*
X11988035Y-21550965D01*
X11889490Y-21698446D01*
X11889483Y-21698459D01*
X11821606Y-21862332D01*
X11821603Y-21862341D01*
X11787000Y-22036304D01*
X11787000Y-22213695D01*
X11821603Y-22387658D01*
X11821606Y-22387667D01*
X11889483Y-22551540D01*
X11889490Y-22551553D01*
X11988035Y-22699034D01*
X11988038Y-22699038D01*
X12113461Y-22824461D01*
X12113465Y-22824464D01*
X12234368Y-22905250D01*
X12279173Y-22958863D01*
X12287880Y-23028188D01*
X12257725Y-23091215D01*
X12234369Y-23111454D01*
X12138461Y-23175538D01*
X12013038Y-23300961D01*
X12013035Y-23300965D01*
X11914490Y-23448446D01*
X11914483Y-23448459D01*
X11846606Y-23612332D01*
X11846603Y-23612341D01*
X11812000Y-23786304D01*
X11812000Y-23815044D01*
X11792315Y-23882083D01*
X11739511Y-23927838D01*
X11688011Y-23939044D01*
X1324011Y-23939988D01*
X1256970Y-23920310D01*
X1211210Y-23867510D01*
X1200000Y-23815988D01*
X1200000Y-15557357D01*
X4584200Y-15557357D01*
X4584200Y-15734748D01*
X4618803Y-15908711D01*
X4618806Y-15908720D01*
X4686683Y-16072593D01*
X4686690Y-16072606D01*
X4785235Y-16220087D01*
X4785238Y-16220091D01*
X4910661Y-16345514D01*
X4910665Y-16345517D01*
X5058146Y-16444062D01*
X5058159Y-16444069D01*
X5181063Y-16494976D01*
X5222034Y-16511947D01*
X5242294Y-16515977D01*
X5284818Y-16524436D01*
X5346728Y-16556821D01*
X5381303Y-16617537D01*
X5377563Y-16687306D01*
X5336696Y-16743978D01*
X5284818Y-16767670D01*
X5222040Y-16780157D01*
X5222032Y-16780159D01*
X5058159Y-16848036D01*
X5058146Y-16848043D01*
X4910665Y-16946588D01*
X4910661Y-16946591D01*
X4785238Y-17072014D01*
X4785235Y-17072018D01*
X4686690Y-17219499D01*
X4686683Y-17219512D01*
X4618806Y-17383385D01*
X4618803Y-17383394D01*
X4584200Y-17557357D01*
X4584200Y-17734748D01*
X4618803Y-17908711D01*
X4618806Y-17908720D01*
X4686683Y-18072593D01*
X4686690Y-18072606D01*
X4785235Y-18220087D01*
X4785238Y-18220091D01*
X4910661Y-18345514D01*
X4910665Y-18345517D01*
X5058146Y-18444062D01*
X5058159Y-18444069D01*
X5181063Y-18494976D01*
X5222034Y-18511947D01*
X5222036Y-18511947D01*
X5222041Y-18511949D01*
X5396004Y-18546552D01*
X5396007Y-18546553D01*
X5396009Y-18546553D01*
X5573393Y-18546553D01*
X5573394Y-18546552D01*
X5664672Y-18528396D01*
X5747358Y-18511949D01*
X5747361Y-18511947D01*
X5747366Y-18511947D01*
X5911247Y-18444066D01*
X6058735Y-18345517D01*
X6184164Y-18220088D01*
X6282713Y-18072600D01*
X6350594Y-17908719D01*
X6354148Y-17890855D01*
X6382840Y-17746609D01*
X6415225Y-17684698D01*
X6475940Y-17650124D01*
X6545710Y-17653863D01*
X6602382Y-17694729D01*
X6626074Y-17746608D01*
X6659104Y-17912659D01*
X6659106Y-17912667D01*
X6726983Y-18076540D01*
X6726990Y-18076553D01*
X6825535Y-18224034D01*
X6825538Y-18224038D01*
X6950961Y-18349461D01*
X6950965Y-18349464D01*
X7098446Y-18448009D01*
X7098459Y-18448016D01*
X7221363Y-18498923D01*
X7262334Y-18515894D01*
X7262336Y-18515894D01*
X7262341Y-18515896D01*
X7436304Y-18550499D01*
X7436307Y-18550500D01*
X7436309Y-18550500D01*
X7489548Y-18550500D01*
X7556587Y-18570185D01*
X7577229Y-18586819D01*
X7914139Y-18923729D01*
X7914142Y-18923733D01*
X8001267Y-19010858D01*
X8066480Y-19054432D01*
X8103715Y-19079312D01*
X8152705Y-19099604D01*
X8217548Y-19126463D01*
X8277971Y-19138481D01*
X8338393Y-19150500D01*
X12913135Y-19150500D01*
X12973557Y-19138481D01*
X13033980Y-19126463D01*
X13067320Y-19112652D01*
X13147814Y-19079312D01*
X13204752Y-19041266D01*
X13250261Y-19010858D01*
X13305674Y-18955444D01*
X13309770Y-18952001D01*
X13337056Y-18940029D01*
X13363203Y-18925752D01*
X13365299Y-18925315D01*
X13412666Y-18915894D01*
X13576547Y-18848013D01*
X13724035Y-18749464D01*
X13849464Y-18624035D01*
X13948013Y-18476547D01*
X14015894Y-18312666D01*
X14017551Y-18304339D01*
X14050499Y-18138695D01*
X14050500Y-18138693D01*
X14050500Y-17961306D01*
X14050499Y-17961304D01*
X14015896Y-17787341D01*
X14015893Y-17787332D01*
X14015140Y-17785515D01*
X13960609Y-17653863D01*
X13948016Y-17623459D01*
X13948009Y-17623446D01*
X13852254Y-17480140D01*
X13831376Y-17413463D01*
X13849860Y-17346083D01*
X13852808Y-17341959D01*
X13852662Y-17341862D01*
X13954591Y-17189315D01*
X13954591Y-17189314D01*
X13954595Y-17189309D01*
X14022476Y-17025428D01*
X14027309Y-17001135D01*
X14057081Y-16851457D01*
X14057082Y-16851455D01*
X14057082Y-16674068D01*
X14057081Y-16674066D01*
X14022478Y-16500103D01*
X14022475Y-16500094D01*
X13954598Y-16336221D01*
X13954591Y-16336208D01*
X13856046Y-16188727D01*
X13856043Y-16188723D01*
X13730620Y-16063300D01*
X13730616Y-16063297D01*
X13583135Y-15964752D01*
X13583122Y-15964745D01*
X13419249Y-15896868D01*
X13419240Y-15896865D01*
X13245276Y-15862262D01*
X13245273Y-15862262D01*
X13067891Y-15862262D01*
X13067890Y-15862262D01*
X13054872Y-15864851D01*
X12985280Y-15858622D01*
X12943003Y-15830914D01*
X12370649Y-15258560D01*
X12363359Y-15251270D01*
X12363357Y-15251267D01*
X12276232Y-15164142D01*
X12225008Y-15129915D01*
X12173785Y-15095688D01*
X12173782Y-15095686D01*
X12173779Y-15095685D01*
X12091912Y-15061775D01*
X12091906Y-15061773D01*
X12084520Y-15058714D01*
X12059951Y-15048537D01*
X11999528Y-15036518D01*
X11995407Y-15035698D01*
X11995406Y-15035698D01*
X11939109Y-15024500D01*
X11939106Y-15024500D01*
X11939105Y-15024500D01*
X8224361Y-15024500D01*
X8157322Y-15004815D01*
X8136679Y-14988180D01*
X8099038Y-14950538D01*
X8099034Y-14950535D01*
X7951553Y-14851990D01*
X7951540Y-14851983D01*
X7787667Y-14784106D01*
X7787658Y-14784103D01*
X7613694Y-14749500D01*
X7613691Y-14749500D01*
X7436309Y-14749500D01*
X7436306Y-14749500D01*
X7262341Y-14784103D01*
X7262332Y-14784106D01*
X7098459Y-14851983D01*
X7098446Y-14851990D01*
X6950965Y-14950535D01*
X6950961Y-14950538D01*
X6825538Y-15075961D01*
X6825535Y-15075965D01*
X6726990Y-15223446D01*
X6726983Y-15223459D01*
X6659106Y-15387332D01*
X6659104Y-15387340D01*
X6626859Y-15549444D01*
X6594474Y-15611355D01*
X6533758Y-15645929D01*
X6463988Y-15642188D01*
X6407317Y-15601322D01*
X6383625Y-15549443D01*
X6350596Y-15383394D01*
X6350593Y-15383385D01*
X6282716Y-15219512D01*
X6282709Y-15219499D01*
X6184164Y-15072018D01*
X6184161Y-15072014D01*
X6058738Y-14946591D01*
X6058734Y-14946588D01*
X5911253Y-14848043D01*
X5911240Y-14848036D01*
X5747367Y-14780159D01*
X5747358Y-14780156D01*
X5573394Y-14745553D01*
X5573391Y-14745553D01*
X5396009Y-14745553D01*
X5396006Y-14745553D01*
X5222041Y-14780156D01*
X5222032Y-14780159D01*
X5058159Y-14848036D01*
X5058146Y-14848043D01*
X4910665Y-14946588D01*
X4910661Y-14946591D01*
X4785238Y-15072014D01*
X4785235Y-15072018D01*
X4686690Y-15219499D01*
X4686683Y-15219512D01*
X4618806Y-15383385D01*
X4618803Y-15383394D01*
X4584200Y-15557357D01*
X1200000Y-15557357D01*
X1200000Y-14011304D01*
X12699500Y-14011304D01*
X12699500Y-14188695D01*
X12734103Y-14362658D01*
X12734106Y-14362667D01*
X12801983Y-14526540D01*
X12801990Y-14526553D01*
X12900535Y-14674034D01*
X12900538Y-14674038D01*
X13025961Y-14799461D01*
X13025965Y-14799464D01*
X13173446Y-14898009D01*
X13173459Y-14898016D01*
X13290725Y-14946588D01*
X13337334Y-14965894D01*
X13337336Y-14965894D01*
X13337341Y-14965896D01*
X13511304Y-15000499D01*
X13511307Y-15000500D01*
X13511309Y-15000500D01*
X13688693Y-15000500D01*
X13688694Y-15000499D01*
X13750627Y-14988180D01*
X13862658Y-14965896D01*
X13862661Y-14965894D01*
X13862666Y-14965894D01*
X14026547Y-14898013D01*
X14174035Y-14799464D01*
X14299464Y-14674035D01*
X14398013Y-14526547D01*
X14465894Y-14362666D01*
X14473555Y-14324155D01*
X14500499Y-14188695D01*
X14500500Y-14188693D01*
X14500500Y-14011306D01*
X14500499Y-14011304D01*
X14465896Y-13837341D01*
X14465893Y-13837332D01*
X14398016Y-13673459D01*
X14398009Y-13673446D01*
X14299464Y-13525965D01*
X14299461Y-13525961D01*
X14174038Y-13400538D01*
X14174034Y-13400535D01*
X14026553Y-13301990D01*
X14026540Y-13301983D01*
X13862667Y-13234106D01*
X13862658Y-13234103D01*
X13688694Y-13199500D01*
X13688691Y-13199500D01*
X13511309Y-13199500D01*
X13511306Y-13199500D01*
X13337341Y-13234103D01*
X13337332Y-13234106D01*
X13173459Y-13301983D01*
X13173446Y-13301990D01*
X13025965Y-13400535D01*
X13025961Y-13400538D01*
X12900538Y-13525961D01*
X12900535Y-13525965D01*
X12801990Y-13673446D01*
X12801983Y-13673459D01*
X12734106Y-13837332D01*
X12734103Y-13837341D01*
X12699500Y-14011304D01*
X1200000Y-14011304D01*
X1200000Y-12786304D01*
X2774500Y-12786304D01*
X2774500Y-12963695D01*
X2809103Y-13137658D01*
X2809106Y-13137667D01*
X2876983Y-13301540D01*
X2876990Y-13301553D01*
X2975535Y-13449034D01*
X2975538Y-13449038D01*
X3100961Y-13574461D01*
X3100965Y-13574464D01*
X3248446Y-13673009D01*
X3248459Y-13673016D01*
X3327082Y-13705582D01*
X3412334Y-13740894D01*
X3412336Y-13740894D01*
X3412341Y-13740896D01*
X3586304Y-13775499D01*
X3586307Y-13775500D01*
X3586309Y-13775500D01*
X3763693Y-13775500D01*
X3763694Y-13775499D01*
X3821682Y-13763964D01*
X3937658Y-13740896D01*
X3937661Y-13740894D01*
X3937666Y-13740894D01*
X4101547Y-13673013D01*
X4249035Y-13574464D01*
X4374464Y-13449035D01*
X4473013Y-13301547D01*
X4540894Y-13137666D01*
X4575500Y-12963691D01*
X4575500Y-12836304D01*
X7624500Y-12836304D01*
X7624500Y-13013695D01*
X7659103Y-13187658D01*
X7659106Y-13187667D01*
X7726983Y-13351540D01*
X7726990Y-13351553D01*
X7825535Y-13499034D01*
X7825538Y-13499038D01*
X7950961Y-13624461D01*
X7950965Y-13624464D01*
X8098446Y-13723009D01*
X8098459Y-13723016D01*
X8221363Y-13773923D01*
X8262334Y-13790894D01*
X8262336Y-13790894D01*
X8262341Y-13790896D01*
X8436304Y-13825499D01*
X8436307Y-13825500D01*
X8436309Y-13825500D01*
X8613693Y-13825500D01*
X8613694Y-13825499D01*
X8671682Y-13813964D01*
X8787658Y-13790896D01*
X8787661Y-13790894D01*
X8787666Y-13790894D01*
X8951547Y-13723013D01*
X9099035Y-13624464D01*
X9224464Y-13499035D01*
X9323013Y-13351547D01*
X9390894Y-13187666D01*
X9400840Y-13137667D01*
X9425499Y-13013695D01*
X9425500Y-13013693D01*
X9425500Y-12836306D01*
X9425499Y-12836304D01*
X9390896Y-12662341D01*
X9390893Y-12662332D01*
X9323016Y-12498459D01*
X9323009Y-12498446D01*
X9224464Y-12350965D01*
X9224461Y-12350961D01*
X9099038Y-12225538D01*
X9099034Y-12225535D01*
X8951553Y-12126990D01*
X8951540Y-12126983D01*
X8787667Y-12059106D01*
X8787658Y-12059103D01*
X8613694Y-12024500D01*
X8613691Y-12024500D01*
X8436309Y-12024500D01*
X8436306Y-12024500D01*
X8262341Y-12059103D01*
X8262332Y-12059106D01*
X8098459Y-12126983D01*
X8098446Y-12126990D01*
X7950965Y-12225535D01*
X7950961Y-12225538D01*
X7825538Y-12350961D01*
X7825535Y-12350965D01*
X7726990Y-12498446D01*
X7726983Y-12498459D01*
X7659106Y-12662332D01*
X7659103Y-12662341D01*
X7624500Y-12836304D01*
X4575500Y-12836304D01*
X4575500Y-12786309D01*
X4575500Y-12786306D01*
X4575499Y-12786304D01*
X4540896Y-12612341D01*
X4540893Y-12612332D01*
X4473016Y-12448459D01*
X4473009Y-12448446D01*
X4374464Y-12300965D01*
X4374461Y-12300961D01*
X4249038Y-12175538D01*
X4249034Y-12175535D01*
X4101553Y-12076990D01*
X4101540Y-12076983D01*
X3937667Y-12009106D01*
X3937658Y-12009103D01*
X3763694Y-11974500D01*
X3763691Y-11974500D01*
X3586309Y-11974500D01*
X3586306Y-11974500D01*
X3412341Y-12009103D01*
X3412332Y-12009106D01*
X3248459Y-12076983D01*
X3248446Y-12076990D01*
X3100965Y-12175535D01*
X3100961Y-12175538D01*
X2975538Y-12300961D01*
X2975535Y-12300965D01*
X2876990Y-12448446D01*
X2876983Y-12448459D01*
X2809106Y-12612332D01*
X2809103Y-12612341D01*
X2774500Y-12786304D01*
X1200000Y-12786304D01*
X1200000Y-7111304D01*
X2699500Y-7111304D01*
X2699500Y-7288695D01*
X2734103Y-7462658D01*
X2734106Y-7462667D01*
X2801983Y-7626540D01*
X2801990Y-7626553D01*
X2900535Y-7774034D01*
X2900538Y-7774038D01*
X3025961Y-7899461D01*
X3025965Y-7899464D01*
X3173446Y-7998009D01*
X3173459Y-7998016D01*
X3207305Y-8012035D01*
X3337334Y-8065894D01*
X3337336Y-8065894D01*
X3337341Y-8065896D01*
X3511304Y-8100499D01*
X3511307Y-8100500D01*
X3511309Y-8100500D01*
X3688693Y-8100500D01*
X3688694Y-8100499D01*
X3777750Y-8082785D01*
X3862658Y-8065896D01*
X3862661Y-8065894D01*
X3862666Y-8065894D01*
X4026547Y-7998013D01*
X4174035Y-7899464D01*
X4299464Y-7774035D01*
X4398013Y-7626547D01*
X4465894Y-7462666D01*
X4500500Y-7288691D01*
X4500500Y-7111309D01*
X4500500Y-7111306D01*
X4500499Y-7111304D01*
X4465896Y-6937341D01*
X4465893Y-6937332D01*
X4398016Y-6773459D01*
X4398009Y-6773446D01*
X4299464Y-6625965D01*
X4299461Y-6625961D01*
X4174038Y-6500538D01*
X4174034Y-6500535D01*
X4026553Y-6401990D01*
X4026540Y-6401983D01*
X3862667Y-6334106D01*
X3862658Y-6334103D01*
X3688694Y-6299500D01*
X3688691Y-6299500D01*
X3511309Y-6299500D01*
X3511306Y-6299500D01*
X3337341Y-6334103D01*
X3337332Y-6334106D01*
X3173459Y-6401983D01*
X3173446Y-6401990D01*
X3025965Y-6500535D01*
X3025961Y-6500538D01*
X2900538Y-6625961D01*
X2900535Y-6625965D01*
X2801990Y-6773446D01*
X2801983Y-6773459D01*
X2734106Y-6937332D01*
X2734103Y-6937341D01*
X2699500Y-7111304D01*
X1200000Y-7111304D01*
X1200000Y-4207752D01*
X4753400Y-4207752D01*
X4753400Y-4385143D01*
X4788003Y-4559106D01*
X4788006Y-4559115D01*
X4855883Y-4722988D01*
X4855890Y-4723001D01*
X4954435Y-4870482D01*
X4954438Y-4870486D01*
X5079861Y-4995909D01*
X5079865Y-4995912D01*
X5227346Y-5094457D01*
X5227359Y-5094464D01*
X5350263Y-5145371D01*
X5391234Y-5162342D01*
X5391236Y-5162342D01*
X5391241Y-5162344D01*
X5565204Y-5196947D01*
X5565207Y-5196948D01*
X5565209Y-5196948D01*
X5742593Y-5196948D01*
X5742594Y-5196947D01*
X5800582Y-5185412D01*
X5916558Y-5162344D01*
X5916561Y-5162342D01*
X5916566Y-5162342D01*
X6080447Y-5094461D01*
X6227935Y-4995912D01*
X6353364Y-4870483D01*
X6451913Y-4722995D01*
X6519794Y-4559114D01*
X6554400Y-4385139D01*
X6554400Y-4207757D01*
X6554400Y-4207754D01*
X6554399Y-4207752D01*
X6519796Y-4033789D01*
X6519793Y-4033780D01*
X6451916Y-3869907D01*
X6451909Y-3869894D01*
X6353364Y-3722413D01*
X6353361Y-3722409D01*
X6227938Y-3596986D01*
X6227934Y-3596983D01*
X6080453Y-3498438D01*
X6080440Y-3498431D01*
X5916567Y-3430554D01*
X5916558Y-3430551D01*
X5742594Y-3395948D01*
X5742591Y-3395948D01*
X5565209Y-3395948D01*
X5565206Y-3395948D01*
X5391241Y-3430551D01*
X5391232Y-3430554D01*
X5227359Y-3498431D01*
X5227346Y-3498438D01*
X5079865Y-3596983D01*
X5079861Y-3596986D01*
X4954438Y-3722409D01*
X4954435Y-3722413D01*
X4855890Y-3869894D01*
X4855883Y-3869907D01*
X4788006Y-4033780D01*
X4788003Y-4033789D01*
X4753400Y-4207752D01*
X1200000Y-4207752D01*
X1200000Y-411304D01*
X6299500Y-411304D01*
X6299500Y-588695D01*
X6334103Y-762658D01*
X6334106Y-762667D01*
X6401983Y-926540D01*
X6401990Y-926553D01*
X6500535Y-1074034D01*
X6500538Y-1074038D01*
X6625961Y-1199461D01*
X6625965Y-1199464D01*
X6773446Y-1298009D01*
X6773459Y-1298016D01*
X6893409Y-1347700D01*
X6937334Y-1365894D01*
X6937336Y-1365894D01*
X6937341Y-1365896D01*
X7111304Y-1400499D01*
X7111307Y-1400500D01*
X7247440Y-1400500D01*
X7314479Y-1420185D01*
X7360234Y-1472989D01*
X7369159Y-1526560D01*
X7371237Y-1526560D01*
X7371237Y-1710038D01*
X7405840Y-1884001D01*
X7405843Y-1884010D01*
X7473720Y-2047883D01*
X7473727Y-2047896D01*
X7572272Y-2195377D01*
X7572275Y-2195381D01*
X7584548Y-2207654D01*
X7618033Y-2268977D01*
X7613049Y-2338669D01*
X7599969Y-2364225D01*
X7526993Y-2473441D01*
X7526983Y-2473459D01*
X7459106Y-2637332D01*
X7459103Y-2637341D01*
X7424500Y-2811304D01*
X7424500Y-2988695D01*
X7459103Y-3162658D01*
X7459106Y-3162667D01*
X7526983Y-3326540D01*
X7526990Y-3326553D01*
X7625535Y-3474034D01*
X7625538Y-3474038D01*
X7750961Y-3599461D01*
X7750965Y-3599464D01*
X7898446Y-3698009D01*
X7898459Y-3698016D01*
X7969902Y-3727608D01*
X8062334Y-3765894D01*
X8074689Y-3768351D01*
X8136600Y-3800735D01*
X8171176Y-3861449D01*
X8174500Y-3889969D01*
X8174500Y-6500638D01*
X8154815Y-6567677D01*
X8138181Y-6588319D01*
X8100538Y-6625961D01*
X8100535Y-6625965D01*
X8001990Y-6773446D01*
X8001983Y-6773459D01*
X7934106Y-6937332D01*
X7934103Y-6937341D01*
X7899500Y-7111304D01*
X7899500Y-7288695D01*
X7934103Y-7462658D01*
X7934106Y-7462667D01*
X8001983Y-7626540D01*
X8001990Y-7626553D01*
X8100535Y-7774034D01*
X8100538Y-7774038D01*
X8225961Y-7899461D01*
X8225965Y-7899464D01*
X8373446Y-7998009D01*
X8373459Y-7998016D01*
X8407305Y-8012035D01*
X8537334Y-8065894D01*
X8537336Y-8065894D01*
X8537341Y-8065896D01*
X8711304Y-8100499D01*
X8711307Y-8100500D01*
X8711309Y-8100500D01*
X8888693Y-8100500D01*
X8888694Y-8100499D01*
X8977750Y-8082785D01*
X9062658Y-8065896D01*
X9062661Y-8065894D01*
X9062666Y-8065894D01*
X9226547Y-7998013D01*
X9279769Y-7962450D01*
X9346445Y-7941573D01*
X9413826Y-7960057D01*
X9460516Y-8012035D01*
X9471693Y-8081005D01*
X9451762Y-8134444D01*
X9416204Y-8187659D01*
X9416197Y-8187672D01*
X9348320Y-8351545D01*
X9348317Y-8351554D01*
X9313714Y-8525517D01*
X9313714Y-8702908D01*
X9348317Y-8876871D01*
X9348320Y-8876880D01*
X9416197Y-9040753D01*
X9416204Y-9040766D01*
X9514749Y-9188247D01*
X9514752Y-9188251D01*
X9640175Y-9313674D01*
X9640179Y-9313677D01*
X9787660Y-9412222D01*
X9787673Y-9412229D01*
X9910577Y-9463136D01*
X9951548Y-9480107D01*
X9951550Y-9480107D01*
X9951555Y-9480109D01*
X10125518Y-9514712D01*
X10125521Y-9514713D01*
X10125523Y-9514713D01*
X10302907Y-9514713D01*
X10302908Y-9514712D01*
X10360896Y-9503177D01*
X10476872Y-9480109D01*
X10476875Y-9480107D01*
X10476880Y-9480107D01*
X10640761Y-9412226D01*
X10788249Y-9313677D01*
X10913678Y-9188248D01*
X11012227Y-9040760D01*
X11080108Y-8876879D01*
X11114714Y-8702904D01*
X11114714Y-8525522D01*
X11114714Y-8525519D01*
X11114713Y-8525517D01*
X11080110Y-8351554D01*
X11080107Y-8351545D01*
X11012230Y-8187672D01*
X11012223Y-8187659D01*
X10913678Y-8040178D01*
X10913675Y-8040174D01*
X10876033Y-8002532D01*
X10842548Y-7941209D01*
X10839714Y-7914851D01*
X10839714Y-3727607D01*
X10839713Y-3727603D01*
X10833827Y-3698013D01*
X10815677Y-3606762D01*
X10780060Y-3520775D01*
X10768526Y-3492929D01*
X10751470Y-3467404D01*
X10700072Y-3390481D01*
X10700070Y-3390478D01*
X10609851Y-3300259D01*
X10609820Y-3300230D01*
X10236819Y-2927229D01*
X10203334Y-2865906D01*
X10200500Y-2839548D01*
X10200500Y-2786306D01*
X10200499Y-2786304D01*
X10165896Y-2612341D01*
X10165893Y-2612332D01*
X10109199Y-2475459D01*
X10101730Y-2405990D01*
X10133005Y-2343511D01*
X10154866Y-2324906D01*
X10266583Y-2250260D01*
X10392012Y-2124831D01*
X10490561Y-1977343D01*
X10558442Y-1813462D01*
X10560244Y-1804407D01*
X10593047Y-1639491D01*
X10593048Y-1639489D01*
X10593048Y-1575988D01*
X10612733Y-1508949D01*
X10613905Y-1507159D01*
X10668524Y-1425417D01*
X10686381Y-1382306D01*
X10699204Y-1351350D01*
X10715674Y-1311587D01*
X10715676Y-1311583D01*
X10739713Y-1190737D01*
X10739713Y3814853D01*
X10759398Y3881892D01*
X10776033Y3902535D01*
X10813674Y3940176D01*
X10813677Y3940179D01*
X10912226Y4087667D01*
X10980107Y4251548D01*
X10984465Y4273453D01*
X11014712Y4425519D01*
X11014713Y4425521D01*
X11014713Y4602908D01*
X11014712Y4602910D01*
X10980109Y4776873D01*
X10980106Y4776882D01*
X10912229Y4940755D01*
X10912222Y4940768D01*
X10813677Y5088249D01*
X10813674Y5088253D01*
X10688251Y5213676D01*
X10688247Y5213679D01*
X10540766Y5312224D01*
X10540753Y5312231D01*
X10376880Y5380108D01*
X10376871Y5380111D01*
X10202907Y5414714D01*
X10202904Y5414714D01*
X10025522Y5414714D01*
X10025519Y5414714D01*
X9851554Y5380111D01*
X9851545Y5380108D01*
X9687672Y5312231D01*
X9687659Y5312224D01*
X9540178Y5213679D01*
X9540174Y5213676D01*
X9414751Y5088253D01*
X9414748Y5088249D01*
X9316203Y4940768D01*
X9316196Y4940755D01*
X9248319Y4776882D01*
X9248316Y4776873D01*
X9213713Y4602910D01*
X9213713Y4425519D01*
X9248316Y4251556D01*
X9248319Y4251547D01*
X9316196Y4087674D01*
X9316203Y4087661D01*
X9351761Y4034445D01*
X9372639Y3967767D01*
X9354154Y3900387D01*
X9302175Y3853697D01*
X9233205Y3842521D01*
X9179768Y3862452D01*
X9126552Y3898010D01*
X9126540Y3898017D01*
X8962667Y3965894D01*
X8962658Y3965897D01*
X8788694Y4000500D01*
X8788691Y4000500D01*
X8611309Y4000500D01*
X8611306Y4000500D01*
X8437341Y3965897D01*
X8437332Y3965894D01*
X8273459Y3898017D01*
X8273446Y3898010D01*
X8125965Y3799465D01*
X8125961Y3799462D01*
X8000538Y3674039D01*
X8000535Y3674035D01*
X7901990Y3526554D01*
X7901983Y3526541D01*
X7834106Y3362668D01*
X7834103Y3362659D01*
X7799500Y3188696D01*
X7799500Y3128470D01*
X7794172Y3110326D01*
X7793835Y3091419D01*
X7780334Y3063201D01*
X7779815Y3061431D01*
X7778603Y3059581D01*
X7764448Y3038396D01*
X7764446Y3038393D01*
X7717427Y2968027D01*
X7717422Y2968018D01*
X7687457Y2895673D01*
X7687457Y2895672D01*
X7670275Y2854192D01*
X7670272Y2854182D01*
X7646237Y2733348D01*
X7646237Y475436D01*
X7626552Y408397D01*
X7573748Y362642D01*
X7504590Y352698D01*
X7474790Y360873D01*
X7462670Y365893D01*
X7462658Y365897D01*
X7288694Y400500D01*
X7288691Y400500D01*
X7111309Y400500D01*
X7111306Y400500D01*
X6937341Y365897D01*
X6937332Y365894D01*
X6773459Y298017D01*
X6773446Y298010D01*
X6625965Y199465D01*
X6625961Y199462D01*
X6500538Y74039D01*
X6500535Y74035D01*
X6401990Y-73446D01*
X6401983Y-73459D01*
X6334106Y-237332D01*
X6334103Y-237341D01*
X6299500Y-411304D01*
X1200000Y-411304D01*
X1200000Y16254472D01*
X6249500Y16254472D01*
X6249500Y15945529D01*
X6284086Y15638563D01*
X6284089Y15638545D01*
X6352831Y15337365D01*
X6352835Y15337353D01*
X6454862Y15045778D01*
X6454868Y15045764D01*
X6588903Y14767438D01*
X6588905Y14767435D01*
X6753265Y14505857D01*
X6945880Y14264326D01*
X7164326Y14045880D01*
X7405857Y13853265D01*
X7667435Y13688905D01*
X7945771Y13554865D01*
X7945777Y13554863D01*
X8237352Y13452836D01*
X8237364Y13452832D01*
X8538548Y13384089D01*
X8538554Y13384089D01*
X8538562Y13384087D01*
X8743206Y13361030D01*
X8845529Y13349501D01*
X8845532Y13349500D01*
X8845535Y13349500D01*
X9154468Y13349500D01*
X9154469Y13349501D01*
X9311356Y13367178D01*
X9461437Y13384087D01*
X9461442Y13384088D01*
X9461452Y13384089D01*
X9762636Y13452832D01*
X10054229Y13554865D01*
X10332565Y13688905D01*
X10594143Y13853265D01*
X10835674Y14045880D01*
X11054120Y14264326D01*
X11246735Y14505857D01*
X11411095Y14767435D01*
X11545135Y15045771D01*
X11647168Y15337364D01*
X11715911Y15638548D01*
X11750500Y15945535D01*
X11750500Y16254465D01*
X11738970Y16356794D01*
X11715913Y16561438D01*
X11715910Y16561456D01*
X11647168Y16862636D01*
X11647164Y16862648D01*
X11545137Y17154223D01*
X11545135Y17154229D01*
X11411095Y17432565D01*
X11246735Y17694143D01*
X11054120Y17935674D01*
X10835674Y18154120D01*
X10792323Y18188691D01*
X10763961Y18211309D01*
X10594143Y18346735D01*
X10332565Y18511095D01*
X10332562Y18511097D01*
X10054236Y18645132D01*
X10054222Y18645138D01*
X9762647Y18747165D01*
X9762635Y18747169D01*
X9461455Y18815911D01*
X9461437Y18815914D01*
X9154471Y18850500D01*
X9154465Y18850500D01*
X8845535Y18850500D01*
X8845528Y18850500D01*
X8538562Y18815914D01*
X8538544Y18815911D01*
X8237364Y18747169D01*
X8237352Y18747165D01*
X7945777Y18645138D01*
X7945763Y18645132D01*
X7667437Y18511097D01*
X7405858Y18346736D01*
X7164326Y18154121D01*
X6945879Y17935674D01*
X6753264Y17694142D01*
X6588903Y17432563D01*
X6454868Y17154237D01*
X6454862Y17154223D01*
X6352835Y16862648D01*
X6352831Y16862636D01*
X6284089Y16561456D01*
X6284086Y16561438D01*
X6249500Y16254472D01*
X1200000Y16254472D01*
X1200000Y26500000D01*
X-39843205Y26500000D01*
X-39910244Y26519685D01*
X-39955999Y26572489D01*
X-39965943Y26641647D01*
X-39943524Y26696884D01*
X-39875875Y26789994D01*
X-39786515Y26965374D01*
X-39725690Y27152573D01*
X-39720194Y27187273D01*
X-39694899Y27346977D01*
X-39694899Y27543822D01*
X-39725690Y27738226D01*
X-39786517Y27925429D01*
X-39875876Y28100805D01*
X-39897382Y28130405D01*
X-39991571Y28260045D01*
X-40130753Y28399227D01*
X-40289994Y28514923D01*
X-40327645Y28534107D01*
X-40465370Y28604282D01*
X-40652573Y28665109D01*
X-40846977Y28695899D01*
X-40846982Y28695899D01*
X-41043816Y28695899D01*
X-41043821Y28695899D01*
X-41238226Y28665109D01*
X-41425429Y28604282D01*
X-41600805Y28514923D01*
X-41654425Y28475965D01*
X-41760045Y28399227D01*
X-41760047Y28399225D01*
X-41760048Y28399225D01*
X-41899225Y28260048D01*
X-41899225Y28260047D01*
X-41899227Y28260045D01*
X-41943106Y28199651D01*
X-42014923Y28100805D01*
X-42104282Y27925429D01*
X-42165109Y27738226D01*
X-42195899Y27543822D01*
X-42195899Y27346977D01*
X-42165109Y27152573D01*
X-42104282Y26965370D01*
X-42014923Y26789994D01*
X-41947275Y26696885D01*
X-41923795Y26631080D01*
X-41939620Y26563026D01*
X-41989725Y26514331D01*
X-42047593Y26500000D01*
X-43694312Y26500000D01*
X-43761351Y26519685D01*
X-43807106Y26572489D01*
X-43817050Y26641647D01*
X-43794630Y26696886D01*
X-43788587Y26705203D01*
X-43705476Y26819595D01*
X-43616116Y26994975D01*
X-43555291Y27182174D01*
X-43545344Y27244975D01*
X-43524500Y27376578D01*
X-43524500Y27573423D01*
X-43555291Y27767827D01*
X-43616118Y27955030D01*
X-43705477Y28130406D01*
X-43715149Y28143718D01*
X-43821172Y28289646D01*
X-43960354Y28428828D01*
X-44119595Y28544524D01*
X-44294971Y28633883D01*
X-44482174Y28694710D01*
X-44676578Y28725500D01*
X-44676583Y28725500D01*
X-44873417Y28725500D01*
X-44873422Y28725500D01*
X-45067827Y28694710D01*
X-45255030Y28633883D01*
X-45430406Y28544524D01*
X-45492375Y28499500D01*
X-45589646Y28428828D01*
X-45589648Y28428826D01*
X-45589649Y28428826D01*
X-45728829Y28289646D01*
X-45774709Y28226498D01*
X-45830040Y28183833D01*
X-45899653Y28177855D01*
X-45961448Y28210462D01*
X-45985511Y28243090D01*
X-45994151Y28260047D01*
X-46055476Y28380405D01*
X-46171172Y28539646D01*
X-46310354Y28678828D01*
X-46459697Y28787333D01*
X-46469597Y28794526D01*
X-46557895Y28839515D01*
X-46608692Y28887489D01*
X-46625487Y28955310D01*
X-46602950Y29021445D01*
X-46557895Y29060485D01*
X-46469597Y29105475D01*
X-46469598Y29105475D01*
X-46469595Y29105476D01*
X-46310354Y29221172D01*
X-46171172Y29360354D01*
X-46055476Y29519595D01*
X-45966116Y29694975D01*
X-45905291Y29882174D01*
X-45874500Y30076578D01*
X-45874500Y30188696D01*
X3899500Y30188696D01*
X3899500Y30011305D01*
X3934103Y29837342D01*
X3934106Y29837333D01*
X4001983Y29673460D01*
X4001990Y29673447D01*
X4100535Y29525966D01*
X4100538Y29525962D01*
X4225961Y29400539D01*
X4225965Y29400536D01*
X4373446Y29301991D01*
X4373459Y29301984D01*
X4496363Y29251077D01*
X4537334Y29234106D01*
X4537336Y29234106D01*
X4537341Y29234104D01*
X4711304Y29199501D01*
X4711307Y29199500D01*
X4711309Y29199500D01*
X4888693Y29199500D01*
X4888694Y29199501D01*
X4946682Y29211036D01*
X5062658Y29234104D01*
X5062661Y29234106D01*
X5062666Y29234106D01*
X5226547Y29301987D01*
X5374035Y29400536D01*
X5499464Y29525965D01*
X5598013Y29673453D01*
X5665894Y29837334D01*
X5674814Y29882174D01*
X5700499Y30011305D01*
X5700500Y30011307D01*
X5700500Y30188694D01*
X5700499Y30188696D01*
X5665896Y30362659D01*
X5665893Y30362668D01*
X5598016Y30526541D01*
X5598009Y30526554D01*
X5499464Y30674035D01*
X5499461Y30674039D01*
X5374038Y30799462D01*
X5374034Y30799465D01*
X5226553Y30898010D01*
X5226540Y30898017D01*
X5062667Y30965894D01*
X5062658Y30965897D01*
X4888694Y31000500D01*
X4888691Y31000500D01*
X4711309Y31000500D01*
X4711306Y31000500D01*
X4537341Y30965897D01*
X4537332Y30965894D01*
X4373459Y30898017D01*
X4373446Y30898010D01*
X4225965Y30799465D01*
X4225961Y30799462D01*
X4100538Y30674039D01*
X4100535Y30674035D01*
X4001990Y30526554D01*
X4001983Y30526541D01*
X3934106Y30362668D01*
X3934103Y30362659D01*
X3899500Y30188696D01*
X-45874500Y30188696D01*
X-45874500Y30273423D01*
X-45905291Y30467827D01*
X-45963277Y30646286D01*
X-45966116Y30655025D01*
X-45966118Y30655028D01*
X-45966118Y30655030D01*
X-46039711Y30799464D01*
X-46055476Y30830405D01*
X-46171172Y30989646D01*
X-46310354Y31128828D01*
X-46469595Y31244524D01*
X-46644971Y31333883D01*
X-46832174Y31394710D01*
X-47026578Y31425500D01*
X-47026583Y31425500D01*
X-47223417Y31425500D01*
X-47223422Y31425500D01*
X-47417827Y31394710D01*
X-47605030Y31333883D01*
X-47780406Y31244524D01*
X-47840363Y31200962D01*
X-47939646Y31128828D01*
X-47939648Y31128826D01*
X-47939649Y31128826D01*
X-48078826Y30989649D01*
X-48078826Y30989648D01*
X-48078828Y30989646D01*
X-48110145Y30946542D01*
X-48194524Y30830406D01*
X-48283883Y30655030D01*
X-48344710Y30467827D01*
X-48375500Y30273423D01*
X-48375500Y30076578D01*
X-48344710Y29882174D01*
X-48283883Y29694971D01*
X-48197770Y29525966D01*
X-48194524Y29519595D01*
X-48078828Y29360354D01*
X-47939646Y29221172D01*
X-47780405Y29105476D01*
X-47716898Y29073118D01*
X-47692105Y29060485D01*
X-47641309Y29012510D01*
X-47624514Y28944689D01*
X-47647051Y28878555D01*
X-47692105Y28839515D01*
X-47780406Y28794524D01*
X-47790303Y28787333D01*
X-47939646Y28678828D01*
X-47939648Y28678826D01*
X-47939649Y28678826D01*
X-48078826Y28539649D01*
X-48078826Y28539648D01*
X-48078828Y28539646D01*
X-48096790Y28514923D01*
X-48194524Y28380406D01*
X-48283883Y28205030D01*
X-48344710Y28017827D01*
X-48375500Y27823423D01*
X-48375500Y27626578D01*
X-48344710Y27432174D01*
X-48283883Y27244971D01*
X-48194524Y27069595D01*
X-48078828Y26910354D01*
X-47939646Y26771172D01*
X-47875157Y26724318D01*
X-47832492Y26668987D01*
X-47826513Y26599374D01*
X-47859119Y26537579D01*
X-47919958Y26503222D01*
X-47948043Y26500000D01*
X-52464048Y26500000D01*
X-52531087Y26519685D01*
X-52551729Y26536319D01*
X-54028113Y28012703D01*
X-54061598Y28074026D01*
X-54056614Y28143718D01*
X-54014742Y28199651D01*
X-53987895Y28214940D01*
X-53898453Y28251987D01*
X-53750965Y28350536D01*
X-53625536Y28475965D01*
X-53526987Y28623453D01*
X-53459106Y28787334D01*
X-53457675Y28794524D01*
X-53424501Y28961305D01*
X-53424500Y28961307D01*
X-53424500Y29138694D01*
X-53424501Y29138696D01*
X-53459104Y29312659D01*
X-53459107Y29312668D01*
X-53478858Y29360352D01*
X-53526987Y29476547D01*
X-53526989Y29476549D01*
X-53526989Y29476551D01*
X-53603602Y29591210D01*
X-53624480Y29657888D01*
X-53624500Y29660101D01*
X-53624500Y30273423D01*
X-52375500Y30273423D01*
X-52375500Y30076578D01*
X-52344710Y29882174D01*
X-52283883Y29694971D01*
X-52197770Y29525966D01*
X-52194524Y29519595D01*
X-52078828Y29360354D01*
X-51939646Y29221172D01*
X-51780405Y29105476D01*
X-51697545Y29063257D01*
X-51605030Y29016118D01*
X-51605028Y29016118D01*
X-51605025Y29016116D01*
X-51504683Y28983513D01*
X-51417827Y28955291D01*
X-51223422Y28924500D01*
X-51223417Y28924500D01*
X-51026578Y28924500D01*
X-50832174Y28955291D01*
X-50813653Y28961309D01*
X-50644975Y29016116D01*
X-50469595Y29105476D01*
X-50310354Y29221172D01*
X-50171172Y29360354D01*
X-50055476Y29519595D01*
X-49966116Y29694975D01*
X-49905291Y29882174D01*
X-49874500Y30076578D01*
X-49874500Y30273423D01*
X-49905291Y30467827D01*
X-49963277Y30646286D01*
X-49966116Y30655025D01*
X-49966118Y30655028D01*
X-49966118Y30655030D01*
X-50039711Y30799464D01*
X-50055476Y30830405D01*
X-50171172Y30989646D01*
X-50310354Y31128828D01*
X-50469595Y31244524D01*
X-50644971Y31333883D01*
X-50832174Y31394710D01*
X-51026578Y31425500D01*
X-51026583Y31425500D01*
X-51223417Y31425500D01*
X-51223422Y31425500D01*
X-51417827Y31394710D01*
X-51605030Y31333883D01*
X-51780406Y31244524D01*
X-51840363Y31200962D01*
X-51939646Y31128828D01*
X-51939648Y31128826D01*
X-51939649Y31128826D01*
X-52078826Y30989649D01*
X-52078826Y30989648D01*
X-52078828Y30989646D01*
X-52110145Y30946542D01*
X-52194524Y30830406D01*
X-52283883Y30655030D01*
X-52344710Y30467827D01*
X-52375500Y30273423D01*
X-53624500Y30273423D01*
X-53624500Y30568994D01*
X-53624501Y30568998D01*
X-53650202Y30698209D01*
X-53651420Y30704330D01*
X-53690443Y30798538D01*
X-53695773Y30811405D01*
X-53704225Y30831811D01*
X-53732749Y30874500D01*
X-53780885Y30946541D01*
X-53823993Y30989649D01*
X-53878458Y31044114D01*
X-54095653Y31261309D01*
X-54313681Y31479338D01*
X-54347166Y31540661D01*
X-54350000Y31567019D01*
X-54350000Y33815788D01*
X-54330315Y33882827D01*
X-54277511Y33928582D01*
X-54208353Y33938526D01*
X-54155031Y33915028D01*
X-54154100Y33916420D01*
X-54001554Y33814491D01*
X-54001541Y33814484D01*
X-53940409Y33789163D01*
X-53837666Y33746606D01*
X-53702410Y33719702D01*
X-53685655Y33710938D01*
X-53667177Y33706918D01*
X-53642143Y33688178D01*
X-53640502Y33687319D01*
X-53638956Y33685799D01*
X-53606614Y33653458D01*
X-53555147Y33601991D01*
X-53509041Y33555885D01*
X-53394318Y33479229D01*
X-53394314Y33479227D01*
X-53394311Y33479225D01*
X-53319634Y33448293D01*
X-53266829Y33426420D01*
X-53239909Y33421066D01*
X-53145137Y33402214D01*
X-53131494Y33399500D01*
X-53131493Y33399500D01*
X-52385100Y33399500D01*
X-52318061Y33379815D01*
X-52316212Y33378604D01*
X-52201547Y33301987D01*
X-52037666Y33234106D01*
X-52037664Y33234106D01*
X-52037659Y33234104D01*
X-51863696Y33199501D01*
X-51863693Y33199500D01*
X-51863691Y33199500D01*
X-51686307Y33199500D01*
X-51686306Y33199501D01*
X-51628318Y33211036D01*
X-51512342Y33234104D01*
X-51512339Y33234106D01*
X-51512334Y33234106D01*
X-51348453Y33301987D01*
X-51200965Y33400536D01*
X-51075536Y33525965D01*
X-50976987Y33673453D01*
X-50909106Y33837334D01*
X-50893651Y33915028D01*
X-50874501Y34011305D01*
X-50874500Y34011307D01*
X-50874500Y34188694D01*
X-50874501Y34188696D01*
X-50909104Y34362659D01*
X-50909107Y34362668D01*
X-50976984Y34526541D01*
X-50976991Y34526554D01*
X-51075536Y34674035D01*
X-51075539Y34674039D01*
X-51200962Y34799462D01*
X-51200966Y34799465D01*
X-51348447Y34898010D01*
X-51348460Y34898017D01*
X-51512333Y34965894D01*
X-51512342Y34965897D01*
X-51686306Y35000500D01*
X-51686309Y35000500D01*
X-51863691Y35000500D01*
X-51863694Y35000500D01*
X-52037659Y34965897D01*
X-52037668Y34965894D01*
X-52201548Y34898013D01*
X-52201550Y34898012D01*
X-52316209Y34821398D01*
X-52334256Y34815748D01*
X-52350165Y34805523D01*
X-52381125Y34801072D01*
X-52382886Y34800520D01*
X-52385100Y34800500D01*
X-52595325Y34800500D01*
X-52662364Y34820185D01*
X-52708119Y34872989D01*
X-52709886Y34877048D01*
X-52718569Y34898010D01*
X-52776987Y35039047D01*
X-52776989Y35039050D01*
X-52776991Y35039054D01*
X-52875536Y35186535D01*
X-52875539Y35186539D01*
X-52914264Y35225264D01*
X-52947749Y35286587D01*
X-52942765Y35356279D01*
X-52900893Y35412212D01*
X-52899544Y35413208D01*
X-52785354Y35496172D01*
X-52646172Y35635354D01*
X-52530476Y35794595D01*
X-52441116Y35969975D01*
X-52380291Y36157174D01*
X-52368526Y36231454D01*
X-52349500Y36351578D01*
X-52349500Y36548423D01*
X-52380291Y36742827D01*
X-52439522Y36925118D01*
X-52441116Y36930025D01*
X-52441118Y36930028D01*
X-52441118Y36930030D01*
X-52509635Y37064501D01*
X-52530476Y37105405D01*
X-52646172Y37264646D01*
X-52785354Y37403828D01*
X-52944595Y37519524D01*
X-52966916Y37530897D01*
X-53119971Y37608883D01*
X-53307172Y37669709D01*
X-53308490Y37670025D01*
X-53308939Y37670283D01*
X-53311808Y37671215D01*
X-53311613Y37671818D01*
X-53322640Y37678149D01*
X-53338595Y37681562D01*
X-53352316Y37695188D01*
X-53369083Y37704815D01*
X-53376595Y37719299D01*
X-53388171Y37730796D01*
X-53392347Y37749676D01*
X-53401248Y37766840D01*
X-53399737Y37783086D01*
X-53403260Y37799017D01*
X-53396566Y37817159D01*
X-53394774Y37836409D01*
X-53384481Y37849906D01*
X-53379071Y37864565D01*
X-53358057Y37884553D01*
X-53354201Y37889608D01*
X-53351372Y37891742D01*
X-53225965Y37975536D01*
X-53182202Y38019300D01*
X-53175294Y38024508D01*
X-53150375Y38033902D01*
X-53126999Y38046666D01*
X-53112328Y38048244D01*
X-53109914Y38049153D01*
X-53107892Y38048721D01*
X-53100639Y38049500D01*
X-51160452Y38049500D01*
X-51093413Y38029815D01*
X-51072771Y38013181D01*
X-47943833Y34884243D01*
X-47910348Y34822920D01*
X-47915332Y34753228D01*
X-47957204Y34697295D01*
X-48007319Y34674945D01*
X-48033496Y34669738D01*
X-48033502Y34669736D01*
X-48152548Y34620426D01*
X-48222018Y34612957D01*
X-48247452Y34620426D01*
X-48366499Y34669736D01*
X-48366511Y34669739D01*
X-48521155Y34700500D01*
X-48521158Y34700500D01*
X-48678842Y34700500D01*
X-48678845Y34700500D01*
X-48833490Y34669739D01*
X-48833502Y34669736D01*
X-48979173Y34609398D01*
X-48979186Y34609391D01*
X-49110289Y34521790D01*
X-49110293Y34521787D01*
X-49221787Y34410293D01*
X-49221790Y34410289D01*
X-49309391Y34279186D01*
X-49309398Y34279173D01*
X-49369736Y34133502D01*
X-49369739Y34133490D01*
X-49400500Y33978847D01*
X-49400500Y33821154D01*
X-49369739Y33666511D01*
X-49369736Y33666499D01*
X-49309398Y33520828D01*
X-49309391Y33520815D01*
X-49274696Y33468891D01*
X-49253818Y33402214D01*
X-49272302Y33334833D01*
X-49274696Y33331109D01*
X-49309391Y33279186D01*
X-49309398Y33279173D01*
X-49369736Y33133502D01*
X-49369739Y33133490D01*
X-49400500Y32978847D01*
X-49400500Y32821154D01*
X-49369739Y32666511D01*
X-49369736Y32666499D01*
X-49309398Y32520828D01*
X-49309391Y32520815D01*
X-49221790Y32389712D01*
X-49221787Y32389708D01*
X-49110293Y32278214D01*
X-49110289Y32278211D01*
X-48979186Y32190610D01*
X-48979173Y32190603D01*
X-48833502Y32130265D01*
X-48833497Y32130263D01*
X-48678847Y32099501D01*
X-48678844Y32099500D01*
X-48678842Y32099500D01*
X-48521156Y32099500D01*
X-48521155Y32099501D01*
X-48366503Y32130263D01*
X-48247452Y32179575D01*
X-48177983Y32187044D01*
X-48152548Y32179575D01*
X-48033502Y32130265D01*
X-48033497Y32130263D01*
X-47878847Y32099501D01*
X-47878844Y32099500D01*
X-47878842Y32099500D01*
X-47721156Y32099500D01*
X-47721155Y32099501D01*
X-47566503Y32130263D01*
X-47429420Y32187044D01*
X-47420828Y32190603D01*
X-47420828Y32190604D01*
X-47420821Y32190606D01*
X-47289711Y32278211D01*
X-47178211Y32389711D01*
X-47090606Y32520821D01*
X-47030263Y32666503D01*
X-46999500Y32821158D01*
X-46999500Y32978842D01*
X-46999500Y32978845D01*
X-46999501Y32978847D01*
X-47003517Y32999035D01*
X-47030263Y33133497D01*
X-47057602Y33199500D01*
X-47090604Y33279175D01*
X-47090606Y33279178D01*
X-47090606Y33279179D01*
X-47125306Y33331111D01*
X-47146184Y33397785D01*
X-47127700Y33465165D01*
X-47125324Y33468864D01*
X-47090606Y33520821D01*
X-47030263Y33666503D01*
X-47026122Y33687319D01*
X-47025056Y33692678D01*
X-46992671Y33754589D01*
X-46931956Y33789163D01*
X-46862186Y33785424D01*
X-46815758Y33756168D01*
X-45536819Y32477229D01*
X-45503334Y32415906D01*
X-45500500Y32389548D01*
X-45500500Y32336305D01*
X-45465897Y32162342D01*
X-45465894Y32162333D01*
X-45398017Y31998460D01*
X-45398010Y31998447D01*
X-45299465Y31850966D01*
X-45299462Y31850962D01*
X-45174039Y31725539D01*
X-45174035Y31725536D01*
X-45026554Y31626991D01*
X-45026541Y31626984D01*
X-44903637Y31576077D01*
X-44862666Y31559106D01*
X-44862664Y31559106D01*
X-44862659Y31559104D01*
X-44688696Y31524501D01*
X-44688693Y31524500D01*
X-44688691Y31524500D01*
X-44511307Y31524500D01*
X-44511306Y31524501D01*
X-44453318Y31536036D01*
X-44337342Y31559104D01*
X-44337339Y31559106D01*
X-44337334Y31559106D01*
X-44173453Y31626987D01*
X-44025965Y31725536D01*
X-43900536Y31850965D01*
X-43892029Y31863696D01*
X-11625500Y31863696D01*
X-11625500Y31686305D01*
X-11590897Y31512342D01*
X-11590894Y31512333D01*
X-11523017Y31348460D01*
X-11523010Y31348447D01*
X-11424465Y31200966D01*
X-11424462Y31200962D01*
X-11299039Y31075539D01*
X-11299035Y31075536D01*
X-11151554Y30976991D01*
X-11151541Y30976984D01*
X-11028637Y30926077D01*
X-10987666Y30909106D01*
X-10987664Y30909106D01*
X-10987659Y30909104D01*
X-10813696Y30874501D01*
X-10813693Y30874500D01*
X-10813691Y30874500D01*
X-10636307Y30874500D01*
X-10636306Y30874501D01*
X-10578318Y30886036D01*
X-10462342Y30909104D01*
X-10462339Y30909106D01*
X-10462334Y30909106D01*
X-10298453Y30976987D01*
X-10150965Y31075536D01*
X-10025536Y31200965D01*
X-9926987Y31348453D01*
X-9889608Y31438696D01*
X-7925500Y31438696D01*
X-7925500Y31261305D01*
X-7890897Y31087342D01*
X-7890894Y31087333D01*
X-7823017Y30923460D01*
X-7823010Y30923447D01*
X-7724465Y30775966D01*
X-7724462Y30775962D01*
X-7599039Y30650539D01*
X-7599035Y30650536D01*
X-7451554Y30551991D01*
X-7451541Y30551984D01*
X-7378227Y30521617D01*
X-7287666Y30484106D01*
X-7287664Y30484106D01*
X-7287659Y30484104D01*
X-7113696Y30449501D01*
X-7113693Y30449500D01*
X-7113691Y30449500D01*
X-6936307Y30449500D01*
X-6936306Y30449501D01*
X-6878318Y30461036D01*
X-6762342Y30484104D01*
X-6762339Y30484106D01*
X-6762334Y30484106D01*
X-6598453Y30551987D01*
X-6450965Y30650536D01*
X-6325536Y30775965D01*
X-6226987Y30923453D01*
X-6159106Y31087334D01*
X-6150852Y31128826D01*
X-6124501Y31261305D01*
X-6124500Y31261307D01*
X-6124500Y31438694D01*
X-6124501Y31438696D01*
X-3450500Y31438696D01*
X-3450500Y31261305D01*
X-3415897Y31087342D01*
X-3415894Y31087333D01*
X-3348017Y30923460D01*
X-3348010Y30923447D01*
X-3249465Y30775966D01*
X-3249462Y30775962D01*
X-3124039Y30650539D01*
X-3124035Y30650536D01*
X-2976554Y30551991D01*
X-2976541Y30551984D01*
X-2903227Y30521617D01*
X-2812666Y30484106D01*
X-2812664Y30484106D01*
X-2812659Y30484104D01*
X-2638696Y30449501D01*
X-2638693Y30449500D01*
X-2638691Y30449500D01*
X-2461307Y30449500D01*
X-2461306Y30449501D01*
X-2403318Y30461036D01*
X-2287342Y30484104D01*
X-2287339Y30484106D01*
X-2287334Y30484106D01*
X-2123453Y30551987D01*
X-1975965Y30650536D01*
X-1850536Y30775965D01*
X-1751987Y30923453D01*
X-1684106Y31087334D01*
X-1675852Y31128826D01*
X-1649501Y31261305D01*
X-1649500Y31261307D01*
X-1649500Y31438694D01*
X-1649501Y31438696D01*
X-1684104Y31612659D01*
X-1684107Y31612668D01*
X-1751984Y31776541D01*
X-1751991Y31776554D01*
X-1850536Y31924035D01*
X-1850539Y31924039D01*
X-1975962Y32049462D01*
X-1975966Y32049465D01*
X-2123447Y32148010D01*
X-2123460Y32148017D01*
X-2287333Y32215894D01*
X-2287342Y32215897D01*
X-2461306Y32250500D01*
X-2461309Y32250500D01*
X-2638691Y32250500D01*
X-2638694Y32250500D01*
X-2812659Y32215897D01*
X-2812668Y32215894D01*
X-2976541Y32148017D01*
X-2976554Y32148010D01*
X-3124035Y32049465D01*
X-3124039Y32049462D01*
X-3249462Y31924039D01*
X-3249465Y31924035D01*
X-3348010Y31776554D01*
X-3348017Y31776541D01*
X-3415894Y31612668D01*
X-3415897Y31612659D01*
X-3450500Y31438696D01*
X-6124501Y31438696D01*
X-6159104Y31612659D01*
X-6159107Y31612668D01*
X-6226984Y31776541D01*
X-6226991Y31776554D01*
X-6325536Y31924035D01*
X-6325539Y31924039D01*
X-6450962Y32049462D01*
X-6450966Y32049465D01*
X-6598447Y32148010D01*
X-6598460Y32148017D01*
X-6762333Y32215894D01*
X-6762342Y32215897D01*
X-6936306Y32250500D01*
X-6936309Y32250500D01*
X-7113691Y32250500D01*
X-7113694Y32250500D01*
X-7287659Y32215897D01*
X-7287668Y32215894D01*
X-7451541Y32148017D01*
X-7451554Y32148010D01*
X-7599035Y32049465D01*
X-7599039Y32049462D01*
X-7724462Y31924039D01*
X-7724465Y31924035D01*
X-7823010Y31776554D01*
X-7823017Y31776541D01*
X-7890894Y31612668D01*
X-7890897Y31612659D01*
X-7925500Y31438696D01*
X-9889608Y31438696D01*
X-9859106Y31512334D01*
X-9856685Y31524501D01*
X-9824501Y31686305D01*
X-9824500Y31686307D01*
X-9824500Y31863694D01*
X-9824501Y31863696D01*
X-9859104Y32037659D01*
X-9859107Y32037668D01*
X-9926984Y32201541D01*
X-9926991Y32201554D01*
X-10025536Y32349035D01*
X-10025539Y32349039D01*
X-10150962Y32474462D01*
X-10150966Y32474465D01*
X-10298447Y32573010D01*
X-10298460Y32573017D01*
X-10462333Y32640894D01*
X-10462342Y32640897D01*
X-10636306Y32675500D01*
X-10636309Y32675500D01*
X-10813691Y32675500D01*
X-10813694Y32675500D01*
X-10987659Y32640897D01*
X-10987668Y32640894D01*
X-11151541Y32573017D01*
X-11151554Y32573010D01*
X-11299035Y32474465D01*
X-11299039Y32474462D01*
X-11424462Y32349039D01*
X-11424465Y32349035D01*
X-11523010Y32201554D01*
X-11523017Y32201541D01*
X-11590894Y32037668D01*
X-11590897Y32037659D01*
X-11625500Y31863696D01*
X-43892029Y31863696D01*
X-43801987Y31998453D01*
X-43734106Y32162334D01*
X-43730676Y32179575D01*
X-43711036Y32278318D01*
X-43699500Y32336309D01*
X-43699500Y32513691D01*
X-43699500Y32513694D01*
X-43699501Y32513696D01*
X-43734104Y32687659D01*
X-43734107Y32687668D01*
X-43801984Y32851541D01*
X-43801991Y32851554D01*
X-43900536Y32999035D01*
X-43900539Y32999039D01*
X-44025962Y33124462D01*
X-44025966Y33124465D01*
X-44173447Y33223010D01*
X-44173460Y33223017D01*
X-44337333Y33290894D01*
X-44337342Y33290897D01*
X-44511306Y33325500D01*
X-44511309Y33325500D01*
X-44564548Y33325500D01*
X-44631587Y33345185D01*
X-44652229Y33361819D01*
X-45779106Y34488696D01*
X-18500500Y34488696D01*
X-18500500Y34311305D01*
X-18465897Y34137342D01*
X-18465894Y34137333D01*
X-18398017Y33973460D01*
X-18398010Y33973447D01*
X-18299465Y33825966D01*
X-18299462Y33825962D01*
X-18174039Y33700539D01*
X-18174035Y33700536D01*
X-18026554Y33601991D01*
X-18026541Y33601984D01*
X-17923546Y33559323D01*
X-17862666Y33534106D01*
X-17862664Y33534106D01*
X-17862659Y33534104D01*
X-17688696Y33499501D01*
X-17688693Y33499500D01*
X-17688691Y33499500D01*
X-17511307Y33499500D01*
X-17511306Y33499501D01*
X-17453318Y33511036D01*
X-17337342Y33534104D01*
X-17337339Y33534106D01*
X-17337334Y33534106D01*
X-17173453Y33601987D01*
X-17025965Y33700536D01*
X-16900536Y33825965D01*
X-16801987Y33973453D01*
X-16734106Y34137334D01*
X-16733442Y34140668D01*
X-16721617Y34200118D01*
X-16689232Y34262029D01*
X-16628517Y34296603D01*
X-16558747Y34292864D01*
X-16502075Y34251997D01*
X-16478383Y34200118D01*
X-16465897Y34137342D01*
X-16465894Y34137333D01*
X-16398017Y33973460D01*
X-16398010Y33973447D01*
X-16299465Y33825966D01*
X-16299462Y33825962D01*
X-16174039Y33700539D01*
X-16174035Y33700536D01*
X-16026554Y33601991D01*
X-16026541Y33601984D01*
X-15923546Y33559323D01*
X-15862666Y33534106D01*
X-15862664Y33534106D01*
X-15862659Y33534104D01*
X-15688696Y33499501D01*
X-15688693Y33499500D01*
X-15688691Y33499500D01*
X-15511307Y33499500D01*
X-15511306Y33499501D01*
X-15453318Y33511036D01*
X-15337342Y33534104D01*
X-15337339Y33534106D01*
X-15337334Y33534106D01*
X-15173453Y33601987D01*
X-15025965Y33700536D01*
X-14988321Y33738180D01*
X-14926999Y33771666D01*
X-14900639Y33774500D01*
X-10897944Y33774500D01*
X-10830905Y33754815D01*
X-10802092Y33729167D01*
X-10799460Y33725960D01*
X-10674039Y33600539D01*
X-10674035Y33600536D01*
X-10526554Y33501991D01*
X-10526541Y33501984D01*
X-10437650Y33465165D01*
X-10362666Y33434106D01*
X-10362664Y33434106D01*
X-10362659Y33434104D01*
X-10188696Y33399501D01*
X-10188693Y33399500D01*
X-10188691Y33399500D01*
X-10011307Y33399500D01*
X-10011306Y33399501D01*
X-9910501Y33419552D01*
X-9837342Y33434104D01*
X-9837339Y33434106D01*
X-9837334Y33434106D01*
X-9673453Y33501987D01*
X-9618891Y33538446D01*
X-9552214Y33559323D01*
X-9484834Y33540839D01*
X-9481119Y33538452D01*
X-9426547Y33501987D01*
X-9426544Y33501986D01*
X-9426543Y33501985D01*
X-9337650Y33465165D01*
X-9262666Y33434106D01*
X-9262664Y33434106D01*
X-9262659Y33434104D01*
X-9088696Y33399501D01*
X-9088693Y33399500D01*
X-9088691Y33399500D01*
X-9035452Y33399500D01*
X-8968413Y33379815D01*
X-8947771Y33363181D01*
X-8685861Y33101271D01*
X-8685858Y33101267D01*
X-8598733Y33014142D01*
X-8531344Y32969114D01*
X-8496285Y32945688D01*
X-8429603Y32918068D01*
X-8382452Y32898537D01*
X-8322029Y32886519D01*
X-8261607Y32874500D01*
X-2838393Y32874500D01*
X-2777971Y32886519D01*
X-2717548Y32898537D01*
X-2684208Y32912348D01*
X-2603714Y32945688D01*
X-2552491Y32979916D01*
X-2501267Y33014142D01*
X-2414142Y33101267D01*
X-2414141Y33101270D01*
X-1952227Y33563184D01*
X-1890905Y33596666D01*
X-1864547Y33599500D01*
X-1811307Y33599500D01*
X-1811306Y33599501D01*
X-1753318Y33611036D01*
X-1637342Y33634104D01*
X-1637339Y33634106D01*
X-1637334Y33634106D01*
X-1473453Y33701987D01*
X-1325965Y33800536D01*
X-1200536Y33925965D01*
X-1101987Y34073453D01*
X-1034106Y34237334D01*
X-1030840Y34253750D01*
X-1003999Y34388691D01*
X-999500Y34411309D01*
X-999500Y34588691D01*
X-999500Y34588694D01*
X-999501Y34588696D01*
X-1034104Y34762659D01*
X-1034107Y34762668D01*
X-1101984Y34926541D01*
X-1101986Y34926544D01*
X-1101987Y34926547D01*
X-1143514Y34988696D01*
X3949500Y34988696D01*
X3949500Y34811305D01*
X3984103Y34637342D01*
X3984106Y34637333D01*
X4051983Y34473460D01*
X4051990Y34473447D01*
X4150535Y34325966D01*
X4150538Y34325962D01*
X4275961Y34200539D01*
X4275965Y34200536D01*
X4423446Y34101991D01*
X4423459Y34101984D01*
X4492355Y34073447D01*
X4587334Y34034106D01*
X4587336Y34034106D01*
X4587341Y34034104D01*
X4761304Y33999501D01*
X4761307Y33999500D01*
X4761309Y33999500D01*
X4938693Y33999500D01*
X4938694Y33999501D01*
X4998058Y34011309D01*
X5112658Y34034104D01*
X5112661Y34034106D01*
X5112666Y34034106D01*
X5276547Y34101987D01*
X5424035Y34200536D01*
X5549464Y34325965D01*
X5648013Y34473453D01*
X5715894Y34637334D01*
X5718017Y34648004D01*
X5750499Y34811305D01*
X5750500Y34811307D01*
X5750500Y34988694D01*
X5750499Y34988696D01*
X5715896Y35162659D01*
X5715893Y35162668D01*
X5648016Y35326541D01*
X5648009Y35326554D01*
X5549464Y35474035D01*
X5549461Y35474039D01*
X5424038Y35599462D01*
X5424034Y35599465D01*
X5276553Y35698010D01*
X5276540Y35698017D01*
X5112667Y35765894D01*
X5112658Y35765897D01*
X4938694Y35800500D01*
X4938691Y35800500D01*
X4761309Y35800500D01*
X4761306Y35800500D01*
X4587341Y35765897D01*
X4587332Y35765894D01*
X4423459Y35698017D01*
X4423446Y35698010D01*
X4275965Y35599465D01*
X4275961Y35599462D01*
X4150538Y35474039D01*
X4150535Y35474035D01*
X4051990Y35326554D01*
X4051983Y35326541D01*
X3984106Y35162668D01*
X3984103Y35162659D01*
X3949500Y34988696D01*
X-1143514Y34988696D01*
X-1200536Y35074035D01*
X-1200539Y35074039D01*
X-1325962Y35199462D01*
X-1325966Y35199465D01*
X-1473447Y35298010D01*
X-1473460Y35298017D01*
X-1637333Y35365894D01*
X-1637342Y35365897D01*
X-1811306Y35400500D01*
X-1811309Y35400500D01*
X-1988691Y35400500D01*
X-1988694Y35400500D01*
X-2162659Y35365897D01*
X-2162668Y35365894D01*
X-2326541Y35298017D01*
X-2326554Y35298010D01*
X-2474035Y35199465D01*
X-2474039Y35199462D01*
X-2599462Y35074039D01*
X-2599465Y35074035D01*
X-2698010Y34926554D01*
X-2698017Y34926541D01*
X-2765894Y34762668D01*
X-2765896Y34762660D01*
X-2778383Y34699882D01*
X-2810768Y34637972D01*
X-2871484Y34603397D01*
X-2941253Y34607137D01*
X-2997925Y34648004D01*
X-3021617Y34699882D01*
X-3034105Y34762660D01*
X-3034106Y34762666D01*
X-3065385Y34838181D01*
X-3101984Y34926541D01*
X-3101991Y34926554D01*
X-3200536Y35074035D01*
X-3200539Y35074039D01*
X-3325962Y35199462D01*
X-3325966Y35199465D01*
X-3473447Y35298010D01*
X-3473460Y35298017D01*
X-3637333Y35365894D01*
X-3637342Y35365897D01*
X-3811306Y35400500D01*
X-3811309Y35400500D01*
X-3864547Y35400500D01*
X-3931586Y35420185D01*
X-3952228Y35436819D01*
X-4403703Y35888293D01*
X-4414141Y35898731D01*
X-4414142Y35898733D01*
X-4501267Y35985858D01*
X-4568837Y36031007D01*
X-4575011Y36035133D01*
X-4575015Y36035136D01*
X-4603710Y36054310D01*
X-4603714Y36054312D01*
X-4692204Y36090965D01*
X-4717548Y36101463D01*
X-4815197Y36120886D01*
X-4818315Y36121507D01*
X-4818322Y36121508D01*
X-4838391Y36125500D01*
X-4838393Y36125500D01*
X-4838394Y36125500D01*
X-8427315Y36125500D01*
X-8494354Y36145185D01*
X-8496206Y36146398D01*
X-8573451Y36198012D01*
X-8573453Y36198013D01*
X-8737333Y36265894D01*
X-8737342Y36265897D01*
X-8911306Y36300500D01*
X-8911309Y36300500D01*
X-9088691Y36300500D01*
X-9088694Y36300500D01*
X-9262659Y36265897D01*
X-9262668Y36265894D01*
X-9426541Y36198017D01*
X-9426552Y36198011D01*
X-9481110Y36161556D01*
X-9547787Y36140679D01*
X-9615167Y36159164D01*
X-9618890Y36161556D01*
X-9673449Y36198011D01*
X-9673460Y36198017D01*
X-9837333Y36265894D01*
X-9837342Y36265897D01*
X-10011306Y36300500D01*
X-10011309Y36300500D01*
X-10188691Y36300500D01*
X-10188694Y36300500D01*
X-10362659Y36265897D01*
X-10362668Y36265894D01*
X-10526541Y36198017D01*
X-10526554Y36198010D01*
X-10674035Y36099465D01*
X-10674039Y36099462D01*
X-10711679Y36061820D01*
X-10773001Y36028334D01*
X-10799361Y36025500D01*
X-16532259Y36025500D01*
X-16532279Y36025501D01*
X-16538393Y36025501D01*
X-16661606Y36025501D01*
X-16762403Y36005452D01*
X-16762408Y36005452D01*
X-16782450Y36001464D01*
X-16782452Y36001463D01*
X-16812854Y35988870D01*
X-16812855Y35988870D01*
X-16896279Y35954316D01*
X-16896292Y35954309D01*
X-16998733Y35885859D01*
X-16998737Y35885856D01*
X-17547771Y35336819D01*
X-17609094Y35303334D01*
X-17635452Y35300500D01*
X-17688694Y35300500D01*
X-17862659Y35265897D01*
X-17862668Y35265894D01*
X-18026541Y35198017D01*
X-18026554Y35198010D01*
X-18174035Y35099465D01*
X-18174039Y35099462D01*
X-18299462Y34974039D01*
X-18299465Y34974035D01*
X-18398010Y34826554D01*
X-18398017Y34826541D01*
X-18465894Y34662668D01*
X-18465897Y34662659D01*
X-18500500Y34488696D01*
X-45779106Y34488696D01*
X-49079106Y37788696D01*
X-11600500Y37788696D01*
X-11600500Y37611305D01*
X-11565897Y37437342D01*
X-11565894Y37437333D01*
X-11498017Y37273460D01*
X-11498010Y37273447D01*
X-11399465Y37125966D01*
X-11399462Y37125962D01*
X-11274039Y37000539D01*
X-11274035Y37000536D01*
X-11126554Y36901991D01*
X-11126541Y36901984D01*
X-11057645Y36873447D01*
X-10962666Y36834106D01*
X-10962664Y36834106D01*
X-10962659Y36834104D01*
X-10788696Y36799501D01*
X-10788693Y36799500D01*
X-10788691Y36799500D01*
X-10611307Y36799500D01*
X-10611306Y36799501D01*
X-10538730Y36813937D01*
X-10437342Y36834104D01*
X-10437339Y36834106D01*
X-10437334Y36834106D01*
X-10273453Y36901987D01*
X-10125965Y37000536D01*
X-10000536Y37125965D01*
X-9901987Y37273453D01*
X-9834106Y37437334D01*
X-9829504Y37460467D01*
X-9799983Y37608883D01*
X-9799500Y37611309D01*
X-9799500Y37788691D01*
X-9799500Y37788694D01*
X-9799501Y37788696D01*
X-9834104Y37962659D01*
X-9834107Y37962668D01*
X-9901984Y38126541D01*
X-9901991Y38126554D01*
X-10000536Y38274035D01*
X-10000539Y38274039D01*
X-10125962Y38399462D01*
X-10125966Y38399465D01*
X-10273447Y38498010D01*
X-10273460Y38498017D01*
X-10437333Y38565894D01*
X-10437342Y38565897D01*
X-10611306Y38600500D01*
X-10611309Y38600500D01*
X-10788691Y38600500D01*
X-10788694Y38600500D01*
X-10962659Y38565897D01*
X-10962668Y38565894D01*
X-11126541Y38498017D01*
X-11126554Y38498010D01*
X-11274035Y38399465D01*
X-11274039Y38399462D01*
X-11399462Y38274039D01*
X-11399465Y38274035D01*
X-11498010Y38126554D01*
X-11498017Y38126541D01*
X-11565894Y37962668D01*
X-11565897Y37962659D01*
X-11600500Y37788696D01*
X-49079106Y37788696D01*
X-50356850Y39066440D01*
X-50364140Y39073730D01*
X-50364142Y39073733D01*
X-50451267Y39160858D01*
X-50502491Y39195085D01*
X-50553714Y39229312D01*
X-50553717Y39229314D01*
X-50553720Y39229315D01*
X-50640278Y39265168D01*
X-50640284Y39265170D01*
X-50648049Y39268386D01*
X-50667548Y39276463D01*
X-50727971Y39288482D01*
X-50731682Y39289221D01*
X-50731689Y39289222D01*
X-50788390Y39300500D01*
X-50788393Y39300500D01*
X-50788394Y39300500D01*
X-51314304Y39300500D01*
X-51381343Y39320185D01*
X-51427098Y39372989D01*
X-51437042Y39442147D01*
X-51428868Y39471948D01*
X-51396606Y39549834D01*
X-51391500Y39575500D01*
X-51370751Y39679815D01*
X-51362000Y39723809D01*
X-51362000Y39901191D01*
X-51362000Y39901194D01*
X-51362001Y39901196D01*
X-51396604Y40075159D01*
X-51396607Y40075168D01*
X-51464484Y40239041D01*
X-51464491Y40239054D01*
X-51563036Y40386535D01*
X-51563039Y40386539D01*
X-51688462Y40511962D01*
X-51688466Y40511965D01*
X-51835947Y40610510D01*
X-51835960Y40610517D01*
X-51999833Y40678394D01*
X-51999842Y40678397D01*
X-52173806Y40713000D01*
X-52173809Y40713000D01*
X-52351191Y40713000D01*
X-52351194Y40713000D01*
X-52525159Y40678397D01*
X-52525168Y40678394D01*
X-52689041Y40610517D01*
X-52689054Y40610510D01*
X-52836535Y40511965D01*
X-52836539Y40511962D01*
X-52961962Y40386539D01*
X-52961965Y40386535D01*
X-53060510Y40239054D01*
X-53060517Y40239041D01*
X-53128394Y40075168D01*
X-53128397Y40075159D01*
X-53163000Y39901196D01*
X-53163000Y39723805D01*
X-53131612Y39566007D01*
X-53137839Y39496416D01*
X-53180702Y39441238D01*
X-53246592Y39417994D01*
X-53314589Y39434062D01*
X-53322120Y39438714D01*
X-53373447Y39473010D01*
X-53373460Y39473017D01*
X-53537333Y39540894D01*
X-53537342Y39540897D01*
X-53711306Y39575500D01*
X-53711309Y39575500D01*
X-53888691Y39575500D01*
X-53888694Y39575500D01*
X-54062659Y39540897D01*
X-54062668Y39540894D01*
X-54178548Y39492895D01*
X-54248018Y39485426D01*
X-54310497Y39516702D01*
X-54346148Y39576791D01*
X-54350000Y39607456D01*
X-54350000Y41619903D01*
X-54330315Y41686942D01*
X-54277511Y41732697D01*
X-54226042Y41743903D01*
X-10503147Y41757427D01*
X-10436106Y41737764D01*
X-10390335Y41684974D01*
X-10380370Y41615819D01*
X-10381495Y41609237D01*
X-10400500Y41513690D01*
X-10400500Y41336305D01*
X-10365897Y41162342D01*
X-10365894Y41162333D01*
X-10298017Y40998460D01*
X-10298010Y40998447D01*
X-10199465Y40850966D01*
X-10199462Y40850962D01*
X-10074037Y40725537D01*
X-10059167Y40715601D01*
X-10014363Y40661988D01*
X-10005657Y40592663D01*
X-10035813Y40529636D01*
X-10059167Y40509399D01*
X-10074037Y40499464D01*
X-10199462Y40374039D01*
X-10199465Y40374035D01*
X-10298010Y40226554D01*
X-10298017Y40226541D01*
X-10365894Y40062668D01*
X-10365897Y40062659D01*
X-10400500Y39888696D01*
X-10400500Y39711305D01*
X-10365897Y39537342D01*
X-10365894Y39537333D01*
X-10298017Y39373460D01*
X-10298010Y39373447D01*
X-10199465Y39225966D01*
X-10199462Y39225962D01*
X-10074039Y39100539D01*
X-10074035Y39100536D01*
X-9926554Y39001991D01*
X-9926541Y39001984D01*
X-9803637Y38951077D01*
X-9762666Y38934106D01*
X-9762664Y38934106D01*
X-9762659Y38934104D01*
X-9588696Y38899501D01*
X-9588693Y38899500D01*
X-9588691Y38899500D01*
X-9411307Y38899500D01*
X-9411306Y38899501D01*
X-9353318Y38911036D01*
X-9237342Y38934104D01*
X-9237339Y38934106D01*
X-9237334Y38934106D01*
X-9073453Y39001987D01*
X-8925965Y39100536D01*
X-8800536Y39225965D01*
X-8701987Y39373453D01*
X-8634106Y39537334D01*
X-8633397Y39540894D01*
X-8599501Y39711305D01*
X-8599500Y39711307D01*
X-8599500Y39888694D01*
X-8599501Y39888696D01*
X-8634104Y40062659D01*
X-8634107Y40062668D01*
X-8639285Y40075168D01*
X-8679998Y40173460D01*
X-8701984Y40226541D01*
X-8701991Y40226554D01*
X-8800536Y40374035D01*
X-8800539Y40374039D01*
X-8925963Y40499463D01*
X-8940831Y40509397D01*
X-8985637Y40563009D01*
X-8994344Y40632334D01*
X-8967379Y40688696D01*
X4699500Y40688696D01*
X4699500Y40511305D01*
X4734103Y40337342D01*
X4734106Y40337333D01*
X4801983Y40173460D01*
X4801990Y40173447D01*
X4900535Y40025966D01*
X4900538Y40025962D01*
X4938180Y39988321D01*
X4971666Y39926999D01*
X4974500Y39900639D01*
X4974500Y39638390D01*
X4998535Y39517556D01*
X4998537Y39517548D01*
X5000746Y39512215D01*
X5010638Y39488332D01*
X5010642Y39488324D01*
X5012347Y39484208D01*
X5045688Y39403714D01*
X5070917Y39365958D01*
X5075203Y39359543D01*
X5075206Y39359538D01*
X5114140Y39301269D01*
X5114141Y39301268D01*
X5114142Y39301267D01*
X5201267Y39214142D01*
X5201268Y39214142D01*
X5208335Y39207075D01*
X5208334Y39207075D01*
X5208338Y39207072D01*
X5380894Y39034516D01*
X5414379Y38973193D01*
X5409395Y38903501D01*
X5367523Y38847568D01*
X5340665Y38832274D01*
X5173459Y38763017D01*
X5173446Y38763010D01*
X5025965Y38664465D01*
X5025961Y38664462D01*
X4900538Y38539039D01*
X4900535Y38539035D01*
X4801990Y38391554D01*
X4801983Y38391541D01*
X4734106Y38227668D01*
X4734103Y38227659D01*
X4699500Y38053696D01*
X4699500Y37876305D01*
X4734103Y37702342D01*
X4734106Y37702333D01*
X4801983Y37538460D01*
X4801990Y37538447D01*
X4900535Y37390966D01*
X4900538Y37390962D01*
X5025961Y37265539D01*
X5025965Y37265536D01*
X5173446Y37166991D01*
X5173459Y37166984D01*
X5272490Y37125965D01*
X5337334Y37099106D01*
X5337336Y37099106D01*
X5337341Y37099104D01*
X5511304Y37064501D01*
X5511307Y37064500D01*
X5511309Y37064500D01*
X5688693Y37064500D01*
X5688694Y37064501D01*
X5746682Y37076036D01*
X5862658Y37099104D01*
X5862661Y37099106D01*
X5862666Y37099106D01*
X6026547Y37166987D01*
X6174035Y37265536D01*
X6299464Y37390965D01*
X6398013Y37538453D01*
X6465894Y37702334D01*
X6465895Y37702342D01*
X6467272Y37705665D01*
X6511113Y37760069D01*
X6577407Y37782135D01*
X6645106Y37764857D01*
X6669515Y37745895D01*
X7063181Y37352229D01*
X7096666Y37290906D01*
X7099500Y37264548D01*
X7099500Y37211305D01*
X7134103Y37037342D01*
X7134106Y37037333D01*
X7201983Y36873460D01*
X7201990Y36873447D01*
X7300535Y36725966D01*
X7300538Y36725962D01*
X7309322Y36717178D01*
X7342807Y36655855D01*
X7337823Y36586163D01*
X7324745Y36560609D01*
X7301991Y36526554D01*
X7301983Y36526540D01*
X7234106Y36362668D01*
X7234103Y36362659D01*
X7199500Y36188696D01*
X7199500Y36011305D01*
X7234103Y35837342D01*
X7234106Y35837333D01*
X7301983Y35673460D01*
X7301990Y35673447D01*
X7400535Y35525966D01*
X7400538Y35525962D01*
X7438180Y35488321D01*
X7471666Y35426999D01*
X7474500Y35400639D01*
X7474500Y30738392D01*
X7481275Y30704334D01*
X7481275Y30704330D01*
X7481276Y30704330D01*
X7481276Y30704329D01*
X7491975Y30650536D01*
X7496070Y30629948D01*
X7498536Y30617551D01*
X7545687Y30503715D01*
X7566208Y30473005D01*
X7570331Y30466835D01*
X7614142Y30401267D01*
X7701267Y30314142D01*
X7701270Y30314140D01*
X7708981Y30306429D01*
X8563181Y29452229D01*
X8596666Y29390906D01*
X8599500Y29364548D01*
X8599500Y29311305D01*
X8634103Y29137342D01*
X8634106Y29137333D01*
X8701983Y28973460D01*
X8701990Y28973447D01*
X8800535Y28825966D01*
X8800538Y28825962D01*
X8925961Y28700539D01*
X8925965Y28700536D01*
X9073446Y28601991D01*
X9073459Y28601984D01*
X9196363Y28551077D01*
X9237334Y28534106D01*
X9237336Y28534106D01*
X9237341Y28534104D01*
X9411304Y28499501D01*
X9411307Y28499500D01*
X9411309Y28499500D01*
X9588693Y28499500D01*
X9588694Y28499501D01*
X9646682Y28511036D01*
X9762658Y28534104D01*
X9762661Y28534106D01*
X9762666Y28534106D01*
X9926547Y28601987D01*
X10074035Y28700536D01*
X10199464Y28825965D01*
X10298013Y28973453D01*
X10365894Y29137334D01*
X10385144Y29234107D01*
X10398646Y29301987D01*
X10400500Y29311309D01*
X10400500Y29488691D01*
X10400500Y29488694D01*
X10400499Y29488696D01*
X10365896Y29662659D01*
X10365893Y29662668D01*
X10298016Y29826541D01*
X10298009Y29826554D01*
X10199464Y29974035D01*
X10199461Y29974039D01*
X10074038Y30099462D01*
X10074034Y30099465D01*
X9926553Y30198010D01*
X9926540Y30198017D01*
X9762667Y30265894D01*
X9762658Y30265897D01*
X9699882Y30278383D01*
X9637971Y30310768D01*
X9603397Y30371483D01*
X9607136Y30441253D01*
X9648003Y30497925D01*
X9699882Y30521617D01*
X9762658Y30534104D01*
X9762661Y30534106D01*
X9762666Y30534106D01*
X9926547Y30601987D01*
X10074035Y30700536D01*
X10199464Y30825965D01*
X10298013Y30973453D01*
X10299479Y30976991D01*
X10327281Y31044114D01*
X10365894Y31137334D01*
X10378551Y31200962D01*
X10388964Y31253318D01*
X10400500Y31311309D01*
X10400500Y31488691D01*
X10400500Y31488694D01*
X10400499Y31488696D01*
X10365896Y31662659D01*
X10365893Y31662668D01*
X10356102Y31686305D01*
X10339853Y31725536D01*
X10298016Y31826541D01*
X10298009Y31826554D01*
X10199464Y31974035D01*
X10199461Y31974039D01*
X10074038Y32099462D01*
X10074034Y32099465D01*
X10001371Y32148017D01*
X9926547Y32198013D01*
X9926544Y32198015D01*
X9926543Y32198015D01*
X9902045Y32208163D01*
X9847643Y32252005D01*
X9825579Y32318299D01*
X9825500Y32322723D01*
X9825500Y35400639D01*
X9845185Y35467678D01*
X9861820Y35488321D01*
X9899461Y35525962D01*
X9899464Y35525965D01*
X9998013Y35673453D01*
X10065894Y35837334D01*
X10071793Y35866987D01*
X10095437Y35985858D01*
X10100500Y36011309D01*
X10100500Y36188691D01*
X10100500Y36188694D01*
X10100499Y36188696D01*
X10065896Y36362659D01*
X10065893Y36362668D01*
X9998016Y36526541D01*
X9998009Y36526554D01*
X9899506Y36673972D01*
X9899464Y36674035D01*
X9890976Y36682523D01*
X9890570Y36682930D01*
X9873795Y36713739D01*
X9857191Y36744147D01*
X9857196Y36744225D01*
X9857159Y36744293D01*
X9857657Y36751146D01*
X12486134Y36751146D01*
X12486134Y36573755D01*
X12520737Y36399792D01*
X12520740Y36399783D01*
X12588617Y36235910D01*
X12588624Y36235897D01*
X12687169Y36088416D01*
X12687172Y36088412D01*
X12812595Y35962989D01*
X12812599Y35962986D01*
X12960080Y35864441D01*
X12960093Y35864434D01*
X13082997Y35813527D01*
X13123968Y35796556D01*
X13123970Y35796556D01*
X13123975Y35796554D01*
X13297938Y35761951D01*
X13297941Y35761950D01*
X13297943Y35761950D01*
X13475327Y35761950D01*
X13475328Y35761951D01*
X13533793Y35773580D01*
X13649292Y35796554D01*
X13649295Y35796556D01*
X13649300Y35796556D01*
X13813181Y35864437D01*
X13960669Y35962986D01*
X14086098Y36088415D01*
X14166066Y36208096D01*
X14219678Y36252901D01*
X14289003Y36261608D01*
X14352030Y36231454D01*
X14372270Y36208096D01*
X14450535Y36090966D01*
X14450538Y36090962D01*
X14575961Y35965539D01*
X14575965Y35965536D01*
X14723446Y35866991D01*
X14723459Y35866984D01*
X14846363Y35816077D01*
X14887334Y35799106D01*
X14887336Y35799106D01*
X14887341Y35799104D01*
X15061304Y35764501D01*
X15061307Y35764500D01*
X15061309Y35764500D01*
X15238693Y35764500D01*
X15238694Y35764501D01*
X15296682Y35776036D01*
X15412658Y35799104D01*
X15412661Y35799106D01*
X15412666Y35799106D01*
X15552535Y35857042D01*
X15576540Y35866984D01*
X15576540Y35866985D01*
X15576547Y35866987D01*
X15724035Y35965536D01*
X15849464Y36090965D01*
X15948013Y36238453D01*
X15953998Y36252901D01*
X16014837Y36399783D01*
X16015894Y36402334D01*
X16050500Y36576309D01*
X16050500Y36753691D01*
X16050500Y36753694D01*
X16050499Y36753696D01*
X16015896Y36927659D01*
X16015893Y36927668D01*
X15948016Y37091541D01*
X15948009Y37091554D01*
X15849464Y37239035D01*
X15849461Y37239039D01*
X15724038Y37364462D01*
X15724034Y37364465D01*
X15576553Y37463010D01*
X15576540Y37463017D01*
X15412667Y37530894D01*
X15412658Y37530897D01*
X15238694Y37565500D01*
X15238691Y37565500D01*
X15061309Y37565500D01*
X15061306Y37565500D01*
X14887341Y37530897D01*
X14887332Y37530894D01*
X14723459Y37463017D01*
X14723446Y37463010D01*
X14575965Y37364465D01*
X14575961Y37364462D01*
X14450538Y37239039D01*
X14450535Y37239035D01*
X14370567Y37119355D01*
X14316954Y37074550D01*
X14247629Y37065843D01*
X14184602Y37095998D01*
X14164363Y37119355D01*
X14086098Y37236485D01*
X14086095Y37236489D01*
X13960672Y37361912D01*
X13960668Y37361915D01*
X13813187Y37460460D01*
X13813174Y37460467D01*
X13649301Y37528344D01*
X13649292Y37528347D01*
X13475328Y37562950D01*
X13475325Y37562950D01*
X13297943Y37562950D01*
X13297940Y37562950D01*
X13123975Y37528347D01*
X13123966Y37528344D01*
X12960093Y37460467D01*
X12960080Y37460460D01*
X12812599Y37361915D01*
X12812595Y37361912D01*
X12687172Y37236489D01*
X12687169Y37236485D01*
X12588624Y37089004D01*
X12588617Y37088991D01*
X12520740Y36925118D01*
X12520737Y36925109D01*
X12486134Y36751146D01*
X9857657Y36751146D01*
X9859677Y36778913D01*
X9862175Y36813839D01*
X9862224Y36813937D01*
X9862228Y36813979D01*
X9862286Y36814058D01*
X9875253Y36839393D01*
X9898013Y36873453D01*
X9965894Y37037334D01*
X9976170Y37088991D01*
X9991684Y37166987D01*
X10000500Y37211309D01*
X10000500Y37388691D01*
X10000500Y37388694D01*
X10000499Y37388696D01*
X9965896Y37562659D01*
X9965893Y37562668D01*
X9898016Y37726541D01*
X9898009Y37726554D01*
X9799464Y37874035D01*
X9799461Y37874039D01*
X9761819Y37911681D01*
X9728334Y37973004D01*
X9725500Y37999362D01*
X9725500Y39161607D01*
X9721995Y39179225D01*
X9721994Y39179228D01*
X9718840Y39195085D01*
X9701463Y39282451D01*
X9693669Y39301267D01*
X9693668Y39301270D01*
X9693668Y39301271D01*
X9654312Y39396283D01*
X9654311Y39396286D01*
X9654309Y39396289D01*
X9654307Y39396293D01*
X9585859Y39498732D01*
X9543694Y39540897D01*
X9498733Y39585858D01*
X9498732Y39585859D01*
X8536819Y40547772D01*
X8503334Y40609095D01*
X8500500Y40635453D01*
X8500500Y40688694D01*
X8500499Y40688696D01*
X8465896Y40862659D01*
X8465893Y40862668D01*
X8398016Y41026541D01*
X8398009Y41026554D01*
X8299464Y41174035D01*
X8299461Y41174039D01*
X8174038Y41299462D01*
X8174034Y41299465D01*
X8026553Y41398010D01*
X8026540Y41398017D01*
X7862667Y41465894D01*
X7862658Y41465897D01*
X7688694Y41500500D01*
X7688691Y41500500D01*
X7511309Y41500500D01*
X7511306Y41500500D01*
X7337341Y41465897D01*
X7337332Y41465894D01*
X7173459Y41398017D01*
X7173446Y41398010D01*
X7025965Y41299465D01*
X7025961Y41299462D01*
X6900538Y41174039D01*
X6900535Y41174035D01*
X6801990Y41026554D01*
X6801983Y41026541D01*
X6734106Y40862668D01*
X6734104Y40862660D01*
X6721617Y40799882D01*
X6689232Y40737972D01*
X6628516Y40703397D01*
X6558747Y40707137D01*
X6502075Y40748004D01*
X6478383Y40799882D01*
X6465895Y40862660D01*
X6465894Y40862666D01*
X6448923Y40903637D01*
X6398016Y41026541D01*
X6398009Y41026554D01*
X6299464Y41174035D01*
X6299461Y41174039D01*
X6174038Y41299462D01*
X6174034Y41299465D01*
X6026553Y41398010D01*
X6026540Y41398017D01*
X5862667Y41465894D01*
X5862658Y41465897D01*
X5688694Y41500500D01*
X5688691Y41500500D01*
X5511309Y41500500D01*
X5511306Y41500500D01*
X5337341Y41465897D01*
X5337332Y41465894D01*
X5173459Y41398017D01*
X5173446Y41398010D01*
X5025965Y41299465D01*
X5025961Y41299462D01*
X4900538Y41174039D01*
X4900535Y41174035D01*
X4801990Y41026554D01*
X4801983Y41026541D01*
X4734106Y40862668D01*
X4734103Y40862659D01*
X4699500Y40688696D01*
X-8967379Y40688696D01*
X-8964190Y40695362D01*
X-8955315Y40704287D01*
X-8948496Y40710482D01*
X-8925965Y40725536D01*
X-8800536Y40850965D01*
X-8701987Y40998453D01*
X-8634106Y41162334D01*
X-8631778Y41174035D01*
X-8599501Y41336305D01*
X-8599500Y41336307D01*
X-8599500Y41513694D01*
X-8610200Y41567483D01*
X-8618629Y41609858D01*
X-8612402Y41679447D01*
X-8569540Y41734625D01*
X-8503650Y41757870D01*
X-8497080Y41758048D01*
X16177891Y41765680D01*
X16244935Y41746016D01*
G37*
%TD.AperFunction*%
%TD*%
%TA.AperFunction,Conductor*%
%TO.N,GNDD*%
G36*
X-62407996Y-14093617D02*
G01*
X-62362241Y-14146421D01*
X-62351035Y-14197932D01*
X-62351035Y-20202354D01*
X-62320245Y-20396758D01*
X-62259418Y-20583962D01*
X-62182197Y-20735515D01*
X-62170059Y-20759337D01*
X-62054363Y-20918578D01*
X-62054361Y-20918580D01*
X-61408028Y-21564913D01*
X-61374543Y-21626236D01*
X-61372351Y-21639993D01*
X-61365534Y-21706728D01*
X-61365534Y-21706731D01*
X-61325332Y-21828051D01*
X-61310349Y-21873266D01*
X-61218247Y-22022588D01*
X-61094191Y-22146644D01*
X-61072441Y-22160059D01*
X-61025715Y-22212005D01*
X-61013535Y-22265599D01*
X-61013535Y-22575831D01*
X-61033220Y-22642870D01*
X-61039553Y-22651827D01*
X-61043613Y-22657061D01*
X-61127280Y-22798535D01*
X-61127281Y-22798538D01*
X-61173133Y-22956358D01*
X-61173134Y-22956364D01*
X-61176035Y-22993230D01*
X-61176035Y-23424633D01*
X-61173134Y-23461499D01*
X-61173133Y-23461505D01*
X-61127281Y-23619325D01*
X-61127281Y-23619326D01*
X-61127280Y-23619328D01*
X-61127279Y-23619330D01*
X-61126402Y-23620813D01*
X-61126069Y-23622127D01*
X-61124182Y-23626486D01*
X-61124886Y-23626790D01*
X-61109220Y-23688536D01*
X-61124674Y-23741165D01*
X-61124182Y-23741378D01*
X-61125905Y-23745358D01*
X-61126402Y-23747050D01*
X-61127029Y-23748109D01*
X-61127281Y-23748537D01*
X-61127281Y-23748538D01*
X-61173133Y-23906358D01*
X-61173134Y-23906364D01*
X-61176035Y-23943230D01*
X-61176035Y-24374633D01*
X-61173134Y-24411499D01*
X-61173133Y-24411505D01*
X-61127281Y-24569325D01*
X-61127281Y-24569326D01*
X-61127280Y-24569328D01*
X-61127279Y-24569330D01*
X-61126402Y-24570813D01*
X-61126069Y-24572127D01*
X-61124182Y-24576486D01*
X-61124886Y-24576790D01*
X-61109220Y-24638536D01*
X-61124674Y-24691165D01*
X-61124182Y-24691378D01*
X-61125905Y-24695358D01*
X-61126402Y-24697050D01*
X-61127029Y-24698109D01*
X-61127281Y-24698537D01*
X-61127281Y-24698538D01*
X-61173133Y-24856358D01*
X-61173134Y-24856364D01*
X-61176035Y-24893230D01*
X-61176035Y-25324633D01*
X-61173134Y-25361499D01*
X-61173133Y-25361505D01*
X-61127281Y-25519325D01*
X-61127280Y-25519328D01*
X-61043803Y-25660482D01*
X-61043617Y-25660796D01*
X-61043612Y-25660802D01*
X-60927406Y-25777008D01*
X-60927402Y-25777011D01*
X-60927400Y-25777013D01*
X-60927397Y-25777014D01*
X-60927394Y-25777017D01*
X-60824415Y-25837918D01*
X-60776731Y-25888986D01*
X-60763535Y-25944650D01*
X-60763535Y-27940350D01*
X-60763535Y-27940352D01*
X-60763536Y-27940352D01*
X-60734695Y-28085339D01*
X-60734692Y-28085349D01*
X-60678121Y-28221924D01*
X-60678120Y-28221926D01*
X-60678119Y-28221927D01*
X-60660513Y-28248277D01*
X-60651965Y-28261069D01*
X-60651964Y-28261072D01*
X-60595989Y-28344846D01*
X-60595983Y-28344853D01*
X-59509121Y-29431713D01*
X-59303950Y-29636884D01*
X-59280106Y-29652815D01*
X-59267193Y-29661444D01*
X-59267190Y-29661445D01*
X-59263162Y-29664137D01*
X-59181030Y-29719016D01*
X-59124455Y-29742450D01*
X-59044447Y-29775591D01*
X-58928294Y-29798695D01*
X-58909067Y-29802519D01*
X-58899454Y-29804432D01*
X-58899453Y-29804432D01*
X-58899452Y-29804432D01*
X-58751617Y-29804432D01*
X-55612765Y-29804432D01*
X-55545726Y-29824117D01*
X-55525084Y-29840751D01*
X-55327009Y-30038826D01*
X-55326438Y-30039871D01*
X-55325403Y-30040462D01*
X-55309732Y-30070466D01*
X-55293524Y-30100149D01*
X-55293429Y-30101681D01*
X-55293057Y-30102393D01*
X-55292910Y-30110018D01*
X-55291191Y-30137638D01*
X-55291566Y-30141792D01*
X-55301035Y-30201580D01*
X-55301035Y-30246857D01*
X-55301536Y-30252416D01*
X-55312385Y-30279938D01*
X-55320720Y-30308324D01*
X-55325055Y-30312080D01*
X-55327159Y-30317418D01*
X-55351170Y-30334708D01*
X-55373524Y-30354079D01*
X-55380048Y-30355504D01*
X-55383857Y-30358248D01*
X-55395402Y-30358859D01*
X-55424808Y-30365285D01*
X-62751308Y-30378704D01*
X-62818383Y-30359142D01*
X-62864235Y-30306422D01*
X-62875535Y-30254704D01*
X-62875535Y-14197932D01*
X-62855850Y-14130893D01*
X-62803046Y-14085138D01*
X-62751535Y-14073932D01*
X-62475035Y-14073932D01*
X-62407996Y-14093617D01*
G37*
%TD.AperFunction*%
%TA.AperFunction,Conductor*%
G36*
X-49332496Y-14093617D02*
G01*
X-49286741Y-14146421D01*
X-49275535Y-14197932D01*
X-49275535Y-30230250D01*
X-49295220Y-30297289D01*
X-49348024Y-30343044D01*
X-49399308Y-30354250D01*
X-49725808Y-30354848D01*
X-49792883Y-30335286D01*
X-49838735Y-30282566D01*
X-49850035Y-30230848D01*
X-49850035Y-30176580D01*
X-49882058Y-29974397D01*
X-49930887Y-29824117D01*
X-49945315Y-29779713D01*
X-49945317Y-29779710D01*
X-49945317Y-29779708D01*
X-50004204Y-29664137D01*
X-50038248Y-29597322D01*
X-50045979Y-29586681D01*
X-50158564Y-29431718D01*
X-50303322Y-29286960D01*
X-50468924Y-29166645D01*
X-50503263Y-29149148D01*
X-50534648Y-29126345D01*
X-51088716Y-28572277D01*
X-51122201Y-28510954D01*
X-51125035Y-28484596D01*
X-51125035Y-24480517D01*
X-51118966Y-24442198D01*
X-51105826Y-24401758D01*
X-51075035Y-24207353D01*
X-51075035Y-21124952D01*
X-51073508Y-21105554D01*
X-51050035Y-20957354D01*
X-51050035Y-20760510D01*
X-51073508Y-20612310D01*
X-51075035Y-20592912D01*
X-51075035Y-18069951D01*
X-51073508Y-18050553D01*
X-51050035Y-17902354D01*
X-51050035Y-16748267D01*
X-51030350Y-16681228D01*
X-51013720Y-16660590D01*
X-50459645Y-16106514D01*
X-50428260Y-16083712D01*
X-50393925Y-16066219D01*
X-50228316Y-15945898D01*
X-50083569Y-15801151D01*
X-50083567Y-15801147D01*
X-50083564Y-15801145D01*
X-50029905Y-15727288D01*
X-49963248Y-15635542D01*
X-49870315Y-15453151D01*
X-49807058Y-15258466D01*
X-49775035Y-15056284D01*
X-49775035Y-14851580D01*
X-49807058Y-14649398D01*
X-49870315Y-14454713D01*
X-49870317Y-14454710D01*
X-49870317Y-14454708D01*
X-49944055Y-14309990D01*
X-49963248Y-14272322D01*
X-49964339Y-14270820D01*
X-49964578Y-14270150D01*
X-49965794Y-14268166D01*
X-49965378Y-14267910D01*
X-49987821Y-14205015D01*
X-49971997Y-14136960D01*
X-49921893Y-14088264D01*
X-49864023Y-14073932D01*
X-49399535Y-14073932D01*
X-49332496Y-14093617D01*
G37*
%TD.AperFunction*%
%TA.AperFunction,Conductor*%
G36*
X-56357995Y-25179117D02*
G01*
X-56312240Y-25231921D01*
X-56301604Y-25280811D01*
X-56301194Y-25280791D01*
X-56301068Y-25283278D01*
X-56301034Y-25283432D01*
X-56301034Y-25283950D01*
X-56290535Y-25386728D01*
X-56290534Y-25386731D01*
X-56235350Y-25553263D01*
X-56235345Y-25553274D01*
X-56194497Y-25619498D01*
X-56176035Y-25684595D01*
X-56176035Y-27582473D01*
X-56176035Y-27582475D01*
X-56176036Y-27582475D01*
X-56137588Y-27775760D01*
X-56137586Y-27775768D01*
X-56085474Y-27901578D01*
X-56083848Y-27909754D01*
X-56081058Y-27914095D01*
X-56076035Y-27949029D01*
X-56076035Y-28109595D01*
X-56076034Y-28179431D01*
X-56095718Y-28246471D01*
X-56148522Y-28292226D01*
X-56200034Y-28303432D01*
X-56751035Y-28303432D01*
X-56818074Y-28283747D01*
X-56863829Y-28230943D01*
X-56875035Y-28179432D01*
X-56875036Y-26958930D01*
X-56875037Y-26958913D01*
X-56885536Y-26856135D01*
X-56885537Y-26856132D01*
X-56890870Y-26840037D01*
X-56940721Y-26689598D01*
X-57032823Y-26540276D01*
X-57156879Y-26416220D01*
X-57161986Y-26411113D01*
X-57160100Y-26409226D01*
X-57193323Y-26362307D01*
X-57200035Y-26322064D01*
X-57200035Y-26022022D01*
X-57180350Y-25954983D01*
X-57127546Y-25909228D01*
X-57110630Y-25902946D01*
X-57062580Y-25888986D01*
X-56965137Y-25860676D01*
X-56823670Y-25777013D01*
X-56707454Y-25660797D01*
X-56623791Y-25519330D01*
X-56577937Y-25361501D01*
X-56575035Y-25324626D01*
X-56575035Y-25283432D01*
X-56572485Y-25274746D01*
X-56573773Y-25265785D01*
X-56562795Y-25241744D01*
X-56555350Y-25216393D01*
X-56548510Y-25210465D01*
X-56544748Y-25202229D01*
X-56522514Y-25187939D01*
X-56502546Y-25170638D01*
X-56492032Y-25168350D01*
X-56485970Y-25164455D01*
X-56451035Y-25159432D01*
X-56425034Y-25159432D01*
X-56357995Y-25179117D01*
G37*
%TD.AperFunction*%
%TA.AperFunction,Conductor*%
G36*
X-55347524Y-14093617D02*
G01*
X-55301769Y-14146421D01*
X-55291825Y-14215579D01*
X-55304078Y-14254224D01*
X-55312533Y-14270820D01*
X-55380754Y-14404708D01*
X-55444013Y-14599397D01*
X-55476035Y-14801580D01*
X-55476035Y-15006283D01*
X-55444013Y-15208466D01*
X-55380754Y-15403155D01*
X-55355279Y-15453151D01*
X-55300691Y-15560286D01*
X-55287820Y-15585545D01*
X-55167507Y-15751145D01*
X-55167501Y-15751151D01*
X-55022754Y-15895898D01*
X-54857145Y-16016219D01*
X-54822811Y-16033713D01*
X-54820904Y-16035098D01*
X-54819679Y-16035365D01*
X-54791425Y-16056516D01*
X-54635308Y-16212633D01*
X-54601823Y-16273956D01*
X-54606807Y-16343648D01*
X-54648679Y-16399581D01*
X-54714143Y-16423998D01*
X-54761991Y-16418021D01*
X-54772839Y-16414426D01*
X-54772845Y-16414425D01*
X-54875549Y-16403932D01*
X-55000535Y-16403932D01*
X-55000535Y-17553932D01*
X-54175536Y-17553932D01*
X-54175536Y-17103960D01*
X-54175537Y-17103945D01*
X-54186030Y-17001233D01*
X-54189622Y-16990392D01*
X-54192025Y-16920563D01*
X-54156294Y-16860521D01*
X-54093774Y-16829328D01*
X-54024315Y-16836887D01*
X-53984236Y-16863705D01*
X-53587354Y-17260587D01*
X-53553869Y-17321910D01*
X-53551035Y-17348268D01*
X-53551035Y-17617911D01*
X-53552562Y-17637309D01*
X-53576035Y-17785509D01*
X-53576035Y-23787346D01*
X-53582104Y-23825665D01*
X-53595245Y-23866105D01*
X-53626035Y-24060509D01*
X-53626035Y-28109595D01*
X-53634680Y-28139032D01*
X-53641203Y-28169023D01*
X-53644958Y-28174038D01*
X-53645720Y-28176634D01*
X-53662355Y-28197277D01*
X-53713356Y-28248277D01*
X-53774679Y-28281761D01*
X-53844371Y-28276776D01*
X-53900304Y-28234904D01*
X-53924720Y-28169440D01*
X-53925036Y-28160619D01*
X-53925036Y-26958924D01*
X-53935536Y-26856135D01*
X-53990721Y-26689598D01*
X-54082823Y-26540276D01*
X-54138716Y-26484383D01*
X-54172201Y-26423060D01*
X-54175035Y-26396702D01*
X-54175035Y-25684595D01*
X-54156573Y-25619498D01*
X-54115726Y-25553274D01*
X-54115727Y-25553274D01*
X-54115721Y-25553266D01*
X-54060536Y-25386729D01*
X-54050035Y-25283941D01*
X-54050036Y-23033924D01*
X-54060536Y-22931135D01*
X-54115721Y-22764598D01*
X-54207823Y-22615276D01*
X-54331879Y-22491220D01*
X-54481201Y-22399118D01*
X-54481207Y-22399116D01*
X-54527314Y-22383837D01*
X-54584758Y-22344064D01*
X-54611580Y-22279548D01*
X-54599264Y-22210772D01*
X-54553404Y-22160593D01*
X-54457192Y-22101249D01*
X-54333220Y-21977277D01*
X-54241179Y-21828056D01*
X-54241177Y-21828051D01*
X-54186030Y-21661629D01*
X-54186029Y-21661622D01*
X-54175536Y-21558918D01*
X-54175535Y-21558905D01*
X-54175535Y-21108932D01*
X-56145535Y-21108932D01*
X-56154216Y-21117613D01*
X-56215539Y-21151098D01*
X-56241897Y-21153932D01*
X-58425534Y-21153932D01*
X-58425534Y-21603918D01*
X-58415041Y-21706629D01*
X-58359894Y-21873051D01*
X-58359892Y-21873056D01*
X-58267851Y-22022277D01*
X-58143881Y-22146247D01*
X-58090143Y-22179393D01*
X-58043419Y-22231341D01*
X-58032196Y-22300304D01*
X-58060040Y-22364386D01*
X-58118108Y-22403242D01*
X-58155240Y-22408932D01*
X-58316185Y-22408932D01*
X-58353025Y-22411831D01*
X-58353031Y-22411832D01*
X-58510729Y-22457648D01*
X-58510732Y-22457649D01*
X-58652088Y-22541246D01*
X-58652097Y-22541253D01*
X-58768214Y-22657370D01*
X-58768223Y-22657381D01*
X-58768518Y-22657882D01*
X-58768852Y-22658193D01*
X-58772998Y-22663539D01*
X-58773861Y-22662869D01*
X-58793843Y-22681523D01*
X-58819139Y-22705333D01*
X-58819400Y-22705381D01*
X-58819592Y-22705561D01*
X-58853583Y-22711740D01*
X-58887830Y-22718112D01*
X-58888076Y-22718011D01*
X-58888335Y-22718059D01*
X-58920323Y-22704859D01*
X-58952526Y-22691725D01*
X-58952736Y-22691484D01*
X-58952921Y-22691408D01*
X-58976715Y-22666024D01*
X-58979512Y-22662043D01*
X-58982454Y-22657067D01*
X-58984310Y-22655211D01*
X-58990005Y-22647103D01*
X-59000312Y-22616690D01*
X-59012050Y-22586790D01*
X-59012292Y-22581339D01*
X-59012430Y-22580930D01*
X-59012328Y-22580519D01*
X-59012535Y-22575831D01*
X-59012535Y-21092888D01*
X-59047652Y-20916347D01*
X-59050035Y-20892155D01*
X-59050035Y-20805510D01*
X-59080826Y-20611105D01*
X-59141654Y-20423898D01*
X-59211521Y-20286776D01*
X-59214590Y-20274199D01*
X-59219751Y-20266298D01*
X-59224698Y-20232778D01*
X-59225033Y-20231402D01*
X-59225036Y-20230997D01*
X-59225036Y-20203924D01*
X-59225253Y-20201803D01*
X-59225291Y-20196624D01*
X-59216405Y-20165506D01*
X-59208885Y-20134059D01*
X-59206872Y-20132125D01*
X-59206104Y-20129440D01*
X-59181810Y-20108071D01*
X-59158478Y-20085677D01*
X-59155739Y-20085139D01*
X-59153641Y-20083295D01*
X-59121663Y-20078454D01*
X-59089915Y-20072227D01*
X-59084771Y-20072871D01*
X-59084558Y-20072839D01*
X-59084376Y-20072920D01*
X-59081896Y-20073231D01*
X-59021645Y-20082774D01*
X-58785541Y-20082774D01*
X-58566162Y-20048027D01*
X-58496869Y-20056981D01*
X-58443417Y-20101977D01*
X-58422777Y-20168729D01*
X-58423406Y-20183098D01*
X-58425534Y-20203933D01*
X-58425535Y-20203958D01*
X-58425535Y-20653932D01*
X-57600535Y-20653932D01*
X-57600535Y-19503932D01*
X-57100535Y-19503932D01*
X-57100535Y-20653932D01*
X-56455535Y-20653932D01*
X-56446854Y-20645251D01*
X-56385531Y-20611766D01*
X-56359173Y-20608932D01*
X-55500535Y-20608932D01*
X-55000535Y-20608932D01*
X-54175536Y-20608932D01*
X-54175536Y-20158960D01*
X-54175537Y-20158945D01*
X-54186030Y-20056234D01*
X-54241177Y-19889812D01*
X-54241179Y-19889807D01*
X-54333220Y-19740586D01*
X-54457190Y-19616616D01*
X-54606411Y-19524575D01*
X-54606416Y-19524573D01*
X-54772838Y-19469426D01*
X-54772845Y-19469425D01*
X-54875549Y-19458932D01*
X-55000535Y-19458932D01*
X-55000535Y-20608932D01*
X-55500535Y-20608932D01*
X-55500535Y-19458932D01*
X-55625508Y-19458932D01*
X-55625523Y-19458933D01*
X-55728233Y-19469426D01*
X-55894655Y-19524573D01*
X-55894660Y-19524575D01*
X-56043881Y-19616616D01*
X-56167853Y-19740588D01*
X-56208876Y-19807097D01*
X-56260824Y-19853821D01*
X-56329787Y-19865042D01*
X-56393869Y-19837198D01*
X-56419954Y-19807094D01*
X-56433220Y-19785586D01*
X-56557190Y-19661616D01*
X-56706411Y-19569575D01*
X-56706416Y-19569573D01*
X-56872838Y-19514426D01*
X-56872845Y-19514425D01*
X-56975549Y-19503932D01*
X-57100535Y-19503932D01*
X-57600535Y-19503932D01*
X-57600535Y-19499944D01*
X-57629224Y-19447405D01*
X-57624240Y-19377713D01*
X-57618543Y-19364752D01*
X-57513491Y-19158576D01*
X-57440528Y-18934021D01*
X-57403593Y-18700826D01*
X-57403593Y-18503918D01*
X-56325534Y-18503918D01*
X-56315041Y-18606629D01*
X-56259894Y-18773051D01*
X-56259892Y-18773056D01*
X-56167851Y-18922277D01*
X-56043881Y-19046247D01*
X-55894660Y-19138288D01*
X-55894655Y-19138290D01*
X-55728233Y-19193437D01*
X-55728226Y-19193438D01*
X-55625516Y-19203931D01*
X-55500536Y-19203931D01*
X-55000535Y-19203931D01*
X-54875563Y-19203931D01*
X-54875549Y-19203930D01*
X-54772838Y-19193437D01*
X-54606416Y-19138290D01*
X-54606411Y-19138288D01*
X-54457190Y-19046247D01*
X-54333220Y-18922277D01*
X-54241179Y-18773056D01*
X-54241177Y-18773051D01*
X-54186030Y-18606629D01*
X-54186029Y-18606622D01*
X-54175536Y-18503918D01*
X-54175535Y-18503905D01*
X-54175535Y-18053932D01*
X-55000535Y-18053932D01*
X-55000535Y-19203931D01*
X-55500536Y-19203931D01*
X-55500535Y-19203930D01*
X-55500535Y-18053932D01*
X-56325534Y-18053932D01*
X-56325534Y-18503918D01*
X-57403593Y-18503918D01*
X-57403593Y-18464721D01*
X-57440528Y-18231526D01*
X-57502470Y-18040888D01*
X-57513491Y-18006971D01*
X-57620679Y-17796602D01*
X-57680935Y-17713668D01*
X-57680935Y-17713667D01*
X-58639136Y-18671869D01*
X-58700459Y-18705354D01*
X-58770151Y-18700370D01*
X-58814498Y-18671869D01*
X-58992689Y-18493678D01*
X-59026174Y-18432355D01*
X-59021190Y-18362663D01*
X-58992689Y-18318316D01*
X-58034488Y-17360114D01*
X-58034489Y-17360112D01*
X-58117418Y-17299861D01*
X-58291267Y-17211281D01*
X-58327791Y-17192671D01*
X-58552346Y-17119708D01*
X-58552345Y-17119708D01*
X-58651870Y-17103945D01*
X-56325535Y-17103945D01*
X-56325535Y-17553932D01*
X-55500535Y-17553932D01*
X-55500535Y-16403932D01*
X-55625508Y-16403932D01*
X-55625523Y-16403933D01*
X-55728233Y-16414426D01*
X-55894655Y-16469573D01*
X-55894660Y-16469575D01*
X-56043881Y-16561616D01*
X-56167851Y-16685586D01*
X-56259892Y-16834807D01*
X-56259894Y-16834812D01*
X-56315041Y-17001234D01*
X-56315042Y-17001241D01*
X-56325535Y-17103945D01*
X-58651870Y-17103945D01*
X-58785541Y-17082774D01*
X-59021645Y-17082774D01*
X-59254841Y-17119708D01*
X-59479396Y-17192671D01*
X-59669740Y-17289656D01*
X-59738410Y-17302552D01*
X-59803150Y-17276275D01*
X-59843407Y-17219169D01*
X-59850035Y-17179171D01*
X-59850035Y-15986938D01*
X-59830350Y-15919899D01*
X-59777546Y-15874144D01*
X-59708388Y-15864200D01*
X-59669740Y-15876453D01*
X-59479590Y-15973340D01*
X-59479588Y-15973340D01*
X-59479585Y-15973342D01*
X-59359181Y-16012463D01*
X-59254962Y-16046327D01*
X-59021690Y-16083274D01*
X-59021685Y-16083274D01*
X-58785496Y-16083274D01*
X-58552225Y-16046327D01*
X-58517666Y-16035098D01*
X-58327601Y-15973342D01*
X-58117160Y-15866117D01*
X-57926083Y-15727291D01*
X-57759076Y-15560284D01*
X-57620250Y-15369207D01*
X-57513025Y-15158766D01*
X-57440040Y-14934142D01*
X-57403093Y-14700871D01*
X-57403093Y-14464676D01*
X-57434762Y-14264731D01*
X-57440040Y-14231406D01*
X-57440041Y-14231403D01*
X-57441127Y-14226878D01*
X-57437636Y-14157096D01*
X-57396972Y-14100279D01*
X-57332045Y-14074466D01*
X-57320553Y-14073932D01*
X-55414563Y-14073932D01*
X-55347524Y-14093617D01*
G37*
%TD.AperFunction*%
%TA.AperFunction,Conductor*%
G36*
X-58870223Y-25601706D02*
G01*
X-58862458Y-25600294D01*
X-58837007Y-25610792D01*
X-58810445Y-25618059D01*
X-58801699Y-25625357D01*
X-58797868Y-25626938D01*
X-58792811Y-25632775D01*
X-58783347Y-25640672D01*
X-58775089Y-25649852D01*
X-58768616Y-25660797D01*
X-58735033Y-25694380D01*
X-58732847Y-25696810D01*
X-58719106Y-25725477D01*
X-58703869Y-25753380D01*
X-58704111Y-25756760D01*
X-58702646Y-25759816D01*
X-58701035Y-25779740D01*
X-58701035Y-26322064D01*
X-58720720Y-26389103D01*
X-58739919Y-26410278D01*
X-58739084Y-26411113D01*
X-58868246Y-26540274D01*
X-58960348Y-26689595D01*
X-58960349Y-26689598D01*
X-59010199Y-26840037D01*
X-59015534Y-26856136D01*
X-59016952Y-26862759D01*
X-59019116Y-26862295D01*
X-59041575Y-26917334D01*
X-59098757Y-26957484D01*
X-59168568Y-26960345D01*
X-59228844Y-26925009D01*
X-59260447Y-26862695D01*
X-59262535Y-26840037D01*
X-59262535Y-25944650D01*
X-59242850Y-25877611D01*
X-59201655Y-25837918D01*
X-59098677Y-25777017D01*
X-59098678Y-25777017D01*
X-59098670Y-25777013D01*
X-58982454Y-25660797D01*
X-58982268Y-25660481D01*
X-58982058Y-25660285D01*
X-58977674Y-25654634D01*
X-58976763Y-25655341D01*
X-58962143Y-25641690D01*
X-58944501Y-25620550D01*
X-58936969Y-25618185D01*
X-58931199Y-25612798D01*
X-58904113Y-25607870D01*
X-58877839Y-25599623D01*
X-58870223Y-25601706D01*
G37*
%TD.AperFunction*%
%TA.AperFunction,Conductor*%
G36*
X-56207204Y-21925663D02*
G01*
X-56181118Y-21955768D01*
X-56167853Y-21977275D01*
X-56043881Y-22101247D01*
X-55888510Y-22197081D01*
X-55889869Y-22199283D01*
X-55846509Y-22237445D01*
X-55827343Y-22304634D01*
X-55847544Y-22371520D01*
X-55886242Y-22409215D01*
X-56019188Y-22491217D01*
X-56019192Y-22491220D01*
X-56143246Y-22615274D01*
X-56235348Y-22764595D01*
X-56235349Y-22764598D01*
X-56290534Y-22931135D01*
X-56290534Y-22931136D01*
X-56290535Y-22931136D01*
X-56301035Y-23033915D01*
X-56301035Y-23034432D01*
X-56301067Y-23034537D01*
X-56301195Y-23037071D01*
X-56301356Y-23037062D01*
X-56301356Y-23037064D01*
X-56301380Y-23037061D01*
X-56301801Y-23037040D01*
X-56303586Y-23043117D01*
X-56302297Y-23052079D01*
X-56313276Y-23076119D01*
X-56320720Y-23101471D01*
X-56327561Y-23107398D01*
X-56331322Y-23115635D01*
X-56353557Y-23129924D01*
X-56373524Y-23147226D01*
X-56384039Y-23149513D01*
X-56390100Y-23153409D01*
X-56425035Y-23158432D01*
X-56451535Y-23158432D01*
X-56518574Y-23138747D01*
X-56564329Y-23085943D01*
X-56575535Y-23034432D01*
X-56575535Y-22993297D01*
X-56575536Y-22993282D01*
X-56578435Y-22956442D01*
X-56578436Y-22956436D01*
X-56624252Y-22798738D01*
X-56624253Y-22798735D01*
X-56707850Y-22657379D01*
X-56707857Y-22657370D01*
X-56823974Y-22541253D01*
X-56823985Y-22541244D01*
X-56875514Y-22510771D01*
X-56923198Y-22459703D01*
X-56935702Y-22390961D01*
X-56909057Y-22326371D01*
X-56851722Y-22286441D01*
X-56851398Y-22286333D01*
X-56706416Y-22238290D01*
X-56706411Y-22238288D01*
X-56557190Y-22146247D01*
X-56433218Y-22022275D01*
X-56392196Y-21955768D01*
X-56340248Y-21909043D01*
X-56271286Y-21897820D01*
X-56207204Y-21925663D01*
G37*
%TD.AperFunction*%
%TD*%
M02*
