%TF.GenerationSoftware,KiCad,Pcbnew,9.0.1*%
%TF.CreationDate,2025-04-21T23:58:07-04:00*%
%TF.ProjectId,BREAD_Slice,42524541-445f-4536-9c69-63652e6b6963,rev?*%
%TF.SameCoordinates,PX74eba40PY8552dc0*%
%TF.FileFunction,Copper,L1,Top*%
%TF.FilePolarity,Positive*%
%FSLAX46Y46*%
G04 Gerber Fmt 4.6, Leading zero omitted, Abs format (unit mm)*
G04 Created by KiCad (PCBNEW 9.0.1) date 2025-04-21 23:58:07*
%MOMM*%
%LPD*%
G01*
G04 APERTURE LIST*
G04 Aperture macros list*
%AMRoundRect*
0 Rectangle with rounded corners*
0 $1 Rounding radius*
0 $2 $3 $4 $5 $6 $7 $8 $9 X,Y pos of 4 corners*
0 Add a 4 corners polygon primitive as box body*
4,1,4,$2,$3,$4,$5,$6,$7,$8,$9,$2,$3,0*
0 Add four circle primitives for the rounded corners*
1,1,$1+$1,$2,$3*
1,1,$1+$1,$4,$5*
1,1,$1+$1,$6,$7*
1,1,$1+$1,$8,$9*
0 Add four rect primitives between the rounded corners*
20,1,$1+$1,$2,$3,$4,$5,0*
20,1,$1+$1,$4,$5,$6,$7,0*
20,1,$1+$1,$6,$7,$8,$9,0*
20,1,$1+$1,$8,$9,$2,$3,0*%
G04 Aperture macros list end*
%TA.AperFunction,EtchedComponent*%
%ADD10C,0.000000*%
%TD*%
%TA.AperFunction,ComponentPad*%
%ADD11R,1.700000X1.700000*%
%TD*%
%TA.AperFunction,ComponentPad*%
%ADD12O,1.700000X1.700000*%
%TD*%
%TA.AperFunction,ComponentPad*%
%ADD13R,1.530000X1.530000*%
%TD*%
%TA.AperFunction,ComponentPad*%
%ADD14C,1.530000*%
%TD*%
%TA.AperFunction,SMDPad,CuDef*%
%ADD15RoundRect,0.250000X-0.450000X0.350000X-0.450000X-0.350000X0.450000X-0.350000X0.450000X0.350000X0*%
%TD*%
%TA.AperFunction,SMDPad,CuDef*%
%ADD16RoundRect,0.250000X0.565685X0.070711X0.070711X0.565685X-0.565685X-0.070711X-0.070711X-0.565685X0*%
%TD*%
%TA.AperFunction,SMDPad,CuDef*%
%ADD17RoundRect,0.250000X-0.475000X0.337500X-0.475000X-0.337500X0.475000X-0.337500X0.475000X0.337500X0*%
%TD*%
%TA.AperFunction,SMDPad,CuDef*%
%ADD18RoundRect,0.237500X0.300000X0.237500X-0.300000X0.237500X-0.300000X-0.237500X0.300000X-0.237500X0*%
%TD*%
%TA.AperFunction,SMDPad,CuDef*%
%ADD19RoundRect,0.237500X-0.237500X0.300000X-0.237500X-0.300000X0.237500X-0.300000X0.237500X0.300000X0*%
%TD*%
%TA.AperFunction,SMDPad,CuDef*%
%ADD20RoundRect,0.250000X-0.337500X-0.475000X0.337500X-0.475000X0.337500X0.475000X-0.337500X0.475000X0*%
%TD*%
%TA.AperFunction,SMDPad,CuDef*%
%ADD21RoundRect,0.250000X-0.350000X-0.450000X0.350000X-0.450000X0.350000X0.450000X-0.350000X0.450000X0*%
%TD*%
%TA.AperFunction,SMDPad,CuDef*%
%ADD22RoundRect,0.250000X0.450000X-0.350000X0.450000X0.350000X-0.450000X0.350000X-0.450000X-0.350000X0*%
%TD*%
%TA.AperFunction,SMDPad,CuDef*%
%ADD23RoundRect,0.250000X0.350000X0.450000X-0.350000X0.450000X-0.350000X-0.450000X0.350000X-0.450000X0*%
%TD*%
%TA.AperFunction,SMDPad,CuDef*%
%ADD24RoundRect,0.250000X0.337500X0.475000X-0.337500X0.475000X-0.337500X-0.475000X0.337500X-0.475000X0*%
%TD*%
%TA.AperFunction,SMDPad,CuDef*%
%ADD25RoundRect,0.250000X0.650000X-0.412500X0.650000X0.412500X-0.650000X0.412500X-0.650000X-0.412500X0*%
%TD*%
%TA.AperFunction,SMDPad,CuDef*%
%ADD26R,1.574800X0.431800*%
%TD*%
%TA.AperFunction,SMDPad,CuDef*%
%ADD27R,1.570000X1.890000*%
%TD*%
%TA.AperFunction,SMDPad,CuDef*%
%ADD28RoundRect,1.000000X-5.000000X-5.000000X5.000000X-5.000000X5.000000X5.000000X-5.000000X5.000000X0*%
%TD*%
%TA.AperFunction,SMDPad,CuDef*%
%ADD29RoundRect,0.237500X-0.300000X-0.237500X0.300000X-0.237500X0.300000X0.237500X-0.300000X0.237500X0*%
%TD*%
%TA.AperFunction,ComponentPad*%
%ADD30C,1.800000*%
%TD*%
%TA.AperFunction,SMDPad,CuDef*%
%ADD31R,0.304800X1.066800*%
%TD*%
%TA.AperFunction,SMDPad,CuDef*%
%ADD32R,1.066800X0.304800*%
%TD*%
%TA.AperFunction,SMDPad,CuDef*%
%ADD33RoundRect,0.250000X0.475000X-0.337500X0.475000X0.337500X-0.475000X0.337500X-0.475000X-0.337500X0*%
%TD*%
%TA.AperFunction,SMDPad,CuDef*%
%ADD34RoundRect,0.150000X-0.150000X0.825000X-0.150000X-0.825000X0.150000X-0.825000X0.150000X0.825000X0*%
%TD*%
%TA.AperFunction,SMDPad,CuDef*%
%ADD35RoundRect,0.250000X0.070711X-0.565685X0.565685X-0.070711X-0.070711X0.565685X-0.565685X0.070711X0*%
%TD*%
%TA.AperFunction,SMDPad,CuDef*%
%ADD36R,1.000000X1.651000*%
%TD*%
%TA.AperFunction,SMDPad,CuDef*%
%ADD37RoundRect,0.250000X-0.070711X0.565685X-0.565685X0.070711X0.070711X-0.565685X0.565685X-0.070711X0*%
%TD*%
%TA.AperFunction,SMDPad,CuDef*%
%ADD38RoundRect,0.237500X0.237500X-0.300000X0.237500X0.300000X-0.237500X0.300000X-0.237500X-0.300000X0*%
%TD*%
%TA.AperFunction,SMDPad,CuDef*%
%ADD39R,0.800000X1.500000*%
%TD*%
%TA.AperFunction,SMDPad,CuDef*%
%ADD40RoundRect,0.362500X0.362500X0.637500X-0.362500X0.637500X-0.362500X-0.637500X0.362500X-0.637500X0*%
%TD*%
%TA.AperFunction,SMDPad,CuDef*%
%ADD41R,1.450000X0.300000*%
%TD*%
%TA.AperFunction,SMDPad,CuDef*%
%ADD42R,0.300000X1.450000*%
%TD*%
%TA.AperFunction,SMDPad,CuDef*%
%ADD43C,2.000000*%
%TD*%
%TA.AperFunction,SMDPad,CuDef*%
%ADD44RoundRect,0.250000X-0.565685X-0.070711X-0.070711X-0.565685X0.565685X0.070711X0.070711X0.565685X0*%
%TD*%
%TA.AperFunction,SMDPad,CuDef*%
%ADD45RoundRect,0.250000X0.574524X0.097227X0.097227X0.574524X-0.574524X-0.097227X-0.097227X-0.574524X0*%
%TD*%
%TA.AperFunction,SMDPad,CuDef*%
%ADD46RoundRect,0.250000X-0.650000X0.412500X-0.650000X-0.412500X0.650000X-0.412500X0.650000X0.412500X0*%
%TD*%
%TA.AperFunction,SMDPad,CuDef*%
%ADD47RoundRect,0.250000X-0.412500X-0.650000X0.412500X-0.650000X0.412500X0.650000X-0.412500X0.650000X0*%
%TD*%
%TA.AperFunction,SMDPad,CuDef*%
%ADD48RoundRect,0.250000X-0.097227X0.574524X-0.574524X0.097227X0.097227X-0.574524X0.574524X-0.097227X0*%
%TD*%
%TA.AperFunction,ViaPad*%
%ADD49C,1.500000*%
%TD*%
%TA.AperFunction,ViaPad*%
%ADD50C,0.800000*%
%TD*%
%TA.AperFunction,ViaPad*%
%ADD51C,1.600000*%
%TD*%
%TA.AperFunction,ViaPad*%
%ADD52C,0.600000*%
%TD*%
%TA.AperFunction,ViaPad*%
%ADD53C,1.000000*%
%TD*%
%TA.AperFunction,Conductor*%
%ADD54C,0.400000*%
%TD*%
%TA.AperFunction,Conductor*%
%ADD55C,1.500000*%
%TD*%
%TA.AperFunction,Conductor*%
%ADD56C,1.000000*%
%TD*%
%TA.AperFunction,Conductor*%
%ADD57C,0.250000*%
%TD*%
%TA.AperFunction,Conductor*%
%ADD58C,0.200000*%
%TD*%
%TA.AperFunction,Conductor*%
%ADD59C,0.500000*%
%TD*%
%TA.AperFunction,Conductor*%
%ADD60C,1.600000*%
%TD*%
G04 APERTURE END LIST*
D10*
%TA.AperFunction,EtchedComponent*%
%TO.C,NT3*%
G36*
X-47125000Y21350000D02*
G01*
X-51125000Y21350000D01*
X-51125000Y23350000D01*
X-47125000Y23350000D01*
X-47125000Y21350000D01*
G37*
%TD.AperFunction*%
%TA.AperFunction,EtchedComponent*%
%TO.C,NT2*%
G36*
X-47125000Y29175000D02*
G01*
X-51125000Y29175000D01*
X-51125000Y31175000D01*
X-47125000Y31175000D01*
X-47125000Y29175000D01*
G37*
%TD.AperFunction*%
%TD*%
D11*
%TO.P,J1,1,Pin_1*%
%TO.N,GNDPWR*%
X-61425535Y20246068D03*
D12*
%TO.P,J1,2,Pin_2*%
%TO.N,+12V*%
X-61425535Y17706068D03*
%TO.P,J1,3,Pin_3*%
%TO.N,/I2C_CLK*%
X-61425535Y15166068D03*
%TO.P,J1,4,Pin_4*%
%TO.N,/I2C_DAT*%
X-61425535Y12626068D03*
%TO.P,J1,5,Pin_5*%
%TO.N,GNDPWR*%
X-61425535Y10086068D03*
%TO.P,J1,6,Pin_6*%
%TO.N,/ESTOP*%
X-61425535Y7546068D03*
%TO.P,J1,7,Pin_7*%
%TO.N,/INT*%
X-61425535Y5006068D03*
%TO.P,J1,8,Pin_8*%
%TO.N,/SYNC*%
X-61425535Y2466068D03*
%TO.P,J1,9,Pin_9*%
%TO.N,+12V*%
X-61425535Y-73932D03*
%TO.P,J1,10,Pin_10*%
%TO.N,GNDPWR*%
X-61425535Y-2613932D03*
%TD*%
D13*
%TO.P,U2,CN3_1,PA9*%
%TO.N,unconnected-(U2A-PA9-PadCN3_1)*%
X-45130000Y710000D03*
D14*
%TO.P,U2,CN3_2,PA10*%
%TO.N,unconnected-(U2A-PA10-PadCN3_2)*%
X-45130000Y-1830000D03*
%TO.P,U2,CN3_3*%
%TO.N,N/C*%
X-45130000Y-4370000D03*
%TO.P,U2,CN3_4,GND_CN3*%
%TO.N,GNDD*%
X-45130000Y-6910000D03*
%TO.P,U2,CN3_5,PA12*%
%TO.N,/ESTOP*%
X-45130000Y-9450000D03*
%TO.P,U2,CN3_6,PB0*%
%TO.N,/INT*%
X-45130000Y-11990000D03*
%TO.P,U2,CN3_7,PB7*%
%TO.N,/SYNC*%
X-45130000Y-14530000D03*
%TO.P,U2,CN3_8,PB6*%
%TO.N,/LED*%
X-45130000Y-17070000D03*
%TO.P,U2,CN3_9,PB1*%
%TO.N,/ADC_CS*%
X-45130000Y-19610000D03*
%TO.P,U2,CN3_10,PC14*%
%TO.N,/RST_ADC*%
X-45130000Y-22150000D03*
%TO.P,U2,CN3_11,PC15*%
%TO.N,/DRDY*%
X-45130000Y-24690000D03*
%TO.P,U2,CN3_12,PA8*%
%TO.N,/CLK_MCO*%
X-45130000Y-27230000D03*
%TO.P,U2,CN3_13,PA11*%
%TO.N,/SD_CS*%
X-45130000Y-29770000D03*
%TO.P,U2,CN3_14,PB5*%
%TO.N,/MOSI*%
X-45130000Y-32310000D03*
%TO.P,U2,CN3_15,PB4*%
%TO.N,/MISO*%
X-45130000Y-34850000D03*
D13*
%TO.P,U2,CN4_1,VIN*%
%TO.N,unconnected-(U2B-VIN-PadCN4_1)*%
X-29890000Y710000D03*
D14*
%TO.P,U2,CN4_2,GND_CN4*%
%TO.N,GNDD*%
X-29890000Y-1830000D03*
%TO.P,U2,CN4_3,NRST_CN4*%
%TO.N,unconnected-(U2B-NRST_CN4-PadCN4_3)*%
X-29890000Y-4370000D03*
%TO.P,U2,CN4_4,+5V*%
%TO.N,+5VD*%
X-29890000Y-6910000D03*
%TO.P,U2,CN4_5,PA2*%
%TO.N,unconnected-(U2B-PA2-PadCN4_5)*%
X-29890000Y-9450000D03*
%TO.P,U2,CN4_6,PA7*%
%TO.N,unconnected-(U2B-PA7-PadCN4_6)*%
X-29890000Y-11990000D03*
%TO.P,U2,CN4_7,PA6*%
%TO.N,/I2C_CLK*%
X-29890000Y-14530000D03*
%TO.P,U2,CN4_8,PA5*%
%TO.N,/I2C_DAT*%
X-29890000Y-17070000D03*
%TO.P,U2,CN4_9,PA4*%
%TO.N,unconnected-(U2B-PA4-PadCN4_9)*%
X-29890000Y-19610000D03*
%TO.P,U2,CN4_10,PA3*%
%TO.N,unconnected-(U2B-PA3-PadCN4_10)*%
X-29890000Y-22150000D03*
%TO.P,U2,CN4_11,PA1*%
%TO.N,/VADC_SENS*%
X-29890000Y-24690000D03*
%TO.P,U2,CN4_12,PA0*%
%TO.N,/VMID_SENS*%
X-29890000Y-27230000D03*
%TO.P,U2,CN4_13,AREF*%
%TO.N,unconnected-(U2B-AREF-PadCN4_13)*%
X-29890000Y-29770000D03*
%TO.P,U2,CN4_14,+3V3*%
%TO.N,+3V3*%
X-29890000Y-32310000D03*
%TO.P,U2,CN4_15,PB3*%
%TO.N,/SCK*%
X-29890000Y-34850000D03*
%TD*%
D15*
%TO.P,R24,1*%
%TO.N,Net-(R24-Pad1)*%
X-39507400Y30670399D03*
%TO.P,R24,2*%
%TO.N,VAA*%
X-39507400Y28670399D03*
%TD*%
D16*
%TO.P,Rg3,1*%
%TO.N,Net-(Rg3-Pad1)*%
X10214214Y-8614214D03*
%TO.P,Rg3,2*%
%TO.N,Net-(Rg3-Pad2)*%
X8800000Y-7200000D03*
%TD*%
D17*
%TO.P,C9,1*%
%TO.N,/IN4-*%
X-4860600Y16930300D03*
%TO.P,C9,2*%
%TO.N,/IN4+*%
X-4860600Y14855300D03*
%TD*%
D18*
%TO.P,C16,1*%
%TO.N,VAA*%
X7075000Y-13792200D03*
%TO.P,C16,2*%
%TO.N,GNDA*%
X5350000Y-13792200D03*
%TD*%
D19*
%TO.P,C19,1*%
%TO.N,VAA*%
X11452500Y-21350000D03*
%TO.P,C19,2*%
%TO.N,GNDA*%
X11452500Y-23075000D03*
%TD*%
D15*
%TO.P,R29,1*%
%TO.N,Net-(U9-FB)*%
X-39875000Y19700000D03*
%TO.P,R29,2*%
%TO.N,Net-(R28-Pad1)*%
X-39875000Y17700000D03*
%TD*%
D20*
%TO.P,C6,1*%
%TO.N,/IN1-*%
X-10875000Y7000000D03*
%TO.P,C6,2*%
%TO.N,/IN1+*%
X-8800000Y7000000D03*
%TD*%
D21*
%TO.P,R8,1*%
%TO.N,/IN3-*%
X-2900000Y10775000D03*
%TO.P,R8,2*%
%TO.N,GNDA*%
X-900000Y10775000D03*
%TD*%
D22*
%TO.P,R14,1*%
%TO.N,/IN6-*%
X-10900000Y22500000D03*
%TO.P,R14,2*%
%TO.N,GNDA*%
X-10900000Y24500000D03*
%TD*%
D21*
%TO.P,R10,1*%
%TO.N,/IN4-*%
X-2860600Y17075000D03*
%TO.P,R10,2*%
%TO.N,GNDA*%
X-860600Y17075000D03*
%TD*%
D15*
%TO.P,R27,1*%
%TO.N,GNDA*%
X-42807400Y38470399D03*
%TO.P,R27,2*%
%TO.N,/TPS7A4901-VAA/FB*%
X-42807400Y36470399D03*
%TD*%
D23*
%TO.P,Rg6,1*%
%TO.N,Net-(Rg6-Pad1)*%
X7600000Y40600000D03*
%TO.P,Rg6,2*%
%TO.N,Net-(Rg6-Pad2)*%
X5600000Y40600000D03*
%TD*%
D22*
%TO.P,R13,1*%
%TO.N,/IN6+*%
X-8825000Y22500000D03*
%TO.P,R13,2*%
%TO.N,/OUT6*%
X-8825000Y24500000D03*
%TD*%
%TO.P,Rg2,1*%
%TO.N,Net-(Rg2-Pad1)*%
X7525000Y-17650000D03*
%TO.P,Rg2,2*%
%TO.N,Net-(Rg2-Pad2)*%
X7525000Y-15650000D03*
%TD*%
D15*
%TO.P,R23,1*%
%TO.N,/TPS7A4901-VAA/FB*%
X-37307400Y38470399D03*
%TO.P,R23,2*%
%TO.N,Net-(R22-Pad1)*%
X-37307400Y36470399D03*
%TD*%
D24*
%TO.P,C5,1*%
%TO.N,/IN0-*%
X-13150000Y7000000D03*
%TO.P,C5,2*%
%TO.N,/IN0+*%
X-15225000Y7000000D03*
%TD*%
D25*
%TO.P,C35,1*%
%TO.N,GNDA*%
X-42807400Y27445399D03*
%TO.P,C35,2*%
%TO.N,VAA*%
X-42807400Y30570399D03*
%TD*%
D22*
%TO.P,R16,1*%
%TO.N,/IN7-*%
X-13125000Y22525000D03*
%TO.P,R16,2*%
%TO.N,GNDA*%
X-13125000Y24525000D03*
%TD*%
D15*
%TO.P,R2,1*%
%TO.N,/IN0-*%
X-13125000Y4975000D03*
%TO.P,R2,2*%
%TO.N,GNDA*%
X-13125000Y2975000D03*
%TD*%
D22*
%TO.P,Rg1,1*%
%TO.N,Net-(Rg1-Pad1)*%
X5484700Y-17646053D03*
%TO.P,Rg1,2*%
%TO.N,Net-(Rg1-Pad2)*%
X5484700Y-15646053D03*
%TD*%
D21*
%TO.P,R9,1*%
%TO.N,/IN4+*%
X-2885600Y14975000D03*
%TO.P,R9,2*%
%TO.N,/OUT4*%
X-885600Y14975000D03*
%TD*%
D26*
%TO.P,U9,1,OUT*%
%TO.N,+3.3VADC*%
X-45904500Y18075001D03*
%TO.P,U9,2,FB*%
%TO.N,Net-(U9-FB)*%
X-45904500Y18724999D03*
%TO.P,U9,3,NC*%
%TO.N,GNDA*%
X-45904500Y19375001D03*
%TO.P,U9,4,GND*%
X-45904500Y20024999D03*
%TO.P,U9,5,EN*%
%TO.N,+12V*%
X-50095500Y20024999D03*
%TO.P,U9,6,NR/SS*%
%TO.N,Net-(U9-NR{slash}SS)*%
X-50095500Y19375001D03*
%TO.P,U9,7,DNC*%
%TO.N,unconnected-(U9-DNC-Pad7)*%
X-50095500Y18724999D03*
%TO.P,U9,8,IN*%
%TO.N,+12V*%
X-50095500Y18075001D03*
D27*
%TO.P,U9,EPAD,EPAD*%
%TO.N,GNDA*%
X-48000000Y19050000D03*
%TD*%
D19*
%TO.P,C25,1*%
%TO.N,VAA*%
X5675000Y33402500D03*
%TO.P,C25,2*%
%TO.N,GNDA*%
X5675000Y31677500D03*
%TD*%
D21*
%TO.P,Rg7,1*%
%TO.N,Net-(Rg7-Pad1)*%
X-3900000Y34500000D03*
%TO.P,Rg7,2*%
%TO.N,Net-(Rg7-Pad2)*%
X-1900000Y34500000D03*
%TD*%
D28*
%TO.P,HS1,1*%
%TO.N,GNDD*%
X-55825535Y-22853932D03*
%TD*%
D29*
%TO.P,C26,1*%
%TO.N,VAA*%
X12562500Y35615000D03*
%TO.P,C26,2*%
%TO.N,GNDA*%
X14287500Y35615000D03*
%TD*%
%TO.P,C20,1*%
%TO.N,VAA*%
X13175000Y-3200000D03*
%TO.P,C20,2*%
%TO.N,GNDA*%
X14900000Y-3200000D03*
%TD*%
D30*
%TO.P,J6,1,1*%
%TO.N,/LC0_SIG+*%
X3880000Y-28915000D03*
%TO.P,J6,2,2*%
%TO.N,/LC0_SIG-*%
X340000Y-28915000D03*
%TO.P,J6,3,3*%
%TO.N,GNDA*%
X340000Y-31455000D03*
%TO.P,J6,4,4*%
%TO.N,VAA*%
X3880000Y-31455000D03*
%TO.P,J6,5,5*%
%TO.N,GNDA*%
X2110000Y-26375000D03*
%TO.P,J6,6,6*%
X2110000Y-34185000D03*
%TD*%
D31*
%TO.P,U6,1,-IN1*%
%TO.N,/LC4_SIG-*%
X7675001Y34884700D03*
%TO.P,U6,2,RG1*%
%TO.N,Net-(Rg5-Pad2)*%
X8324999Y34884700D03*
%TO.P,U6,3,RG1*%
%TO.N,Net-(Rg5-Pad1)*%
X8975001Y34884700D03*
%TO.P,U6,4,+IN1*%
%TO.N,/LC4_SIG+*%
X9624999Y34884700D03*
D32*
%TO.P,U6,5,+VS*%
%TO.N,VAA*%
X10415300Y35675001D03*
%TO.P,U6,6,REF1*%
%TO.N,/VMID*%
X10415300Y36324999D03*
%TO.P,U6,7,REF2*%
X10415300Y36975001D03*
%TO.P,U6,8,-VS*%
%TO.N,GNDA*%
X10415300Y37624999D03*
D31*
%TO.P,U6,9,+IN2*%
%TO.N,/LC5_SIG+*%
X9624999Y38415300D03*
%TO.P,U6,10,RG2*%
%TO.N,Net-(Rg6-Pad1)*%
X8975001Y38415300D03*
%TO.P,U6,11,RG2*%
%TO.N,Net-(Rg6-Pad2)*%
X8324999Y38415300D03*
%TO.P,U6,12,-IN2*%
%TO.N,/LC5_SIG-*%
X7675001Y38415300D03*
D32*
%TO.P,U6,13,-VS*%
%TO.N,GNDA*%
X6884700Y37624999D03*
%TO.P,U6,14,OUT2*%
%TO.N,/OUT5*%
X6884700Y36975001D03*
%TO.P,U6,15,OUT1*%
%TO.N,/OUT4*%
X6884700Y36324999D03*
%TO.P,U6,16,+VS*%
%TO.N,VAA*%
X6884700Y35675001D03*
%TD*%
D23*
%TO.P,R20,1*%
%TO.N,Net-(U3B--)*%
X-56425000Y28825000D03*
%TO.P,R20,2*%
%TO.N,/VADC_SENS*%
X-58425000Y28825000D03*
%TD*%
D30*
%TO.P,J8,1,1*%
%TO.N,/LC4_SIG+*%
X20905000Y33045000D03*
%TO.P,J8,2,2*%
%TO.N,/LC4_SIG-*%
X20905000Y29505000D03*
%TO.P,J8,3,3*%
%TO.N,GNDA*%
X23445000Y29505000D03*
%TO.P,J8,4,4*%
%TO.N,VAA*%
X23445000Y33045000D03*
%TO.P,J8,5,5*%
%TO.N,GNDA*%
X18365000Y31275000D03*
%TO.P,J8,6,6*%
X26175000Y31275000D03*
%TD*%
D33*
%TO.P,C8,1*%
%TO.N,/IN3-*%
X-4875000Y10825000D03*
%TO.P,C8,2*%
%TO.N,/IN3+*%
X-4875000Y12900000D03*
%TD*%
D34*
%TO.P,U3,1*%
%TO.N,/VMID*%
X-55520000Y36900000D03*
%TO.P,U3,2,-*%
X-56790000Y36900000D03*
%TO.P,U3,3,+*%
%TO.N,Net-(U3A-+)*%
X-58060000Y36900000D03*
%TO.P,U3,4,V-*%
%TO.N,GNDD*%
X-59330000Y36900000D03*
%TO.P,U3,5,+*%
%TO.N,+3.3VADC*%
X-59330000Y31950000D03*
%TO.P,U3,6,-*%
%TO.N,Net-(U3B--)*%
X-58060000Y31950000D03*
%TO.P,U3,7*%
X-56790000Y31950000D03*
%TO.P,U3,8,V+*%
%TO.N,+5VD*%
X-55520000Y31950000D03*
%TD*%
D35*
%TO.P,R11,1*%
%TO.N,/IN5+*%
X-5275000Y22025000D03*
%TO.P,R11,2*%
%TO.N,/OUT5*%
X-3860786Y23439214D03*
%TD*%
D36*
%TO.P,D1,1,VDD*%
%TO.N,+5VD*%
X-52509375Y-39352000D03*
%TO.P,D1,2,DOUT*%
%TO.N,unconnected-(D1-DOUT-Pad2)*%
X-49309375Y-39352000D03*
%TO.P,D1,3,VSS*%
%TO.N,GNDD*%
X-49309375Y-34198000D03*
%TO.P,D1,4,DIN*%
%TO.N,/LED*%
X-52509375Y-34198000D03*
%TD*%
D23*
%TO.P,R17,1*%
%TO.N,VAA*%
X-57300000Y40000000D03*
%TO.P,R17,2*%
%TO.N,Net-(U3A-+)*%
X-59300000Y40000000D03*
%TD*%
D19*
%TO.P,C23,1*%
%TO.N,VAA*%
X6500000Y-5496448D03*
%TO.P,C23,2*%
%TO.N,GNDA*%
X6500000Y-7221448D03*
%TD*%
D30*
%TO.P,J3,1,1*%
%TO.N,/LC3_SIG-*%
X20930000Y10970000D03*
%TO.P,J3,2,2*%
%TO.N,/LC3_SIG+*%
X20930000Y7430000D03*
%TO.P,J3,3,3*%
%TO.N,VAA*%
X23470000Y7430000D03*
%TO.P,J3,4,4*%
%TO.N,GNDA*%
X23470000Y10970000D03*
%TO.P,J3,5,5*%
X18390000Y9200000D03*
%TO.P,J3,6,6*%
X26200000Y9200000D03*
%TD*%
D15*
%TO.P,R22,1*%
%TO.N,Net-(R22-Pad1)*%
X-37307400Y34570399D03*
%TO.P,R22,2*%
%TO.N,Net-(R21-Pad1)*%
X-37307400Y32570399D03*
%TD*%
D32*
%TO.P,U4,1,-IN1*%
%TO.N,/LC0_SIG-*%
X10822200Y-16487501D03*
%TO.P,U4,2,RG1*%
%TO.N,Net-(Rg1-Pad2)*%
X10822200Y-17137499D03*
%TO.P,U4,3,RG1*%
%TO.N,Net-(Rg1-Pad1)*%
X10822200Y-17787501D03*
%TO.P,U4,4,+IN1*%
%TO.N,/LC0_SIG+*%
X10822200Y-18437499D03*
D31*
%TO.P,U4,5,+VS*%
%TO.N,VAA*%
X11612501Y-19227800D03*
%TO.P,U4,6,REF1*%
%TO.N,/VMID*%
X12262499Y-19227800D03*
%TO.P,U4,7,REF2*%
X12912501Y-19227800D03*
%TO.P,U4,8,-VS*%
%TO.N,GNDA*%
X13562499Y-19227800D03*
D32*
%TO.P,U4,9,+IN2*%
%TO.N,/LC1_SIG+*%
X14352800Y-18437499D03*
%TO.P,U4,10,RG2*%
%TO.N,Net-(Rg2-Pad1)*%
X14352800Y-17787501D03*
%TO.P,U4,11,RG2*%
%TO.N,Net-(Rg2-Pad2)*%
X14352800Y-17137499D03*
%TO.P,U4,12,-IN2*%
%TO.N,/LC1_SIG-*%
X14352800Y-16487501D03*
D31*
%TO.P,U4,13,-VS*%
%TO.N,GNDA*%
X13562499Y-15697200D03*
%TO.P,U4,14,OUT2*%
%TO.N,/OUT1*%
X12912501Y-15697200D03*
%TO.P,U4,15,OUT1*%
%TO.N,/OUT0*%
X12262499Y-15697200D03*
%TO.P,U4,16,+VS*%
%TO.N,VAA*%
X11612501Y-15697200D03*
%TD*%
D37*
%TO.P,Rg4,1*%
%TO.N,Net-(Rg4-Pad1)*%
X10114213Y4514214D03*
%TO.P,Rg4,2*%
%TO.N,Net-(Rg4-Pad2)*%
X8699999Y3100000D03*
%TD*%
D38*
%TO.P,C31,1*%
%TO.N,VAA*%
X-8525000Y38937500D03*
%TO.P,C31,2*%
%TO.N,GNDA*%
X-8525000Y40662500D03*
%TD*%
%TO.P,C37,1*%
%TO.N,GNDPWR*%
X-50150000Y14537500D03*
%TO.P,C37,2*%
%TO.N,Net-(U9-NR{slash}SS)*%
X-50150000Y16262500D03*
%TD*%
D30*
%TO.P,J2,1,1*%
%TO.N,/LC1_SIG-*%
X25945000Y-28930000D03*
%TO.P,J2,2,2*%
%TO.N,/LC1_SIG+*%
X22405000Y-28930000D03*
%TO.P,J2,3,3*%
%TO.N,VAA*%
X22405000Y-31470000D03*
%TO.P,J2,4,4*%
%TO.N,GNDA*%
X25945000Y-31470000D03*
%TO.P,J2,5,5*%
X24175000Y-26390000D03*
%TO.P,J2,6,6*%
X24175000Y-34200000D03*
%TD*%
D22*
%TO.P,R18,1*%
%TO.N,Net-(U3A-+)*%
X-61450000Y39875000D03*
%TO.P,R18,2*%
%TO.N,GNDA*%
X-61450000Y41875000D03*
%TD*%
D21*
%TO.P,Rg8,1*%
%TO.N,Net-(Rg8-Pad1)*%
X-17600000Y34400000D03*
%TO.P,Rg8,2*%
%TO.N,Net-(Rg8-Pad2)*%
X-15600000Y34400000D03*
%TD*%
D39*
%TO.P,J10,1,DAT2*%
%TO.N,unconnected-(J10-DAT2-Pad1)*%
X-15170000Y-35375000D03*
%TO.P,J10,2,DAT3/CD*%
%TO.N,/SD_CS*%
X-16270000Y-35375000D03*
%TO.P,J10,3,CMD*%
%TO.N,/MOSI*%
X-17370000Y-35375000D03*
%TO.P,J10,4,VDD*%
%TO.N,+3V3*%
X-18470000Y-35375000D03*
%TO.P,J10,5,CLK*%
%TO.N,/SCK*%
X-19570000Y-35375000D03*
%TO.P,J10,6,VSS*%
%TO.N,GNDD*%
X-20670000Y-35375000D03*
%TO.P,J10,7,DAT0*%
%TO.N,/MISO*%
X-21770000Y-35375000D03*
%TO.P,J10,8,DAT1*%
%TO.N,unconnected-(J10-DAT1-Pad8)*%
X-22870000Y-35375000D03*
D40*
%TO.P,J10,9,SHIELD*%
%TO.N,GNDD*%
X-11500000Y-37975000D03*
X-11500000Y-29675000D03*
X-25250000Y-37975000D03*
X-25250000Y-29675000D03*
%TD*%
D25*
%TO.P,C39,1*%
%TO.N,GNDA*%
X-42775000Y14150000D03*
%TO.P,C39,2*%
%TO.N,+3.3VADC*%
X-42775000Y17275000D03*
%TD*%
D35*
%TO.P,R12,1*%
%TO.N,/IN5-*%
X-3857107Y20617893D03*
%TO.P,R12,2*%
%TO.N,GNDA*%
X-2442893Y22032107D03*
%TD*%
D19*
%TO.P,C34,1*%
%TO.N,/TPS7A4901-VAA/FB*%
X-42807400Y34295399D03*
%TO.P,C34,2*%
%TO.N,VAA*%
X-42807400Y32570399D03*
%TD*%
D41*
%TO.P,IC1,1,AIN2P*%
%TO.N,/IN2+*%
X-8250000Y12150000D03*
%TO.P,IC1,2,AIN2N*%
%TO.N,/IN2-*%
X-8250000Y12650000D03*
%TO.P,IC1,3,AIN3N*%
%TO.N,/IN3-*%
X-8250000Y13150000D03*
%TO.P,IC1,4,AIN3P*%
%TO.N,/IN3+*%
X-8250000Y13650000D03*
%TO.P,IC1,5,AIN4P*%
%TO.N,/IN4+*%
X-8250000Y14150000D03*
%TO.P,IC1,6,AIN4N*%
%TO.N,/IN4-*%
X-8250000Y14650000D03*
%TO.P,IC1,7,AIN5N*%
%TO.N,/IN5-*%
X-8250000Y15150000D03*
%TO.P,IC1,8,AIN5P*%
%TO.N,/IN5+*%
X-8250000Y15650000D03*
D42*
%TO.P,IC1,9,AIN6P*%
%TO.N,/IN6+*%
X-9725000Y17125000D03*
%TO.P,IC1,10,AIN6N*%
%TO.N,/IN6-*%
X-10225000Y17125000D03*
%TO.P,IC1,11,AIN7N*%
%TO.N,/IN7-*%
X-10725000Y17125000D03*
%TO.P,IC1,12,AIN7P*%
%TO.N,/IN7+*%
X-11225000Y17125000D03*
%TO.P,IC1,13,AGND_1*%
%TO.N,GNDA*%
X-11725000Y17125000D03*
%TO.P,IC1,14,REFIN*%
X-12225000Y17125000D03*
%TO.P,IC1,15,AVDD*%
%TO.N,+3.3VADC*%
X-12725000Y17125000D03*
%TO.P,IC1,16,~{SYNC}/~{RESET}*%
%TO.N,/RST_ADC*%
X-13225000Y17125000D03*
D41*
%TO.P,IC1,17,~{CS}*%
%TO.N,/ADC_CS*%
X-14700000Y15650000D03*
%TO.P,IC1,18,~{DRDY}*%
%TO.N,/DRDY*%
X-14700000Y15150000D03*
%TO.P,IC1,19,SCLK*%
%TO.N,/SCK*%
X-14700000Y14650000D03*
%TO.P,IC1,20,DOUT*%
%TO.N,/MISO*%
X-14700000Y14150000D03*
%TO.P,IC1,21,DIN*%
%TO.N,/MOSI*%
X-14700000Y13650000D03*
%TO.P,IC1,22,XTAL2*%
%TO.N,unconnected-(IC1-XTAL2-Pad22)*%
X-14700000Y13150000D03*
%TO.P,IC1,23,XTAL1/CLKIN*%
%TO.N,/CLK_MCO*%
X-14700000Y12650000D03*
%TO.P,IC1,24,CAP*%
%TO.N,Net-(IC1-CAP)*%
X-14700000Y12150000D03*
D42*
%TO.P,IC1,25,DGND*%
%TO.N,GNDD*%
X-13225000Y10675000D03*
%TO.P,IC1,26,DVDD*%
%TO.N,+3V3*%
X-12725000Y10675000D03*
%TO.P,IC1,27,NC*%
%TO.N,unconnected-(IC1-NC-Pad27)*%
X-12225000Y10675000D03*
%TO.P,IC1,28,AGND_2*%
%TO.N,GNDA*%
X-11725000Y10675000D03*
%TO.P,IC1,29,AIN0P*%
%TO.N,/IN0+*%
X-11225000Y10675000D03*
%TO.P,IC1,30,AIN0N*%
%TO.N,/IN0-*%
X-10725000Y10675000D03*
%TO.P,IC1,31,AIN1N*%
%TO.N,/IN1-*%
X-10225000Y10675000D03*
%TO.P,IC1,32,AIN1P*%
%TO.N,/IN1+*%
X-9725000Y10675000D03*
%TD*%
D24*
%TO.P,C12,1*%
%TO.N,/IN7-*%
X-13210600Y20492800D03*
%TO.P,C12,2*%
%TO.N,/IN7+*%
X-15285600Y20492800D03*
%TD*%
D43*
%TO.P,NT3,1,1*%
%TO.N,GNDPWR*%
X-51125000Y22350000D03*
%TO.P,NT3,2,2*%
%TO.N,GNDA*%
X-47125000Y22350000D03*
%TD*%
D29*
%TO.P,C30,1*%
%TO.N,VAA*%
X-5837500Y30507800D03*
%TO.P,C30,2*%
%TO.N,GNDA*%
X-4112500Y30507800D03*
%TD*%
D44*
%TO.P,R6,1*%
%TO.N,/IN2-*%
X-3700000Y7200000D03*
%TO.P,R6,2*%
%TO.N,GNDA*%
X-2285786Y5785786D03*
%TD*%
D38*
%TO.P,C28,1*%
%TO.N,VAA*%
X-10475000Y38937500D03*
%TO.P,C28,2*%
%TO.N,GNDA*%
X-10475000Y40662500D03*
%TD*%
D15*
%TO.P,R3,1*%
%TO.N,/IN1+*%
X-8775000Y4975000D03*
%TO.P,R3,2*%
%TO.N,/OUT1*%
X-8775000Y2975000D03*
%TD*%
%TO.P,R26,1*%
%TO.N,/TPS7A4901-VAA/FB*%
X-39507400Y38470399D03*
%TO.P,R26,2*%
%TO.N,Net-(R25-Pad1)*%
X-39507400Y36470399D03*
%TD*%
D45*
%TO.P,C10,1*%
%TO.N,/IN5-*%
X-5185600Y19117800D03*
%TO.P,C10,2*%
%TO.N,/IN5+*%
X-6652846Y20585046D03*
%TD*%
D15*
%TO.P,R19,1*%
%TO.N,/VMID*%
X-61500000Y33575000D03*
%TO.P,R19,2*%
%TO.N,/VMID_SENS*%
X-61500000Y31575000D03*
%TD*%
D46*
%TO.P,C32,1*%
%TO.N,GNDPWR*%
X-50700000Y39562500D03*
%TO.P,C32,2*%
%TO.N,+12V*%
X-50700000Y36437500D03*
%TD*%
D15*
%TO.P,R1,1*%
%TO.N,/IN0+*%
X-15250000Y4975000D03*
%TO.P,R1,2*%
%TO.N,/OUT0*%
X-15250000Y2975000D03*
%TD*%
%TO.P,R30,1*%
%TO.N,GNDA*%
X-39875000Y23500000D03*
%TO.P,R30,2*%
%TO.N,Net-(U9-FB)*%
X-39875000Y21500000D03*
%TD*%
D19*
%TO.P,C38,1*%
%TO.N,Net-(U9-FB)*%
X-43175000Y20987500D03*
%TO.P,C38,2*%
%TO.N,+3.3VADC*%
X-43175000Y19262500D03*
%TD*%
D20*
%TO.P,C11,1*%
%TO.N,/IN6-*%
X-10910600Y20492800D03*
%TO.P,C11,2*%
%TO.N,/IN6+*%
X-8835600Y20492800D03*
%TD*%
D19*
%TO.P,C21,1*%
%TO.N,VAA*%
X4807800Y-5496448D03*
%TO.P,C21,2*%
%TO.N,GNDA*%
X4807800Y-7221448D03*
%TD*%
D15*
%TO.P,R21,1*%
%TO.N,Net-(R21-Pad1)*%
X-37307400Y30670399D03*
%TO.P,R21,2*%
%TO.N,VAA*%
X-37307400Y28670399D03*
%TD*%
D30*
%TO.P,J4,1,1*%
%TO.N,/LC5_SIG-*%
X21430000Y46455000D03*
%TO.P,J4,2,2*%
%TO.N,/LC5_SIG+*%
X24970000Y46455000D03*
%TO.P,J4,3,3*%
%TO.N,VAA*%
X24970000Y48995000D03*
%TO.P,J4,4,4*%
%TO.N,GNDA*%
X21430000Y48995000D03*
%TO.P,J4,5,5*%
X23200000Y43915000D03*
%TO.P,J4,6,6*%
X23200000Y51725000D03*
%TD*%
D29*
%TO.P,C29,1*%
%TO.N,VAA*%
X-5837500Y32200000D03*
%TO.P,C29,2*%
%TO.N,GNDA*%
X-4112500Y32200000D03*
%TD*%
D22*
%TO.P,R15,1*%
%TO.N,/IN7+*%
X-15250000Y22525000D03*
%TO.P,R15,2*%
%TO.N,/OUT7*%
X-15250000Y24525000D03*
%TD*%
D15*
%TO.P,R25,1*%
%TO.N,Net-(R25-Pad1)*%
X-39507400Y34570399D03*
%TO.P,R25,2*%
%TO.N,Net-(R24-Pad1)*%
X-39507400Y32570399D03*
%TD*%
D29*
%TO.P,C22,1*%
%TO.N,VAA*%
X13182400Y-1150000D03*
%TO.P,C22,2*%
%TO.N,GNDA*%
X14907400Y-1150000D03*
%TD*%
D19*
%TO.P,C24,1*%
%TO.N,VAA*%
X3982800Y33402500D03*
%TO.P,C24,2*%
%TO.N,GNDA*%
X3982800Y31677500D03*
%TD*%
D47*
%TO.P,C15,1*%
%TO.N,GNDD*%
X-20487500Y11775000D03*
%TO.P,C15,2*%
%TO.N,Net-(IC1-CAP)*%
X-17362500Y11775000D03*
%TD*%
D30*
%TO.P,J7,1,1*%
%TO.N,/LC2_SIG+*%
X20930000Y-11105000D03*
%TO.P,J7,2,2*%
%TO.N,/LC2_SIG-*%
X20930000Y-14645000D03*
%TO.P,J7,3,3*%
%TO.N,GNDA*%
X23470000Y-14645000D03*
%TO.P,J7,4,4*%
%TO.N,VAA*%
X23470000Y-11105000D03*
%TO.P,J7,5,5*%
%TO.N,GNDA*%
X18390000Y-12875000D03*
%TO.P,J7,6,6*%
X26200000Y-12875000D03*
%TD*%
D15*
%TO.P,Rg5,1*%
%TO.N,Net-(Rg5-Pad1)*%
X9500000Y31400000D03*
%TO.P,Rg5,2*%
%TO.N,Net-(Rg5-Pad2)*%
X9500000Y29400000D03*
%TD*%
D46*
%TO.P,C13,1*%
%TO.N,GNDD*%
X-18900000Y8162500D03*
%TO.P,C13,2*%
%TO.N,+3V3*%
X-18900000Y5037500D03*
%TD*%
D44*
%TO.P,R5,1*%
%TO.N,/IN2+*%
X-5184925Y5715076D03*
%TO.P,R5,2*%
%TO.N,/OUT2*%
X-3770711Y4300862D03*
%TD*%
D18*
%TO.P,C18,1*%
%TO.N,VAA*%
X7075000Y-12100000D03*
%TO.P,C18,2*%
%TO.N,GNDA*%
X5350000Y-12100000D03*
%TD*%
D29*
%TO.P,C27,1*%
%TO.N,VAA*%
X12562500Y37615000D03*
%TO.P,C27,2*%
%TO.N,GNDA*%
X14287500Y37615000D03*
%TD*%
D43*
%TO.P,NT2,1,1*%
%TO.N,GNDPWR*%
X-51125000Y30175000D03*
%TO.P,NT2,2,2*%
%TO.N,GNDA*%
X-47125000Y30175000D03*
%TD*%
D19*
%TO.P,C17,1*%
%TO.N,VAA*%
X13962500Y-21350000D03*
%TO.P,C17,2*%
%TO.N,GNDA*%
X13962500Y-23075000D03*
%TD*%
D31*
%TO.P,U5,1,-IN1*%
%TO.N,/LC2_SIG-*%
X8000001Y-3974248D03*
%TO.P,U5,2,RG1*%
%TO.N,Net-(Rg3-Pad2)*%
X8649999Y-3974248D03*
%TO.P,U5,3,RG1*%
%TO.N,Net-(Rg3-Pad1)*%
X9300001Y-3974248D03*
%TO.P,U5,4,+IN1*%
%TO.N,/LC2_SIG+*%
X9949999Y-3974248D03*
D32*
%TO.P,U5,5,+VS*%
%TO.N,VAA*%
X10740300Y-3183947D03*
%TO.P,U5,6,REF1*%
%TO.N,/VMID*%
X10740300Y-2533949D03*
%TO.P,U5,7,REF2*%
X10740300Y-1883947D03*
%TO.P,U5,8,-VS*%
%TO.N,GNDA*%
X10740300Y-1233949D03*
D31*
%TO.P,U5,9,+IN2*%
%TO.N,/LC3_SIG+*%
X9949999Y-443648D03*
%TO.P,U5,10,RG2*%
%TO.N,Net-(Rg4-Pad1)*%
X9300001Y-443648D03*
%TO.P,U5,11,RG2*%
%TO.N,Net-(Rg4-Pad2)*%
X8649999Y-443648D03*
%TO.P,U5,12,-IN2*%
%TO.N,/LC3_SIG-*%
X8000001Y-443648D03*
D32*
%TO.P,U5,13,-VS*%
%TO.N,GNDA*%
X7209700Y-1233949D03*
%TO.P,U5,14,OUT2*%
%TO.N,/OUT3*%
X7209700Y-1883947D03*
%TO.P,U5,15,OUT1*%
%TO.N,/OUT2*%
X7209700Y-2533949D03*
%TO.P,U5,16,+VS*%
%TO.N,VAA*%
X7209700Y-3183947D03*
%TD*%
D48*
%TO.P,C7,1*%
%TO.N,/IN2-*%
X-5100000Y8600000D03*
%TO.P,C7,2*%
%TO.N,/IN2+*%
X-6567246Y7132754D03*
%TD*%
D21*
%TO.P,R7,1*%
%TO.N,/IN3+*%
X-2900000Y12775000D03*
%TO.P,R7,2*%
%TO.N,/OUT3*%
X-900000Y12775000D03*
%TD*%
D38*
%TO.P,C33,1*%
%TO.N,GNDPWR*%
X-53575000Y32887500D03*
%TO.P,C33,2*%
%TO.N,Net-(U8-NR{slash}SS)*%
X-53575000Y34612500D03*
%TD*%
D46*
%TO.P,C36,1*%
%TO.N,GNDPWR*%
X-53750000Y23625000D03*
%TO.P,C36,2*%
%TO.N,+12V*%
X-53750000Y20500000D03*
%TD*%
D30*
%TO.P,J9,1,1*%
%TO.N,/LC6_SIG+*%
X-645000Y46455000D03*
%TO.P,J9,2,2*%
%TO.N,/LC6_SIG-*%
X2895000Y46455000D03*
%TO.P,J9,3,3*%
%TO.N,GNDA*%
X2895000Y48995000D03*
%TO.P,J9,4,4*%
%TO.N,VAA*%
X-645000Y48995000D03*
%TO.P,J9,5,5*%
%TO.N,GNDA*%
X1125000Y43915000D03*
%TO.P,J9,6,6*%
X1125000Y51725000D03*
%TD*%
D15*
%TO.P,R4,1*%
%TO.N,/IN1-*%
X-10875000Y4975000D03*
%TO.P,R4,2*%
%TO.N,GNDA*%
X-10875000Y2975000D03*
%TD*%
D26*
%TO.P,U8,1,OUT*%
%TO.N,VAA*%
X-46125000Y32425000D03*
%TO.P,U8,2,FB*%
%TO.N,/TPS7A4901-VAA/FB*%
X-46125000Y33074998D03*
%TO.P,U8,3,NC*%
%TO.N,GNDA*%
X-46125000Y33725000D03*
%TO.P,U8,4,GND*%
X-46125000Y34374998D03*
%TO.P,U8,5,EN*%
%TO.N,+12V*%
X-50316000Y34374998D03*
%TO.P,U8,6,NR/SS*%
%TO.N,Net-(U8-NR{slash}SS)*%
X-50316000Y33725000D03*
%TO.P,U8,7,DNC*%
%TO.N,unconnected-(U8-DNC-Pad7)*%
X-50316000Y33074998D03*
%TO.P,U8,8,IN*%
%TO.N,+12V*%
X-50316000Y32425000D03*
D27*
%TO.P,U8,EPAD,EPAD*%
%TO.N,GNDA*%
X-48220500Y33399999D03*
%TD*%
D30*
%TO.P,J5,1,1*%
%TO.N,/LC7_SIG-*%
X-22720000Y46455000D03*
%TO.P,J5,2,2*%
%TO.N,/LC7_SIG+*%
X-19180000Y46455000D03*
%TO.P,J5,3,3*%
%TO.N,VAA*%
X-19180000Y48995000D03*
%TO.P,J5,4,4*%
%TO.N,GNDA*%
X-22720000Y48995000D03*
%TO.P,J5,5,5*%
X-20950000Y43915000D03*
%TO.P,J5,6,6*%
X-20950000Y51725000D03*
%TD*%
D32*
%TO.P,U7,1,-IN1*%
%TO.N,/LC6_SIG-*%
X-7759701Y33859701D03*
%TO.P,U7,2,RG1*%
%TO.N,Net-(Rg7-Pad2)*%
X-7759701Y34509699D03*
%TO.P,U7,3,RG1*%
%TO.N,Net-(Rg7-Pad1)*%
X-7759701Y35159701D03*
%TO.P,U7,4,+IN1*%
%TO.N,/LC6_SIG+*%
X-7759701Y35809699D03*
D31*
%TO.P,U7,5,+VS*%
%TO.N,VAA*%
X-8550002Y36600000D03*
%TO.P,U7,6,REF1*%
%TO.N,/VMID*%
X-9200000Y36600000D03*
%TO.P,U7,7,REF2*%
X-9850002Y36600000D03*
%TO.P,U7,8,-VS*%
%TO.N,GNDA*%
X-10500000Y36600000D03*
D32*
%TO.P,U7,9,+IN2*%
%TO.N,/LC7_SIG+*%
X-11290301Y35809699D03*
%TO.P,U7,10,RG2*%
%TO.N,Net-(Rg8-Pad1)*%
X-11290301Y35159701D03*
%TO.P,U7,11,RG2*%
%TO.N,Net-(Rg8-Pad2)*%
X-11290301Y34509699D03*
%TO.P,U7,12,-IN2*%
%TO.N,/LC7_SIG-*%
X-11290301Y33859701D03*
D31*
%TO.P,U7,13,-VS*%
%TO.N,GNDA*%
X-10500000Y33069400D03*
%TO.P,U7,14,OUT2*%
%TO.N,/OUT7*%
X-9850002Y33069400D03*
%TO.P,U7,15,OUT1*%
%TO.N,/OUT6*%
X-9200000Y33069400D03*
%TO.P,U7,16,+VS*%
%TO.N,VAA*%
X-8550002Y33069400D03*
%TD*%
D15*
%TO.P,R28,1*%
%TO.N,Net-(R28-Pad1)*%
X-39875000Y15900000D03*
%TO.P,R28,2*%
%TO.N,+3.3VADC*%
X-39875000Y13900000D03*
%TD*%
D47*
%TO.P,C14,1*%
%TO.N,GNDA*%
X-20412500Y18100000D03*
%TO.P,C14,2*%
%TO.N,+3.3VADC*%
X-17287500Y18100000D03*
%TD*%
D49*
%TO.N,+12V*%
X-55450000Y21975000D03*
X-53600000Y36450000D03*
D50*
%TO.N,GNDPWR*%
X-52262500Y39812500D03*
D49*
X-51125000Y22350000D03*
D50*
X-50150000Y14537500D03*
D49*
X-51125000Y30175000D03*
D50*
%TO.N,GNDD*%
X-53775535Y-22278932D03*
X-53775535Y-26153932D03*
X-50750535Y-17828932D03*
X-61275535Y-27858932D03*
X-58925000Y35100000D03*
D51*
X-58925535Y-18603932D03*
D50*
X-25250000Y-29675000D03*
X-56850535Y-18778932D03*
X-20670000Y-35375000D03*
X-50750535Y-28003932D03*
X-11500000Y-37975000D03*
X-56450535Y-20078932D03*
X-54450535Y-19303932D03*
X-50700535Y-23323932D03*
X-57100535Y-17453932D03*
X-53725535Y-28053932D03*
X-11500000Y-29675000D03*
X-54325000Y29050000D03*
X-61375535Y-24653932D03*
X-50750535Y-25728932D03*
X-61275535Y-22303932D03*
X-50750535Y-20728932D03*
X-56475535Y-22403932D03*
X-56425535Y-26103932D03*
X-25250000Y-37975000D03*
X-59150535Y-26303932D03*
D51*
%TO.N,+5VD*%
X-51150535Y-30278932D03*
X-51075535Y-14953932D03*
X-54000535Y-30303932D03*
X-54175535Y-14903932D03*
D52*
%TO.N,GNDA*%
X-48600000Y32900000D03*
D50*
X-18900000Y18100000D03*
X-850000Y18625000D03*
D52*
X-47575000Y18575000D03*
D49*
X-47125000Y30175000D03*
D50*
X-12000000Y4050000D03*
D52*
X-48375000Y18575000D03*
D49*
X-47125000Y27725000D03*
D50*
X7200000Y-500000D03*
X3675000Y-12875000D03*
D49*
X-45225000Y14075000D03*
X-47125000Y22350000D03*
X-44775000Y27475000D03*
D50*
X3600000Y-7200000D03*
D52*
X-47575000Y19575000D03*
D50*
X-1090470Y6973312D03*
D52*
X-48375000Y19575000D03*
X-48600000Y33900000D03*
D50*
X-900000Y9100000D03*
D52*
X-47800000Y32900000D03*
D50*
X15150000Y36665000D03*
X15732400Y-2275000D03*
X-12025000Y23600000D03*
D49*
X-40945399Y27445399D03*
X-47125000Y24750000D03*
D50*
X-9500000Y41425000D03*
X-12000000Y18300000D03*
X12712500Y-23875000D03*
X-12006172Y9406172D03*
D49*
X-42850000Y24725000D03*
D50*
X4800000Y30100000D03*
X-10725000Y31775000D03*
X13600000Y-14100000D03*
X5600000Y37965000D03*
X-1400000Y23075000D03*
D52*
X-47800000Y33900000D03*
D50*
X-2550000Y31350000D03*
X-10700000Y37700000D03*
%TO.N,+3.3VADC*%
X-44250000Y18075001D03*
X-59125000Y30350000D03*
%TO.N,VAA*%
X-44600000Y32425000D03*
X-9500000Y39800000D03*
X14002336Y-2248200D03*
X8525000Y-12925000D03*
X-53800000Y38675000D03*
X4850000Y34900000D03*
X-7025000Y31350000D03*
X12687500Y-22125000D03*
X5653900Y-4296448D03*
X13386634Y36662450D03*
%TO.N,Net-(U8-NR{slash}SS)*%
X-53575000Y34612500D03*
X-51775000Y34100000D03*
%TO.N,Net-(U9-NR{slash}SS)*%
X-50150000Y16262500D03*
X-51643629Y19225000D03*
%TO.N,/MISO*%
X-34300000Y6450000D03*
%TO.N,/CLK_MCO*%
X-36700000Y400000D03*
%TO.N,/MOSI*%
X-35375000Y4025000D03*
%TO.N,/DRDY*%
X-38375000Y4700000D03*
%TO.N,/ADC_CS*%
X-40875000Y4475000D03*
%TO.N,/SCK*%
X-31675000Y10425000D03*
%TO.N,/RST_ADC*%
X-39900000Y6650000D03*
%TO.N,/VMID*%
X-9525000Y37800000D03*
X-55500000Y38525000D03*
X11957400Y-2225000D03*
D53*
X-50500000Y27900000D03*
D50*
X11600000Y36665000D03*
D53*
X-47050000Y39375000D03*
D50*
X12600000Y-20387500D03*
X-55520000Y35020000D03*
%TO.N,/VMID_SENS*%
X-32375000Y-11900000D03*
%TO.N,Net-(Rg1-Pad2)*%
X12093523Y-16806477D03*
X5484700Y-15646053D03*
%TO.N,Net-(Rg1-Pad1)*%
X5484700Y-17646053D03*
X12050000Y-17785000D03*
%TO.N,Net-(Rg2-Pad2)*%
X13156582Y-16762762D03*
X7525000Y-15650000D03*
%TO.N,Net-(Rg2-Pad1)*%
X7525000Y-17650000D03*
X13150000Y-18050000D03*
%TO.N,Net-(Rg3-Pad2)*%
X8800000Y-7200000D03*
X8325000Y-2900000D03*
%TO.N,Net-(Rg3-Pad1)*%
X9300000Y-2875000D03*
X10214214Y-8614213D03*
%TO.N,Net-(Rg4-Pad1)*%
X10114213Y4514214D03*
X9692548Y-1550796D03*
%TO.N,Net-(Rg4-Pad2)*%
X8700000Y3100000D03*
X8271737Y-1621343D03*
%TO.N,Net-(Rg5-Pad2)*%
X9500000Y29400000D03*
X8100000Y36100000D03*
%TO.N,Net-(Rg5-Pad1)*%
X9200000Y36100000D03*
X9500000Y31400000D03*
%TO.N,Net-(Rg6-Pad2)*%
X5600000Y40600000D03*
X8000000Y37300000D03*
%TO.N,Net-(Rg6-Pad1)*%
X9100000Y37300000D03*
X7600000Y40600000D03*
%TO.N,Net-(Rg7-Pad2)*%
X-9000000Y34300000D03*
X-1900000Y34500000D03*
%TO.N,Net-(Rg7-Pad1)*%
X-3900000Y34500000D03*
X-9000000Y35400000D03*
%TO.N,Net-(Rg8-Pad1)*%
X-17600000Y34400000D03*
X-10100000Y35400000D03*
%TO.N,Net-(Rg8-Pad2)*%
X-15600000Y34400000D03*
X-10100000Y34300000D03*
%TO.N,/VADC_SENS*%
X-31500000Y-11400000D03*
%TD*%
D54*
%TO.N,/LED*%
X-56903443Y-29803932D02*
X-52509375Y-34198000D01*
X-62400535Y-28828932D02*
X-61425535Y-29803932D01*
X-45895000Y-16305000D02*
X-61776603Y-16305000D01*
X-61425535Y-29803932D02*
X-56903443Y-29803932D01*
X-45130000Y-17070000D02*
X-45895000Y-16305000D01*
X-62400535Y-16928932D02*
X-62400535Y-28828932D01*
X-61776603Y-16305000D02*
X-62400535Y-16928932D01*
%TO.N,/I2C_CLK*%
X-48390000Y-700058D02*
X-48390000Y1470000D01*
X-61425535Y14505535D02*
X-61425535Y15166068D01*
X-34560058Y-14530000D02*
X-48390000Y-700058D01*
X-29890000Y-14530000D02*
X-34560058Y-14530000D01*
X-48390000Y1470000D02*
X-61425535Y14505535D01*
%TO.N,/I2C_DAT*%
X-48991000Y-949000D02*
X-48991000Y871000D01*
X-29890000Y-17070000D02*
X-32870000Y-17070000D01*
X-32870000Y-17070000D02*
X-48991000Y-949000D01*
X-48991000Y871000D02*
X-60746068Y12626068D01*
X-60746068Y12626068D02*
X-61425535Y12626068D01*
%TO.N,/SYNC*%
X-61425535Y2466068D02*
X-61425535Y2215535D01*
X-61425535Y2215535D02*
X-45130000Y-14080000D01*
X-45130000Y-14080000D02*
X-45130000Y-14530000D01*
D55*
%TO.N,+12V*%
X-50712500Y36450000D02*
X-50700000Y36437500D01*
D54*
X-53750000Y19925000D02*
X-53750000Y20500000D01*
D55*
X-54075000Y20600000D02*
X-53850000Y20600000D01*
X-53600000Y36450000D02*
X-50712500Y36450000D01*
D54*
X-50316000Y34374998D02*
X-50316000Y36053500D01*
X-52575000Y33350000D02*
X-52575000Y35200000D01*
X-51900001Y18075001D02*
X-53750000Y19925000D01*
D55*
X-55450000Y21975000D02*
X-54075000Y20600000D01*
X-53850000Y20600000D02*
X-53750000Y20500000D01*
D54*
X-53274999Y20024999D02*
X-53750000Y20500000D01*
X-50316000Y36053500D02*
X-50700000Y36437500D01*
X-50095500Y18075001D02*
X-51900001Y18075001D01*
X-52575000Y35200000D02*
X-51337500Y36437500D01*
X-51337500Y36437500D02*
X-50700000Y36437500D01*
X-50316000Y32425000D02*
X-51650000Y32425000D01*
X-51650000Y32425000D02*
X-52575000Y33350000D01*
X-50095500Y20024999D02*
X-53274999Y20024999D01*
%TO.N,/INT*%
X-61425535Y5006068D02*
X-45130000Y-11289467D01*
X-45130000Y-11289467D02*
X-45130000Y-11990000D01*
%TO.N,/ESTOP*%
X-61425535Y7546068D02*
X-61425535Y6925535D01*
X-61425535Y6925535D02*
X-45130000Y-9370000D01*
X-45130000Y-9370000D02*
X-45130000Y-9450000D01*
D56*
%TO.N,GNDPWR*%
X-52262500Y39812500D02*
X-52012500Y39562500D01*
X-52475000Y22350000D02*
X-53750000Y23625000D01*
D54*
X-53575000Y32625000D02*
X-51125000Y30175000D01*
D56*
X-51125000Y22350000D02*
X-52475000Y22350000D01*
X-52012500Y39562500D02*
X-50700000Y39562500D01*
D54*
X-53575000Y32887500D02*
X-53575000Y32625000D01*
%TO.N,GNDD*%
X-56725000Y18000000D02*
X-36895000Y-1830000D01*
X-28530000Y-1830000D02*
X-18900000Y7800000D01*
X-20487500Y9987500D02*
X-20487500Y11775000D01*
X-54325000Y29050000D02*
X-54325000Y26400000D01*
X-29890000Y-1830000D02*
X-28530000Y-1830000D01*
X-36895000Y-1830000D02*
X-29890000Y-1830000D01*
X-59330000Y35505000D02*
X-58925000Y35100000D01*
X-13800000Y10100000D02*
X-13276000Y10624000D01*
X-18900000Y8162500D02*
X-18900000Y8400000D01*
D57*
X-49309375Y-29445092D02*
X-50750535Y-28003932D01*
D54*
X-18900000Y8162500D02*
X-16962500Y10100000D01*
X-56725000Y24000000D02*
X-56725000Y18000000D01*
X-16962500Y10100000D02*
X-13800000Y10100000D01*
X-54325000Y26400000D02*
X-56725000Y24000000D01*
X-59330000Y36900000D02*
X-59330000Y35505000D01*
X-18900000Y8400000D02*
X-20487500Y9987500D01*
D57*
X-49309375Y-34198000D02*
X-49309375Y-29445092D01*
D54*
X-18900000Y7800000D02*
X-18900000Y8162500D01*
X-20475000Y11775000D02*
X-20487500Y11775000D01*
%TO.N,+5VD*%
X-57350000Y17775000D02*
X-57350000Y24300000D01*
X-55350000Y26300000D02*
X-55350000Y31780000D01*
X-29890000Y-6910000D02*
X-32665000Y-6910000D01*
D57*
X-52509375Y-39352000D02*
X-51150535Y-37993160D01*
D54*
X-55350000Y31780000D02*
X-55520000Y31950000D01*
X-32665000Y-6910000D02*
X-57350000Y17775000D01*
D57*
X-51150535Y-37993160D02*
X-51150535Y-30278932D01*
D54*
X-57350000Y24300000D02*
X-55350000Y26300000D01*
D58*
%TO.N,/IN0-*%
X-13125000Y4975000D02*
X-13125000Y6975000D01*
X-12900000Y7000000D02*
X-10725000Y9175000D01*
X-13125000Y6975000D02*
X-13150000Y7000000D01*
X-13150000Y7000000D02*
X-12900000Y7000000D01*
X-10725000Y9175000D02*
X-10725000Y10675000D01*
%TO.N,/IN0+*%
X-11225000Y9282246D02*
X-12107246Y8400000D01*
X-15250000Y6975000D02*
X-15225000Y7000000D01*
X-14000000Y8400000D02*
X-15225000Y7175000D01*
X-15225000Y7175000D02*
X-15225000Y7000000D01*
X-15250000Y4975000D02*
X-15250000Y6975000D01*
X-11225000Y10675000D02*
X-11225000Y9282246D01*
X-12107246Y8400000D02*
X-14000000Y8400000D01*
D54*
%TO.N,+3V3*%
X-12725000Y9648000D02*
X-12948000Y9425000D01*
X-27275000Y-2375000D02*
X-27275000Y-29695000D01*
X-12948000Y9425000D02*
X-15475000Y9425000D01*
X-15475000Y9425000D02*
X-27275000Y-2375000D01*
X-27275000Y-29695000D02*
X-29890000Y-32310000D01*
X-18470000Y-34525000D02*
X-18470000Y-35375000D01*
D57*
X-12725000Y10675000D02*
X-12725000Y9900000D01*
D54*
X-12725000Y9900000D02*
X-12725000Y9648000D01*
X-29890000Y-32310000D02*
X-20685000Y-32310000D01*
X-20685000Y-32310000D02*
X-18470000Y-34525000D01*
D58*
%TO.N,/IN1+*%
X-9725000Y10675000D02*
X-9725000Y7925000D01*
X-8775000Y4975000D02*
X-8775000Y6975000D01*
X-9725000Y7925000D02*
X-8800000Y7000000D01*
X-8775000Y6975000D02*
X-8800000Y7000000D01*
%TO.N,/IN1-*%
X-10875000Y7000000D02*
X-10225000Y7650000D01*
X-10875000Y4975000D02*
X-10875000Y7000000D01*
X-10225000Y7650000D02*
X-10225000Y10675000D01*
%TO.N,/IN2-*%
X-3700000Y7200000D02*
X-5100000Y8600000D01*
X-5800000Y8600000D02*
X-5100000Y8600000D01*
X-6900000Y9700000D02*
X-5800000Y8600000D01*
X-8250000Y12650000D02*
X-7450000Y12650000D01*
X-7450000Y12650000D02*
X-6900000Y12100000D01*
X-6900000Y12100000D02*
X-6900000Y9700000D01*
%TO.N,/IN2+*%
X-6567246Y7767246D02*
X-6567246Y7132754D01*
X-5184925Y5750433D02*
X-6567246Y7132754D01*
X-8250000Y12150000D02*
X-7600000Y11500000D01*
X-7600000Y11500000D02*
X-7600000Y8800000D01*
X-7600000Y8800000D02*
X-6567246Y7767246D01*
X-5184925Y5715076D02*
X-5184925Y5750433D01*
%TO.N,/IN3-*%
X-4925000Y10825000D02*
X-4875000Y10825000D01*
X-4825000Y10775000D02*
X-4875000Y10825000D01*
X-7250000Y13150000D02*
X-4925000Y10825000D01*
X-8250000Y13150000D02*
X-7250000Y13150000D01*
X-2900000Y10775000D02*
X-4825000Y10775000D01*
%TO.N,/IN3+*%
X-6000000Y12900000D02*
X-6750000Y13650000D01*
X-4750000Y12775000D02*
X-4875000Y12900000D01*
X-6750000Y13650000D02*
X-8250000Y13650000D01*
X-4875000Y12900000D02*
X-6000000Y12900000D01*
X-2900000Y12775000D02*
X-4750000Y12775000D01*
%TO.N,/IN4+*%
X-4740900Y14975000D02*
X-4860600Y14855300D01*
X-2885600Y14975000D02*
X-4740900Y14975000D01*
X-5565900Y14150000D02*
X-8250000Y14150000D01*
X-4860600Y14855300D02*
X-5565900Y14150000D01*
%TO.N,/IN4-*%
X-2860600Y17075000D02*
X-4715900Y17075000D01*
X-7140900Y14650000D02*
X-8250000Y14650000D01*
X-4860600Y16930300D02*
X-7140900Y14650000D01*
X-4715900Y17075000D02*
X-4860600Y16930300D01*
%TO.N,/IN5-*%
X-6150000Y16375000D02*
X-6150000Y18153400D01*
X-8250000Y15150000D02*
X-7375000Y15150000D01*
X-5185600Y19289400D02*
X-3857107Y20617893D01*
X-7375000Y15150000D02*
X-6150000Y16375000D01*
X-5185600Y19117800D02*
X-5185600Y19289400D01*
X-6150000Y18153400D02*
X-5185600Y19117800D01*
%TO.N,/IN5+*%
X-6652846Y20585046D02*
X-6652846Y16439254D01*
X-7442100Y15650000D02*
X-8250000Y15650000D01*
X-6652846Y20585046D02*
X-5275000Y21962892D01*
X-5275000Y21962892D02*
X-5275000Y22025000D01*
X-6652846Y16439254D02*
X-7442100Y15650000D01*
%TO.N,/IN6+*%
X-9007200Y20492800D02*
X-8835600Y20492800D01*
X-9725000Y17125000D02*
X-9725000Y19775000D01*
X-9725000Y19775000D02*
X-9007200Y20492800D01*
D54*
X-8825000Y20503400D02*
X-8835600Y20492800D01*
X-8825000Y22500000D02*
X-8825000Y20503400D01*
D58*
%TO.N,/IN6-*%
X-10225000Y19807200D02*
X-10910600Y20492800D01*
X-10225000Y17125000D02*
X-10225000Y19807200D01*
D54*
X-10900000Y20503400D02*
X-10910600Y20492800D01*
X-10900000Y22500000D02*
X-10900000Y20503400D01*
D58*
%TO.N,/IN7+*%
X-15285600Y22489400D02*
X-15250000Y22525000D01*
X-15285600Y20492800D02*
X-15285600Y22489400D01*
X-13792800Y19000000D02*
X-15285600Y20492800D01*
X-11225000Y17125000D02*
X-11225000Y18725000D01*
X-11500000Y19000000D02*
X-13792800Y19000000D01*
X-11225000Y18725000D02*
X-11500000Y19000000D01*
%TO.N,/IN7-*%
X-13210600Y19767800D02*
X-12842800Y19400000D01*
X-13048700Y20492800D02*
X-13210600Y20492800D01*
X-11175000Y19400000D02*
X-10725000Y18950000D01*
D54*
X-13125000Y20578400D02*
X-13210600Y20492800D01*
D58*
X-10725000Y18950000D02*
X-10725000Y17125000D01*
X-13210600Y20492800D02*
X-13210600Y19767800D01*
D54*
X-13125000Y22525000D02*
X-13125000Y20578400D01*
D58*
X-12842800Y19400000D02*
X-11175000Y19400000D01*
D54*
%TO.N,GNDA*%
X-12050000Y24525000D02*
X-12050000Y23625000D01*
D57*
X-4112500Y31350000D02*
X-4112500Y30507800D01*
X-47674999Y19375001D02*
X-45904500Y19375001D01*
D54*
X-61075000Y42250000D02*
X-46587001Y42250000D01*
D57*
X3600000Y-7200000D02*
X5653552Y-7200000D01*
X13262500Y38515000D02*
X14162500Y37615000D01*
X-10700000Y36800000D02*
X-10500000Y36600000D01*
X5940001Y37624999D02*
X5600000Y37965000D01*
D59*
X-45904500Y20024999D02*
X-45904500Y21129500D01*
D57*
X7200000Y-500000D02*
X7200000Y-1224249D01*
X14282400Y-250000D02*
X11724249Y-250000D01*
D54*
X-2285786Y5785786D02*
X-2277996Y5785786D01*
D57*
X-8537500Y40650000D02*
X-8525000Y40662500D01*
D54*
X14900000Y-1432400D02*
X14900000Y-2275000D01*
D57*
X14162500Y37615000D02*
X14287500Y37615000D01*
X13562499Y-19227800D02*
X13590300Y-19227800D01*
D54*
X-12000000Y2975000D02*
X-12000000Y4050000D01*
D57*
X-10462500Y40650000D02*
X-9500000Y40650000D01*
X13562499Y-15697200D02*
X13562499Y-14137501D01*
X-11725000Y9687344D02*
X-11725000Y10675000D01*
D55*
X-45225000Y14075000D02*
X-42850000Y14075000D01*
D57*
X14387500Y-23075000D02*
X13962500Y-23075000D01*
D54*
X14900000Y-3200000D02*
X14900000Y-2275000D01*
D57*
X4800000Y30100000D02*
X4825000Y30125000D01*
D55*
X-42850000Y14075000D02*
X-42775000Y14150000D01*
X-42850000Y25500000D02*
X-42850000Y24725000D01*
D60*
X-40945399Y27404601D02*
X-42850000Y25500000D01*
D57*
X4825000Y31677500D02*
X5675000Y31677500D01*
D54*
X-46125000Y35152799D02*
X-42807400Y38470399D01*
X-12050000Y23625000D02*
X-12025000Y23600000D01*
X-860600Y17075000D02*
X-860600Y18614400D01*
D57*
X4825000Y30125000D02*
X4825000Y31677500D01*
D54*
X-2442893Y22032107D02*
X-1400000Y23075000D01*
X11452500Y-23075000D02*
X12712500Y-23075000D01*
D57*
X6500000Y-7221448D02*
X5675000Y-7221448D01*
X13590300Y-19227800D02*
X14987500Y-20625000D01*
D60*
X-44775000Y27475000D02*
X-42850000Y25550000D01*
D59*
X-45904500Y21129500D02*
X-47125000Y22350000D01*
X-45904500Y19375001D02*
X-45904500Y20024999D01*
D57*
X-10500000Y32000000D02*
X-10725000Y31775000D01*
X11724249Y-250000D02*
X10740300Y-1233949D01*
D54*
X-860600Y18614400D02*
X-850000Y18625000D01*
D55*
X-42850000Y25550000D02*
X-42850000Y24725000D01*
D57*
X14907400Y-1150000D02*
X14907400Y-875000D01*
X-11725000Y18025000D02*
X-11725000Y17125000D01*
D55*
X-40945399Y27445399D02*
X-40945399Y27404601D01*
D54*
X14900000Y-2275000D02*
X15732400Y-2275000D01*
D57*
X-12006172Y9406172D02*
X-11725000Y9687344D01*
X11305301Y38515000D02*
X13262500Y38515000D01*
D54*
X12712500Y-23075000D02*
X13962500Y-23075000D01*
X-12000000Y2975000D02*
X-10875000Y2975000D01*
D55*
X-47125000Y24750000D02*
X-47125000Y27725000D01*
D57*
X14287500Y37615000D02*
X14287500Y36665000D01*
D54*
X-12050000Y24525000D02*
X-10925000Y24525000D01*
X-46587001Y42250000D02*
X-42807400Y38470399D01*
D57*
X14987500Y-22475000D02*
X14387500Y-23075000D01*
X-48000000Y19050000D02*
X-47674999Y19375001D01*
X-12000000Y18300000D02*
X-12000000Y18175000D01*
X-10475000Y40662500D02*
X-10462500Y40650000D01*
X-9500000Y40650000D02*
X-9500000Y41425000D01*
X6884700Y37624999D02*
X5940001Y37624999D01*
X-12000000Y18300000D02*
X-11725000Y18025000D01*
D54*
X-46125000Y34374998D02*
X-46125000Y35152799D01*
D57*
X7200000Y-1224249D02*
X7209700Y-1233949D01*
D54*
X3675000Y-12875000D02*
X3730000Y-12930000D01*
D57*
X-48220500Y33399999D02*
X-47895499Y33725000D01*
X5675000Y-7221448D02*
X4807800Y-7221448D01*
X14287500Y36665000D02*
X14287500Y35615000D01*
X-47895499Y33725000D02*
X-46125000Y33725000D01*
D59*
X-39875000Y23500000D02*
X-41625000Y23500000D01*
D54*
X12712500Y-23075000D02*
X12712500Y-23875000D01*
D57*
X-12000000Y18175000D02*
X-12225000Y17950000D01*
X14287500Y36665000D02*
X15150000Y36665000D01*
D54*
X-46125000Y33725000D02*
X-46125000Y34374998D01*
D60*
X-44745399Y27445399D02*
X-42807400Y27445399D01*
D57*
X14907400Y-875000D02*
X14282400Y-250000D01*
D54*
X-61450000Y41875000D02*
X-61075000Y42250000D01*
D57*
X-10500000Y33069400D02*
X-10500000Y32000000D01*
X-4112500Y31350000D02*
X-2550000Y31350000D01*
D54*
X5350000Y-12930000D02*
X5350000Y-12100000D01*
X14907400Y-1150000D02*
X14907400Y-1425000D01*
D57*
X-9500000Y40650000D02*
X-8537500Y40650000D01*
X-10700000Y37700000D02*
X-10700000Y36800000D01*
D60*
X-40945399Y27445399D02*
X-42807400Y27445399D01*
D57*
X13562499Y-14137501D02*
X13600000Y-14100000D01*
D54*
X-13125000Y2975000D02*
X-12000000Y2975000D01*
X3730000Y-12930000D02*
X5350000Y-12930000D01*
D55*
X-44775000Y27475000D02*
X-44745399Y27445399D01*
D57*
X-4112500Y32200000D02*
X-4112500Y31350000D01*
X10415300Y37624999D02*
X11305301Y38515000D01*
D54*
X5350000Y-13792200D02*
X5350000Y-12930000D01*
D57*
X3982800Y31677500D02*
X4825000Y31677500D01*
D59*
X-41625000Y23500000D02*
X-42850000Y24725000D01*
D54*
X-2277996Y5785786D02*
X-1090470Y6973312D01*
D57*
X5653552Y-7200000D02*
X5675000Y-7221448D01*
X-12225000Y17950000D02*
X-12225000Y17125000D01*
D54*
X-13125000Y24525000D02*
X-12050000Y24525000D01*
X-18900000Y18100000D02*
X-20412500Y18100000D01*
D57*
X14987500Y-20625000D02*
X14987500Y-22475000D01*
D54*
X-900000Y10775000D02*
X-900000Y9100000D01*
X-10925000Y24525000D02*
X-10900000Y24500000D01*
X14907400Y-1425000D02*
X14900000Y-1432400D01*
D57*
%TO.N,+3.3VADC*%
X-59330000Y31950000D02*
X-59330000Y30555000D01*
X-12725000Y17974000D02*
X-12725000Y17125000D01*
X-42900000Y18987500D02*
X-43175000Y19262500D01*
D54*
X-43575001Y18075001D02*
X-42775000Y17275000D01*
D57*
X-59330000Y30555000D02*
X-59125000Y30350000D01*
X-18513500Y16874000D02*
X-36901000Y16874000D01*
D54*
X-44250000Y18075001D02*
X-45904500Y18075001D01*
D57*
X-42775000Y17275000D02*
X-42775000Y16800000D01*
D54*
X-42775000Y16800000D02*
X-39875000Y13900000D01*
D57*
X-42900000Y17400000D02*
X-42900000Y18987500D01*
D54*
X-44250000Y18075001D02*
X-43575001Y18075001D01*
D57*
X-42775000Y17275000D02*
X-42900000Y17400000D01*
X-13026000Y18275000D02*
X-12725000Y17974000D01*
X-17112500Y18275000D02*
X-13026000Y18275000D01*
X-36901000Y16874000D02*
X-39875000Y13900000D01*
X-17287500Y18100000D02*
X-18513500Y16874000D01*
X-17287500Y18100000D02*
X-17112500Y18275000D01*
%TO.N,Net-(IC1-CAP)*%
X-14700000Y12150000D02*
X-17162500Y12150000D01*
X-17162500Y12150000D02*
X-17387500Y12375000D01*
D54*
%TO.N,VAA*%
X8520000Y-12930000D02*
X8525000Y-12925000D01*
X12737500Y-21350000D02*
X11452500Y-21350000D01*
D57*
X5653900Y-5492548D02*
X5650000Y-5496448D01*
X-53800000Y38675000D02*
X-55125000Y40000000D01*
X6600001Y-3183947D02*
X7209700Y-3183947D01*
D54*
X-42807400Y32570399D02*
X-42807400Y30570399D01*
X-39507400Y28670399D02*
X-37307400Y28670399D01*
D57*
X3982800Y33402500D02*
X4850000Y33402500D01*
X-7680602Y32200000D02*
X-8550002Y33069400D01*
X-55125000Y40000000D02*
X-57300000Y40000000D01*
X-8715001Y36764999D02*
X-8715001Y38747499D01*
X6535001Y35675001D02*
X6884700Y35675001D01*
D54*
X7075000Y-13792200D02*
X7075000Y-12930000D01*
D57*
X6500000Y-5496448D02*
X5650000Y-5496448D01*
X12562500Y36665000D02*
X13384084Y36665000D01*
D54*
X11612501Y-15312501D02*
X10744701Y-14444701D01*
X7727501Y-14444701D02*
X7075000Y-13792200D01*
D57*
X5653900Y-4130048D02*
X6600001Y-3183947D01*
X13175000Y-2250000D02*
X13175000Y-1157400D01*
X-5837500Y31350000D02*
X-7025000Y31350000D01*
D54*
X-46125000Y32425000D02*
X-44600000Y32425000D01*
D57*
X10415300Y35675001D02*
X12410001Y35675001D01*
X-8550002Y36600000D02*
X-8715001Y36764999D01*
X-5837500Y31350000D02*
X-5837500Y32200000D01*
X-5837500Y30507800D02*
X-5837500Y31350000D01*
D54*
X7075000Y-12930000D02*
X7075000Y-12100000D01*
D57*
X12562500Y37615000D02*
X12562500Y36665000D01*
D54*
X12737500Y-22075000D02*
X12687500Y-22125000D01*
X11612501Y-19227800D02*
X11612501Y-21189999D01*
X12737500Y-21350000D02*
X12737500Y-22075000D01*
D57*
X13175000Y-1157400D02*
X13182400Y-1150000D01*
X12562500Y36665000D02*
X12562500Y35615000D01*
X-9500000Y38925000D02*
X-10462500Y38925000D01*
X5653900Y-4296448D02*
X5653900Y-4130048D01*
X14002336Y-2248200D02*
X14000536Y-2250000D01*
D54*
X-44600000Y32425000D02*
X-42807400Y30632400D01*
D57*
X-8537500Y38925000D02*
X-9500000Y38925000D01*
X5675000Y33402500D02*
X5675000Y34815000D01*
D54*
X10744701Y-14444701D02*
X7727501Y-14444701D01*
D57*
X4850000Y34900000D02*
X4850000Y33402500D01*
X10756353Y-3200000D02*
X13175000Y-3200000D01*
D54*
X13962500Y-21350000D02*
X12737500Y-21350000D01*
X-42807400Y30570399D02*
X-41407400Y30570399D01*
X7075000Y-12930000D02*
X8520000Y-12930000D01*
D57*
X5675000Y34815000D02*
X6535001Y35675001D01*
D54*
X-42807400Y30632400D02*
X-42807400Y30570399D01*
D57*
X-10462500Y38925000D02*
X-10475000Y38937500D01*
X5650000Y-5496448D02*
X4807800Y-5496448D01*
D54*
X-41407400Y30570399D02*
X-39507400Y28670399D01*
D57*
X14000536Y-2250000D02*
X13175000Y-2250000D01*
X-9500000Y38925000D02*
X-9500000Y39800000D01*
X13175000Y-3200000D02*
X13175000Y-2250000D01*
X5653900Y-4296448D02*
X5653900Y-5492548D01*
D54*
X11612501Y-21189999D02*
X11452500Y-21350000D01*
D57*
X12410001Y35675001D02*
X12575000Y35840000D01*
X10740300Y-3183947D02*
X10756353Y-3200000D01*
D54*
X11612501Y-15697200D02*
X11612501Y-15312501D01*
D57*
X-5837500Y32200000D02*
X-7680602Y32200000D01*
X13384084Y36665000D02*
X13386634Y36662450D01*
X4850000Y33402500D02*
X5675000Y33402500D01*
D54*
%TO.N,Net-(U8-NR{slash}SS)*%
X-50316000Y33725000D02*
X-51400000Y33725000D01*
X-51400000Y33725000D02*
X-51775000Y34100000D01*
%TO.N,/TPS7A4901-VAA/FB*%
X-42807400Y34295399D02*
X-42807400Y36470399D01*
X-39507400Y38470399D02*
X-40807400Y38470399D01*
X-40807400Y38470399D02*
X-42807400Y36470399D01*
X-45087600Y33074998D02*
X-43867199Y34295399D01*
X-39507400Y38470399D02*
X-37307400Y38470399D01*
X-46125000Y33074998D02*
X-45087600Y33074998D01*
X-43867199Y34295399D02*
X-42807400Y34295399D01*
%TO.N,Net-(U9-NR{slash}SS)*%
X-51643629Y19225000D02*
X-51574999Y19225000D01*
X-51424998Y19375001D02*
X-50095500Y19375001D01*
X-51574999Y19225000D02*
X-51424998Y19375001D01*
%TO.N,Net-(U9-FB)*%
X-43175000Y20925000D02*
X-43175000Y20987500D01*
X-42887500Y21275000D02*
X-40100000Y21275000D01*
X-44375000Y19725000D02*
X-43175000Y20925000D01*
X-40100000Y21275000D02*
X-39875000Y21500000D01*
X-45904500Y18724999D02*
X-44875001Y18724999D01*
X-44875001Y18724999D02*
X-44375000Y19225000D01*
X-39875000Y19700000D02*
X-39875000Y21500000D01*
X-44375000Y19225000D02*
X-44375000Y19725000D01*
X-43175000Y20987500D02*
X-42887500Y21275000D01*
D57*
%TO.N,/MISO*%
X-26600000Y14150000D02*
X-14700000Y14150000D01*
X-45130000Y-35695000D02*
X-41277000Y-39548000D01*
X-41277000Y-39548000D02*
X-23518000Y-39548000D01*
X-23518000Y-39548000D02*
X-21770000Y-37800000D01*
X-21770000Y-37800000D02*
X-21770000Y-35375000D01*
X-45130000Y-34850000D02*
X-45130000Y-35695000D01*
X-34300000Y6450000D02*
X-26600000Y14150000D01*
%TO.N,/CLK_MCO*%
X-36700000Y1300000D02*
X-24801000Y13199000D01*
X-24801000Y13199000D02*
X-16276000Y13199000D01*
X-15727000Y12650000D02*
X-14700000Y12650000D01*
X-36700000Y400000D02*
X-36700000Y1300000D01*
X-16276000Y13199000D02*
X-15727000Y12650000D01*
%TO.N,/MOSI*%
X-25850000Y13650000D02*
X-14700000Y13650000D01*
X-17370000Y-35375000D02*
X-17370000Y-37262190D01*
X-20082810Y-39975000D02*
X-42350000Y-39975000D01*
X-45560000Y-32310000D02*
X-45130000Y-32310000D01*
X-42326000Y-39999000D02*
X-42912500Y-39412500D01*
X-17370000Y-37262190D02*
X-20082810Y-39975000D01*
X-46650000Y-35675000D02*
X-46650000Y-33400000D01*
X-35375000Y4025000D02*
X-35375000Y4125000D01*
X-35375000Y4125000D02*
X-25850000Y13650000D01*
X-42350000Y-39975000D02*
X-42912500Y-39412500D01*
X-42912500Y-39412500D02*
X-46650000Y-35675000D01*
X-46650000Y-33400000D02*
X-45560000Y-32310000D01*
%TO.N,/DRDY*%
X-38375000Y4925000D02*
X-28150000Y15150000D01*
X-28150000Y15150000D02*
X-14700000Y15150000D01*
X-38375000Y4700000D02*
X-38375000Y4925000D01*
%TO.N,/ADC_CS*%
X-40875000Y4475000D02*
X-29700000Y15650000D01*
X-29700000Y15650000D02*
X-14700000Y15650000D01*
%TO.N,/SCK*%
X-19570000Y-34375000D02*
X-20470000Y-33475000D01*
X-19570000Y-35375000D02*
X-19570000Y-34375000D01*
X-31675000Y10425000D02*
X-27450000Y14650000D01*
X-28515000Y-33475000D02*
X-29890000Y-34850000D01*
X-20470000Y-33475000D02*
X-28515000Y-33475000D01*
X-27450000Y14650000D02*
X-14700000Y14650000D01*
%TO.N,/RST_ADC*%
X-30400000Y16150000D02*
X-14200000Y16150000D01*
X-39900000Y6650000D02*
X-30400000Y16150000D01*
X-14200000Y16150000D02*
X-13225000Y17125000D01*
%TO.N,/OUT0*%
X-1325000Y-10950000D02*
X-15250000Y2975000D01*
X8185490Y-10950000D02*
X-1325000Y-10950000D01*
X12262499Y-15697200D02*
X12262499Y-15027009D01*
X12262499Y-15027009D02*
X8185490Y-10950000D01*
%TO.N,/OUT1*%
X-9300000Y-2100000D02*
X-9300000Y2975000D01*
X8475000Y-10200000D02*
X-1200000Y-10200000D01*
X12912501Y-14637501D02*
X8475000Y-10200000D01*
X12912501Y-15697200D02*
X12912501Y-14637501D01*
X-1200000Y-10200000D02*
X-9300000Y-2100000D01*
%TO.N,/OUT2*%
X-400000Y4100000D02*
X-3506067Y4100000D01*
X7209700Y-2533949D02*
X6233949Y-2533949D01*
X-3506067Y4100000D02*
X-3706929Y4300862D01*
X6233949Y-2533949D02*
X-400000Y4100000D01*
%TO.N,/OUT3*%
X6426300Y-1883947D02*
X7209700Y-1883947D01*
X-900000Y12775000D02*
X-875000Y12775000D01*
X0Y11900000D02*
X0Y4542353D01*
X0Y4542353D02*
X6426300Y-1883947D01*
X-875000Y12775000D02*
X0Y11900000D01*
%TO.N,/OUT4*%
X500000Y16000000D02*
X500000Y31881867D01*
X-525000Y14975000D02*
X500000Y16000000D01*
X500000Y31881867D02*
X4943132Y36324999D01*
X-885600Y14975000D02*
X-525000Y14975000D01*
X4943132Y36324999D02*
X6884700Y36324999D01*
%TO.N,/OUT5*%
X5040176Y36975001D02*
X6884700Y36975001D01*
X100000Y32034825D02*
X5040176Y36975001D01*
X-3860786Y23439214D02*
X100000Y27400000D01*
X100000Y27400000D02*
X100000Y32034825D01*
%TO.N,/OUT6*%
X-8825000Y24500000D02*
X-9200000Y24875000D01*
X-9200000Y24875000D02*
X-9200000Y33069400D01*
%TO.N,/OUT7*%
X-15250000Y24525000D02*
X-9850002Y29924998D01*
X-9850002Y29924998D02*
X-9850002Y33069400D01*
%TO.N,/VMID*%
X-56790000Y35925001D02*
X-56790000Y36900000D01*
X11957400Y-2225000D02*
X11644899Y-1912499D01*
X11600000Y36665000D02*
X11287499Y36977501D01*
X-9187499Y37462499D02*
X-9187499Y36640300D01*
X12600000Y-20387500D02*
X12912501Y-20074999D01*
X-9525000Y37800000D02*
X-9187499Y37462499D01*
X11600000Y36665000D02*
X11262499Y36327499D01*
X11287499Y36977501D02*
X10440300Y36977501D01*
X11957400Y-2225000D02*
X11619899Y-2562501D01*
X-9837501Y37487499D02*
X-9837501Y36640300D01*
D59*
X-55520000Y35020000D02*
X-55520000Y36900000D01*
D57*
X12600000Y-20387500D02*
X12262499Y-20049999D01*
D59*
X-55520000Y36900000D02*
X-55520000Y38505000D01*
D57*
X11644899Y-1912499D02*
X10797700Y-1912499D01*
X12262499Y-20049999D02*
X12262499Y-19227800D01*
X-9525000Y37800000D02*
X-9837501Y37487499D01*
X-59140001Y33575000D02*
X-56790000Y35925001D01*
D59*
X-55520000Y36900000D02*
X-56790000Y36900000D01*
D57*
X11262499Y36327499D02*
X10440300Y36327499D01*
X11619899Y-2562501D02*
X10797700Y-2562501D01*
X-61500000Y33575000D02*
X-59140001Y33575000D01*
X12912501Y-20074999D02*
X12912501Y-19227800D01*
%TO.N,/VMID_SENS*%
X-32375000Y-10050000D02*
X-58325000Y15900000D01*
X-61500000Y29650000D02*
X-61500000Y31575000D01*
X-32375000Y-11900000D02*
X-32375000Y-10050000D01*
X-58325000Y15900000D02*
X-58325000Y26475000D01*
X-58325000Y26475000D02*
X-61500000Y29650000D01*
D59*
%TO.N,Net-(R21-Pad1)*%
X-37307400Y30670399D02*
X-37307400Y32570399D01*
%TO.N,Net-(R24-Pad1)*%
X-39507400Y30670399D02*
X-39507400Y32570399D01*
D57*
%TO.N,Net-(Rg1-Pad2)*%
X11762501Y-17137499D02*
X10822200Y-17137499D01*
X12093523Y-16806477D02*
X11762501Y-17137499D01*
%TO.N,Net-(Rg1-Pad1)*%
X12047499Y-17787501D02*
X10822200Y-17787501D01*
X12050000Y-17785000D02*
X12047499Y-17787501D01*
%TO.N,Net-(Rg2-Pad2)*%
X13156582Y-16762762D02*
X13156582Y-16929083D01*
X13156582Y-16929083D02*
X13364998Y-17137499D01*
X13364998Y-17137499D02*
X14352800Y-17137499D01*
%TO.N,Net-(Rg2-Pad1)*%
X13602266Y-17787501D02*
X14352800Y-17787501D01*
X13380036Y-18050000D02*
X13414514Y-18015522D01*
X13414514Y-18015522D02*
X13414514Y-17975253D01*
X13414514Y-17975253D02*
X13602266Y-17787501D01*
X13150000Y-18050000D02*
X13380036Y-18050000D01*
%TO.N,Net-(Rg3-Pad2)*%
X8649999Y-3224999D02*
X8649999Y-3974248D01*
X8325000Y-2900000D02*
X8649999Y-3224999D01*
%TO.N,Net-(Rg3-Pad1)*%
X9300001Y-3974248D02*
X9300000Y-2875000D01*
%TO.N,Net-(Rg4-Pad1)*%
X9300001Y-1158249D02*
X9300001Y-443648D01*
X9692548Y-1550796D02*
X9300001Y-1158249D01*
%TO.N,Net-(Rg4-Pad2)*%
X8271737Y-1621343D02*
X8313657Y-1621343D01*
X8649999Y-1285001D02*
X8649999Y-443648D01*
X8313657Y-1621343D02*
X8649999Y-1285001D01*
%TO.N,Net-(Rg5-Pad2)*%
X8324999Y34884700D02*
X8324999Y35875001D01*
X8324999Y35875001D02*
X8100000Y36100000D01*
%TO.N,Net-(Rg5-Pad1)*%
X8975001Y35875001D02*
X9200000Y36100000D01*
X8975001Y34884700D02*
X8975001Y35875001D01*
%TO.N,Net-(Rg6-Pad2)*%
X8324999Y38415300D02*
X8324999Y37624999D01*
X8324999Y37624999D02*
X8000000Y37300000D01*
%TO.N,Net-(Rg6-Pad1)*%
X8975001Y37424999D02*
X9100000Y37300000D01*
X8975001Y38415300D02*
X8975001Y37424999D01*
%TO.N,Net-(Rg7-Pad2)*%
X-9000000Y34300000D02*
X-8790301Y34509699D01*
X-8790301Y34509699D02*
X-7759701Y34509699D01*
%TO.N,Net-(Rg7-Pad1)*%
X-8859701Y35159701D02*
X-7759701Y35159701D01*
X-9000000Y35300000D02*
X-8859701Y35159701D01*
X-9000000Y35400000D02*
X-9000000Y35300000D01*
%TO.N,Net-(Rg8-Pad1)*%
X-10340299Y35159701D02*
X-10100000Y35400000D01*
X-11290301Y35159701D02*
X-10340299Y35159701D01*
%TO.N,Net-(Rg8-Pad2)*%
X-11290301Y34509699D02*
X-10309699Y34509699D01*
X-10309699Y34509699D02*
X-10100000Y34300000D01*
%TO.N,Net-(U3A-+)*%
X-58060000Y36900000D02*
X-58060000Y38760000D01*
X-58060000Y38760000D02*
X-59300000Y40000000D01*
X-61325000Y40000000D02*
X-61450000Y39875000D01*
X-59300000Y40000000D02*
X-61325000Y40000000D01*
%TO.N,/VADC_SENS*%
X-31500000Y-11400000D02*
X-31500000Y-9950000D01*
X-31500000Y-9950000D02*
X-57875000Y16425000D01*
X-57875000Y28275000D02*
X-58425000Y28825000D01*
X-57875000Y16425000D02*
X-57875000Y28275000D01*
%TO.N,Net-(U3B--)*%
X-58060000Y31950000D02*
X-56790000Y31950000D01*
X-56425000Y31585000D02*
X-56790000Y31950000D01*
X-56425000Y28825000D02*
X-56425000Y31585000D01*
D59*
%TO.N,Net-(R22-Pad1)*%
X-37307400Y36470399D02*
X-37307400Y34570399D01*
%TO.N,Net-(R25-Pad1)*%
X-39507400Y36470399D02*
X-39507400Y34570399D01*
D54*
%TO.N,Net-(R28-Pad1)*%
X-39875000Y15900000D02*
X-39875000Y17700000D01*
D57*
%TO.N,/SD_CS*%
X-45620000Y-29770000D02*
X-47101000Y-31251000D01*
X-47101000Y-36199000D02*
X-42850000Y-40450000D01*
X-19400000Y-40450000D02*
X-16270000Y-37320000D01*
X-16270000Y-37320000D02*
X-16270000Y-35375000D01*
X-47101000Y-31251000D02*
X-47101000Y-36199000D01*
X-45130000Y-29770000D02*
X-45620000Y-29770000D01*
X-42850000Y-40450000D02*
X-19400000Y-40450000D01*
D58*
%TO.N,/LC1_SIG+*%
X14862499Y-18437499D02*
X14352800Y-18437499D01*
X22405000Y-25980000D02*
X14862499Y-18437499D01*
X22405000Y-28930000D02*
X22405000Y-25980000D01*
%TO.N,/LC1_SIG-*%
X15962501Y-16487501D02*
X14352800Y-16487501D01*
X25945000Y-28930000D02*
X25945000Y-26470000D01*
X25945000Y-26470000D02*
X15962501Y-16487501D01*
%TO.N,/LC0_SIG-*%
X10304398Y-16487501D02*
X10822200Y-16487501D01*
X340000Y-26451899D02*
X10304398Y-16487501D01*
X340000Y-28915000D02*
X340000Y-26451899D01*
%TO.N,/LC0_SIG+*%
X10554851Y-18437499D02*
X10822200Y-18437499D01*
X3880000Y-25112350D02*
X10554851Y-18437499D01*
X3880000Y-28915000D02*
X3880000Y-25112350D01*
%TO.N,/LC2_SIG+*%
X20930000Y-11105000D02*
X16655000Y-11105000D01*
X9949999Y-4399999D02*
X9949999Y-3974248D01*
X16655000Y-11105000D02*
X9949999Y-4399999D01*
%TO.N,/LC3_SIG-*%
X20930000Y10970000D02*
X18546382Y10970000D01*
X8000001Y423619D02*
X8000001Y-443648D01*
X18546382Y10970000D02*
X8000001Y423619D01*
%TO.N,/LC2_SIG-*%
X18289753Y-14645000D02*
X8000001Y-4355248D01*
X8000001Y-4355248D02*
X8000001Y-3974248D01*
X20930000Y-14645000D02*
X18289753Y-14645000D01*
%TO.N,/LC3_SIG+*%
X9949999Y-443648D02*
X9949999Y599999D01*
X9949999Y599999D02*
X16780000Y7430000D01*
X16780000Y7430000D02*
X20930000Y7430000D01*
%TO.N,/LC5_SIG-*%
X7675001Y38796300D02*
X7675001Y38415300D01*
X21430000Y46455000D02*
X20530000Y45555000D01*
X14433701Y45555000D02*
X7675001Y38796300D01*
X20530000Y45555000D02*
X14433701Y45555000D01*
%TO.N,/LC4_SIG-*%
X9463151Y32700000D02*
X7675001Y34488150D01*
X7675001Y34488150D02*
X7675001Y34884700D01*
X20905000Y29505000D02*
X18395000Y29505000D01*
X15200000Y32700000D02*
X9463151Y32700000D01*
X18395000Y29505000D02*
X15200000Y32700000D01*
%TO.N,/LC4_SIG+*%
X9624999Y34175001D02*
X9624999Y34884700D01*
X20905000Y33045000D02*
X10755000Y33045000D01*
X10755000Y33045000D02*
X9624999Y34175001D01*
%TO.N,/LC5_SIG+*%
X14714000Y45214000D02*
X9624999Y40124999D01*
X24970000Y46455000D02*
X23729000Y45214000D01*
X9624999Y40124999D02*
X9624999Y38415300D01*
X23729000Y45214000D02*
X14714000Y45214000D01*
%TO.N,/LC6_SIG-*%
X-7140299Y33859701D02*
X-7759701Y33859701D01*
X2895000Y43895000D02*
X-7140299Y33859701D01*
X2895000Y46455000D02*
X2895000Y43895000D01*
%TO.N,/LC7_SIG+*%
X-11290301Y35809699D02*
X-13976071Y35809699D01*
X-13976071Y35809699D02*
X-19180000Y41013628D01*
X-19180000Y41013628D02*
X-19180000Y46455000D01*
%TO.N,/LC6_SIG+*%
X-645000Y46455000D02*
X-645000Y40855000D01*
X-645000Y40855000D02*
X-5690301Y35809699D01*
X-5690301Y35809699D02*
X-7759701Y35809699D01*
%TO.N,/LC7_SIG-*%
X-22720000Y44071382D02*
X-12508319Y33859701D01*
X-22720000Y46455000D02*
X-22720000Y44071382D01*
X-12508319Y33859701D02*
X-11290301Y33859701D01*
%TD*%
M02*
